<svg xmlns="http://www.w3.org/2000/svg" style="display:none;">
    <symbol id="icon-facebook">
        <path fill="none" stroke="currentColor" d="M17 2h-3a5 5 0 0 0-5 5v3H6v4h3v8h4v-8h3l1-4h-4V7a1 1 0 0 1 1-1h3z" />
    </symbol>
    <symbol id="icon-whatsapp">
        <path fill="currentColor" d="M19.05 4.91A9.82 9.82 0 0 0 12.04 2c-5.46 0-9.91 4.45-9.91 9.91c0 1.75.46 3.45 1.32 4.95L2.05 22l5.25-1.38c1.45.79 3.08 1.21 4.74 1.21c5.46 0 9.91-4.45 9.91-9.91c0-2.65-1.03-5.14-2.9-7.01m-7.01 15.24c-1.48 0-2.93-.4-4.2-1.15l-.3-.18l-3.12.82l.83-3.04l-.2-.31a8.26 8.26 0 0 1-1.26-4.38c0-4.54 3.7-8.24 8.24-8.24c2.2 0 4.27.86 5.82 2.42a8.18 8.18 0 0 1 2.41 5.83c.02 4.54-3.68 8.23-8.22 8.23m4.52-6.16c-.25-.12-1.47-.72-1.69-.81c-.23-.08-.39-.12-.56.12c-.17.25-.64.81-.78.97c-.14.17-.29.19-.54.06c-.25-.12-1.05-.39-1.99-1.23c-.74-.66-1.23-1.47-1.38-1.72c-.14-.25-.02-.38.11-.51c.11-.11.25-.29.37-.43s.17-.25.25-.41c.08-.17.04-.31-.02-.43s-.56-1.34-.76-1.84c-.2-.48-.41-.42-.56-.43h-.48c-.17 0-.43.06-.66.31c-.22.25-.86.85-.86 2.07s.89 2.4 1.01 2.56c.12.17 1.75 2.67 4.23 3.74c.59.26 1.05.41 1.41.52c.59.19 1.13.16 1.56.1c.48-.07 1.47-.6 1.67-1.18c.21-.58.21-1.07.14-1.18s-.22-.16-.47-.28" />
    </symbol>
    <symbol id="icon-instagram">
        <g fill="none" stroke="currentColor">
            <path d="M3 9.4c0-2.24 0-3.36.436-4.216a4 4 0 0 1 1.748-1.748C6.04 3 7.16 3 9.4 3h5.2c2.24 0 3.36 0 4.216.436a4 4 0 0 1 1.748 1.748C21 6.04 21 7.16 21 9.4v5.2c0 2.24 0 3.36-.436 4.216a4 4 0 0 1-1.748 1.748C17.96 21 16.84 21 14.6 21H9.4c-2.24 0-3.36 0-4.216-.436a4 4 0 0 1-1.748-1.748C3 17.96 3 16.84 3 14.6zm14-2.9h.5" stroke="currentColor" />
            <path d="M15.462 11.487a3.5 3.5 0 1 1-6.925 1.026a3.5 3.5 0 0 1 6.925-1.026" stroke="currentColor" />
        </g>
    </symbol>
    <symbol id="icon-tik-tok">
        <path fill="none" stroke="currentColor" d="M20.2 10.1c0 .22-.18.401-.4.39a8 8 0 0 1-3.362-.93c-.281-.15-.638.045-.638.364V15.5a6 6 0 1 1-6.4-5.987a.38.38 0 0 1 .4.387v2.8c0 .22-.18.397-.398.433A2.4 2.4 0 1 0 12.2 15.5V2.9a.4.4 0 0 1 .4-.4h2.8a.43.43 0 0 1 .418.4a4.4 4.4 0 0 0 3.983 3.982c.22.02.4.197.4.418z"/>
    </symbol>
    <symbol id="icon-about">
        <path fill="currentColor" d="M11.5 16.5h1V11h-1zm.934-7.1q.182-.177.182-.439t-.178-.438T12 8.346t-.438.177t-.177.439t.181.438t.434.177t.434-.177m-.43 11.6q-1.868 0-3.511-.708q-1.643-.709-2.859-1.924t-1.925-2.856T3 12.003t.709-3.51Q4.417 6.85 5.63 5.634t2.857-1.925T11.997 3t3.51.709q1.643.708 2.859 1.922t1.925 2.857t.709 3.509t-.708 3.51t-1.924 2.859t-2.856 1.925t-3.509.709M12 20q3.35 0 5.675-2.325T20 12t-2.325-5.675T12 4T6.325 6.325T4 12t2.325 5.675T12 20m0-8" />
    </symbol>
    <symbol id="icon-faq">
        <path fill="currentColor" d="M12 8.5a1.5 1.5 0 0 0-1.5 1.5v.107a.5.5 0 1 1-1 0V10A2.5 2.5 0 0 1 12 7.5h.116a2.384 2.384 0 0 1 1.552 4.193l-.771.661a1.14 1.14 0 0 0-.397.863v.533a.5.5 0 0 1-1 0v-.533c0-.624.273-1.216.746-1.622l.77-.66a1.384 1.384 0 0 0-.9-2.435zm0 8a.75.75 0 1 0 0-1.5a.75.75 0 0 0 0 1.5" />
        <path fill="currentColor" d="M3.5 12a8.5 8.5 0 1 1 17 0a8.5 8.5 0 0 1-17 0M12 4.5a7.5 7.5 0 1 0 0 15a7.5 7.5 0 0 0 0-15" />
    </symbol>
    <symbol id="icon-drink">
        <path fill="currentColor" d="M4 2h3.323l1.2 3H3v2h2.118l.827 14.059a1 1 0 0 0 .998.941h10.114a1 1 0 0 0 .998-.941L18.882 7H21V5H10.677l-2-5H4zm3.3 8.025L7.12 7h9.758l-.292 4.967c-2.307-.114-3.164-.475-4.216-.896c-1.092-.436-2.4-.936-5.072-1.046m.117 2.008c2.304.114 3.172.48 4.223.9c1.06.424 2.316.905 4.83 1.031L16.113 20H7.886z" />
    </symbol>
    <symbol id="icon-burger">
        <g fill="none" stroke="currentColor">
            <path d="m15 15l3.379-3.379a2.12 2.12 0 0 1 1.5-.621H20a2 2 0 0 1 2 2v0a2 2 0 0 1-2 2H4a2 2 0 0 1-2-2v0a2 2 0 0 1 2-2h4.515a6 6 0 0 1 4.242 1.757zM3 15h18v2a3 3 0 0 1-3 3H6a3 3 0 0 1-3-3z" />
            <path d="M12 4c-4.623 0-8.432 1.756-8.942 6c-.066.55.39 1 .942 1h16c.552 0 1.008-.45.942-1c-.51-4.244-4.319-6-8.942-6M7.001 8H7m5.002 0" />
        </g>
    </symbol>
    <symbol id="icon-home">
        <path fill="currentColor" d="m16 8.41l-4.5-4.5L4.41 11H6v8h3v-6h5v6h3v-8h1.59L17 9.41V6h-1zM2 12l9.5-9.5L15 6V5h3v4l3 3h-3v8h-5v-6h-3v6H5v-8z" />
    </symbol>
    <symbol id="icon-mail">
        <path fill="currentColor" d="M3 19V5h18v14zm9-6.884L4 6.885V18h16V6.885zM12 11l7.692-5H4.308zM4 6.885V6v12z" />
    </symbol>
    <symbol id="icon-mobile">
        <path fill="none" stroke="currentColor" d="M16.286 3H7.714C6.768 3 6 3.806 6 4.8v14.4c0 .994.768 1.8 1.714 1.8h8.572c.947 0 1.714-.806 1.714-1.8V4.8c0-.994-.767-1.8-1.714-1.8M10.5 6h3" />
    </symbol>
    <symbol id="icon-location">
        <path fill="currentColor" d="M12 2c-4.4 0-8 3.6-8 8c0 5.4 7 11.5 7.3 11.8c.2.1.5.2.7.2s.5-.1.7-.2C13 21.5 20 15.4 20 10c0-4.4-3.6-8-8-8m0 17.7c-2.1-2-6-6.3-6-9.7c0-3.3 2.7-6 6-6s6 2.7 6 6s-3.9 7.7-6 9.7M12 6c-2.2 0-4 1.8-4 4s1.8 4 4 4s4-1.8 4-4s-1.8-4-4-4m0 6c-1.1 0-2-.9-2-2s.9-2 2-2s2 .9 2 2s-.9 2-2 2" />
    </symbol>
    <symbol id="icon-time">
        <g fill="none" stroke="currentColor">
            <circle cx="12" cy="12" r="8.5" />
            <path stroke-linecap="round" d="M16.5 12h-4.25a.25.25 0 0 1-.25-.25V8.5" />
        </g>
    </symbol>
    <symbol id="icon-hamburger-menu">
        <path fill="currentColor" d="M3 6h18v2H3zm0 5h18v2H3zm0 5h18v2H3z"/>
    </symbol>
    <symbol id="icon-plus" stroke="currentColor">
        <path d="M5 12h14" />
        <path d="M12 5v14" />
    </symbol>
    <symbol id="icon-halal">
      <path fill="currentColor" d="M450.972,394.069c4.632,0,6.594,5.715,4.204,11.987c0,0,3.148-7.615,3.788-11.987H450.972z"/>
    </symbol>
    <symbol id="icon-business">
        <path fill="currentColor" d="M18 22v-3h-3v-1h3v-3h1v3h3v1h-3v3zM3.23 19.5v-6H2v-1l1.154-5h13.692l1.154 5v1h-1.23v3.27h-1V13.5h-4.54v6zm1-1h6v-5h-6zm-1.219-6H16.99zm.143-7v-1h13.692v1zm-.142 7h13.977l-.927-4H3.938z" />
    </symbol>
</svg>