<svg xmlns="http://www.w3.org/2000/svg" style="display:none;">
    <symbol id="icon-facebook">
        <path fill="none" stroke="currentColor"
            d="M17 2h-3a5 5 0 0 0-5 5v3H6v4h3v8h4v-8h3l1-4h-4V7a1 1 0 0 1 1-1h3z" />
    </symbol>
    <symbol id="icon-whatsapp">
        <path fill="currentColor"
            d="M19.05 4.91A9.82 9.82 0 0 0 12.04 2c-5.46 0-9.91 4.45-9.91 9.91c0 1.75.46 3.45 1.32 4.95L2.05 22l5.25-1.38c1.45.79 3.08 1.21 4.74 1.21c5.46 0 9.91-4.45 9.91-9.91c0-2.65-1.03-5.14-2.9-7.01m-7.01 15.24c-1.48 0-2.93-.4-4.2-1.15l-.3-.18l-3.12.82l.83-3.04l-.2-.31a8.26 8.26 0 0 1-1.26-4.38c0-4.54 3.7-8.24 8.24-8.24c2.2 0 4.27.86 5.82 2.42a8.18 8.18 0 0 1 2.41 5.83c.02 4.54-3.68 8.23-8.22 8.23m4.52-6.16c-.25-.12-1.47-.72-1.69-.81c-.23-.08-.39-.12-.56.12c-.17.25-.64.81-.78.97c-.14.17-.29.19-.54.06c-.25-.12-1.05-.39-1.99-1.23c-.74-.66-1.23-1.47-1.38-1.72c-.14-.25-.02-.38.11-.51c.11-.11.25-.29.37-.43s.17-.25.25-.41c.08-.17.04-.31-.02-.43s-.56-1.34-.76-1.84c-.2-.48-.41-.42-.56-.43h-.48c-.17 0-.43.06-.66.31c-.22.25-.86.85-.86 2.07s.89 2.4 1.01 2.56c.12.17 1.75 2.67 4.23 3.74c.59.26 1.05.41 1.41.52c.59.19 1.13.16 1.56.1c.48-.07 1.47-.6 1.67-1.18c.21-.58.21-1.07.14-1.18s-.22-.16-.47-.28" />
    </symbol>
    <symbol id="icon-instagram">
        <g fill="none" stroke="currentColor">
            <path
                d="M3 9.4c0-2.24 0-3.36.436-4.216a4 4 0 0 1 1.748-1.748C6.04 3 7.16 3 9.4 3h5.2c2.24 0 3.36 0 4.216.436a4 4 0 0 1 1.748 1.748C21 6.04 21 7.16 21 9.4v5.2c0 2.24 0 3.36-.436 4.216a4 4 0 0 1-1.748 1.748C17.96 21 16.84 21 14.6 21H9.4c-2.24 0-3.36 0-4.216-.436a4 4 0 0 1-1.748-1.748C3 17.96 3 16.84 3 14.6zm14-2.9h.5"
                stroke="currentColor" />
            <path d="M15.462 11.487a3.5 3.5 0 1 1-6.925 1.026a3.5 3.5 0 0 1 6.925-1.026"
                stroke="currentColor" />
        </g>
    </symbol>
    <symbol id="icon-about">
        <path fill="currentColor"
            d="M11.5 16.5h1V11h-1zm.934-7.1q.182-.177.182-.439t-.178-.438T12 8.346t-.438.177t-.177.439t.181.438t.434.177t.434-.177m-.43 11.6q-1.868 0-3.511-.708q-1.643-.709-2.859-1.924t-1.925-2.856T3 12.003t.709-3.51Q4.417 6.85 5.63 5.634t2.857-1.925T11.997 3t3.51.709q1.643.708 2.859 1.922t1.925 2.857t.709 3.509t-.708 3.51t-1.924 2.859t-2.856 1.925t-3.509.709M12 20q3.35 0 5.675-2.325T20 12t-2.325-5.675T12 4T6.325 6.325T4 12t2.325 5.675T12 20m0-8" />
    </symbol>
    <symbol id="icon-faq">
        <path fill="currentColor"
            d="M12 8.5a1.5 1.5 0 0 0-1.5 1.5v.107a.5.5 0 1 1-1 0V10A2.5 2.5 0 0 1 12 7.5h.116a2.384 2.384 0 0 1 1.552 4.193l-.771.661a1.14 1.14 0 0 0-.397.863v.533a.5.5 0 0 1-1 0v-.533c0-.624.273-1.216.746-1.622l.77-.66a1.384 1.384 0 0 0-.9-2.435zm0 8a.75.75 0 1 0 0-1.5a.75.75 0 0 0 0 1.5" />
        <path fill="currentColor"
            d="M3.5 12a8.5 8.5 0 1 1 17 0a8.5 8.5 0 0 1-17 0M12 4.5a7.5 7.5 0 1 0 0 15a7.5 7.5 0 0 0 0-15" />
    </symbol>
    <symbol id="icon-drink">
        <path fill="currentColor"
            d="m273.637 128l3.809 32h96.43l-8 64H252.573l-7.442-64h.089l-3.809-32l-.045-.389l-9.041-77.745L230.247 32H104v32h97.753l7.442 64h-91.319l40.5 323.969A32.05 32.05 0 0 0 190.125 480h147.75a32.05 32.05 0 0 0 31.753-28.031L410.124 128Zm-119.513 32h58.792l7.442 64h-58.234Zm183.765 288H190.124l-24-192h57.955l13.953 120h32.215l-13.954-120H361.88Z" />
    </symbol>
    <symbol id="icon-burger">
        <g fill="none" stroke="currentColor">
            <path
                d="m15 15l3.379-3.379a2.12 2.12 0 0 1 1.5-.621H20a2 2 0 0 1 2 2v0a2 2 0 0 1-2 2H4a2 2 0 0 1-2-2v0a2 2 0 0 1 2-2h4.515a6 6 0 0 1 4.242 1.757zM3 15h18v2a3 3 0 0 1-3 3H6a3 3 0 0 1-3-3z" />
            <path
                d="M12 4c-4.623 0-8.432 1.756-8.942 6c-.066.55.39 1 .942 1h16c.552 0 1.008-.45.942-1c-.51-4.244-4.319-6-8.942-6M7.001 8H7m5.002 0" />
        </g>
    </symbol>
    <symbol id="icon-home">
        <path fill="currentColor"
            d="m16 8.41l-4.5-4.5L4.41 11H6v8h3v-6h5v6h3v-8h1.59L17 9.41V6h-1zM2 12l9.5-9.5L15 6V5h3v4l3 3h-3v8h-5v-6h-3v6H5v-8z" />
    </symbol>
    <symbol id="icon-mail">
        <path fill="currentColor"
            d="M3 19V5h18v14zm9-6.884L4 6.885V18h16V6.885zM12 11l7.692-5H4.308zM4 6.885V6v12z" />
    </symbol>
    <symbol id="icon-mobile">
        <path fill="none" stroke="currentColor"
            d="M16.286 3H7.714C6.768 3 6 3.806 6 4.8v14.4c0 .994.768 1.8 1.714 1.8h8.572c.947 0 1.714-.806 1.714-1.8V4.8c0-.994-.767-1.8-1.714-1.8M10.5 6h3" />
    </symbol>
    <symbol id="icon-location">
        <path fill="currentColor"
            d="M12 2c-4.4 0-8 3.6-8 8c0 5.4 7 11.5 7.3 11.8c.2.1.5.2.7.2s.5-.1.7-.2C13 21.5 20 15.4 20 10c0-4.4-3.6-8-8-8m0 17.7c-2.1-2-6-6.3-6-9.7c0-3.3 2.7-6 6-6s6 2.7 6 6s-3.9 7.7-6 9.7M12 6c-2.2 0-4 1.8-4 4s1.8 4 4 4s4-1.8 4-4s-1.8-4-4-4m0 6c-1.1 0-2-.9-2-2s.9-2 2-2s2 .9 2 2s-.9 2-2 2" />
    </symbol>
    <symbol id="icon-time">
        <g fill="none" stroke="currentColor">
            <circle cx="12" cy="12" r="8.5" />
            <path stroke-linecap="round" d="M16.5 12h-4.25a.25.25 0 0 1-.25-.25V8.5" />
        </g>
    </symbol>
    <symbol id="icon-plus" stroke="currentColor">
        <path d="M5 12h14" />
        <path d="M12 5v14" />
    </symbol>
    <symbol id="icon-halal">
        <g>
            <polygon points="119.7 154.2 124.6 154.2 122.2 145.2 119.7 154.2" />
            <polygon points="74.7 154.2 79.6 154.2 77.2 145.2 74.7 154.2" />
            <path
                d="M100.1.5C45.2.5.6,45.1.6,100s44.5,99.5,99.5,99.5,99.5-44.5,99.5-99.5S155.1.5,100.1.5ZM78.2,55.4c5.2-1.2,9.9,0,14.5,2.4,3.4,1.8,6.3,4.1,8.4,7.5,1.3,2.2,2.1,4.5,2.6,7,.9,3.9.8,7.8.4,11.7-.3,3.4-1,6.9-2.5,10.1,0-.3,0-.7,0-1,0-4.1-.3-8.2-1.3-12.1-.8-3.3-1.8-6.5-4.5-8.9-2.2-2-4.9-2.9-7.9-2.6-1.4.1-2.2,1.1-2.3,2.5,0,.3,0,.6,0,1,0,.6-.3.8-.9.7-4.5-.8-8.6-2.2-11.1-6.3-1.7-2.7-2.1-5.7-.4-8.6,1.1-1.9,3-2.8,5.1-3.3ZM27,119.8c-2.5-1.9-4-4.4-4.2-7.6-.3-4.5,1.2-8.6,3.2-12.5,1-1.9,2.1-3.6,3.2-5.5.1,0,.3,0,.4.1,0,.6,0,1.1-.1,1.7-.3,3.6,0,7.2,1.8,10.4,1.4,2.4,3.5,4,6.1,4.9,4.3,1.5,8.6,1.3,13,.7,2.5-.4,5-1,7.1-2.4,2.7-1.8,4.2-4.2,4.2-7.5,0-13.3,0-26.5,0-39.8,0-4.4-1.6-8-4.3-11.2-.6-.7-.7-1.2-.3-2,1.7-3.4,3.2-6.8,4.9-10.4.3.3.6.5.8.8,2,2.5,4.6,4.1,7.6,5.2,2.1.8,2,.7,1.1,2.8-1.1,2.4-2,4.9-3,7.4-.2.4-.2.9-.2,1.3-.2,14.6-.3,29.2-.6,43.8-.1,6.6-2.2,12.5-7,17.3-2.7,2.7-6,4.4-9.7,5.4-5.3,1.4-10.6,1.2-15.9.3-3-.5-5.9-1.4-8.4-3.2ZM62.8,163.7h-6.9v-10.1h-7.5v10.1h-6.9v-24.9h6.9v8.7h7.5v-8.7h6.9v24.9ZM82.2,163.7l-1.1-4.1h-7.8l-1.1,4.1h-7l8.4-24.9h7.5l8.4,24.9h-7.2ZM109.2,163.7h-17.6v-24.9h6.9v18.8h10.7v6.1ZM127.2,163.7l-1.1-4.1h-7.8l-1.1,4.1h-7l8.4-24.9h7.5l8.4,24.9h-7.2ZM154.2,163.7h-17.6v-24.9h6.9v18.8h10.7v6.1ZM168,111.1c-.4.7-.8.5-1.3.1-1.7-1.2-3.3-2.5-5.1-3.5-4.4-2.4-9.2-2.9-14-1.6-3.8,1-7.5,2.2-11.2,3.4-3.9,1.2-7.8,2.5-11.9,2.4-3.4,0-6.5-1.1-9.5-2.4-1.9-.9-2.4-.6-3.4,1.3-1.5,2.9-3,5.7-4.9,8.4-2.8,4-6.5,7.1-11.1,8.9-1.5.6-3.1,1-4.7,1.2-5,.5-9.8,0-14.2-2.7-3.2-1.9-5-4.9-5.9-8.6-.6-2.5-.6-4.9-.4-7.4.4-3.8,1.4-7.5,2.9-11,1.1-2.6,2.4-5.1,4.2-7.3.2-.3.5-.5.9-.9-.4,2.3-.7,4.3-1,6.3-.6,3.4-.6,6.8.2,10.1,1,4.3,3.3,7.5,7.5,9.1,2.2.8,4.6.9,6.9.9,2.7,0,5.4-.3,8-1.3,2.8-1,5.1-2.5,6-5.5.3-1.1.4-2.3.4-3.4-.3-12.6-.6-25.1-.9-37.7-.2-7.9-.5-15.9-.6-23.8,0-.7.3-1.5.7-2.1,1.7-2.3,3.4-4.5,5.2-6.7.2-.3.5-.5,1-1,0,.8,0,1.4,0,1.9,0,9.1,0,18.1.1,27.2,0,7.8.2,15.7.3,23.5,0,3.8,1.7,6.8,5.2,8.6,1.9,1,4.1,1.2,6.3,1.3,5.7.2,11.3.4,16.9-.6,1.2-.2,2.4-.6,3.6-1.1.8-.3,1-1.1.4-1.7-1.5-1.7-3.2-3.2-5.5-3.7-1.7-.3-3,.3-4.2,1.4-.6.5-1,.5-1.6,0-2.9-2.1-6-3.8-9.5-4.7-.5-.1-.9-.3-1.5-.6.5-.7.8-1.4,1.3-1.9,2.1-2.6,4.5-4.8,7.7-6.1,3.1-1.2,6.3-1.2,9.5-.5,5.6,1.3,10.1,4.8,14.4,8.4,2.7,2.3,5.5,4.5,8.7,6.1,3.6,1.8,7.5,2.5,11.5,2.6.6,0,1.1,0,2,0-.9,1.2-1.7,2.1-2.3,3.1-2.4,3.7-4.8,7.5-7.2,11.3Z" />
        </g>
    </symbol>
</svg>