<svg width="386" height="64" viewBox="0 0 386 64" fill="none" xmlns="http://www.w3.org/2000/svg">
<path d="M29.8087 63.4889C30.0471 63.4077 31.0059 63.6051 31.4209 63.5709C30.9504 64.4294 28.9489 63.7836 29.8087 63.4889ZM72.383 1.14666C72.0387 1.35891 71.6943 1.57115 71.3499 1.7834C72.3285 1.92131 73.644 1.76553 74.5522 1.967C74.7007 2.00084 74.3154 2.61537 74.6668 2.64281C75.0184 2.67008 74.9506 1.83026 75.4619 1.74043C76.0354 1.64222 78.6614 2.2273 79.5709 2.2131C82.9722 2.15641 86.4028 1.67681 89.811 2.0256C86.2925 2.64692 89.8381 3.27928 90.8236 3.01001C91.042 2.94766 91.0071 1.38638 94.5373 1.7795C96.7807 2.02896 94.7086 4.26104 98.4523 3.14283C95.5735 1.58134 98.4044 1.69077 100.661 1.63886C101.05 1.62967 104.192 1.86427 105.58 1.79512C106.055 1.77107 106.778 0.953266 107.408 0.931807C107.842 0.917648 108.169 1.36474 108.813 1.34198C111.814 1.2412 114.764 1.20644 117.77 1.3576C116.014 3.45917 119.149 2.25326 119.29 2.35373C120.006 2.92433 116.767 3.08674 118.048 3.44362C119.838 3.37851 121.628 3.31341 123.418 3.2483C121.949 2.99027 125.363 1.47859 125.991 2.16623C125.714 0.30921 134.149 3.78251 135.433 3.16236C135.701 3.03137 133.95 2.11357 138.011 2.53343C138.451 2.58008 138.284 3.14037 138.515 3.08814C138.653 3.05673 139.489 1.27594 140.38 2.25998C140.705 2.61914 138.624 3.78873 143.194 3.31861C141.374 1.50612 149.531 2.33704 151.032 2.79125C150.732 2.54775 150.432 2.30425 150.132 2.06075C151.616 2.71763 151.883 2.10139 152.218 2.13498C153.564 2.26987 155.416 2.8909 156.671 2.83422C158.139 2.76902 158.144 1.64182 159.855 2.08029C159.449 1.83158 159.043 1.58287 158.637 1.33417C159.819 1.39406 161.001 1.45396 162.183 1.51386C159.446 3.00596 162.774 1.58505 162.993 1.55292C163.342 1.49862 162.84 2.10948 163.425 2.03341C163.485 2.02089 163.398 1.44565 164.299 1.38104C166.183 1.24802 165.885 1.97128 166.676 1.96309C166.748 1.95937 166.494 1.44114 167.86 1.31854C172.201 0.928249 167.838 1.71567 167.672 1.78731C167.453 1.88178 168.942 4.04747 165.254 3.27955C166.492 3.52402 166.617 4.48237 166.756 4.50616C166.88 4.52572 169.025 4.39073 169.143 4.35772C170.197 4.03228 169.27 3.37738 169.475 3.26002C169.643 3.16541 172.227 4.01888 172.833 2.04904C174.07 3.86598 172.122 3.69952 170.048 3.9788C169.746 4.35164 172.023 4.7142 172.142 4.7132C175.079 4.70988 173.453 3.21534 174.096 2.25998C174.433 1.76012 175.629 2.77975 174.525 1.43964C177.19 1.29818 175.574 2.07474 175.746 2.18967C176.006 2.35851 176.939 1.97444 177.055 2.0256C177.227 2.10134 176.631 2.56532 177.307 2.72875C177.419 2.75251 178.508 1.95408 177.104 1.57246C178.979 1.68596 178.825 1.00514 179.461 2.37717C180.753 -0.218548 180.398 3.91148 180.907 4.05692C182.26 4.44031 181.867 2.40233 181.939 2.30295C182.431 1.66609 186.176 2.36618 187.103 2.07247C186.737 3.54035 184.134 2.0885 183.552 2.37327C181.612 3.32067 186.287 3.10715 184.878 4.95149C185.469 4.44496 186.06 3.93843 186.65 3.4319C187.734 4.61774 186.197 5.13482 189.112 4.70148C189.589 3.67794 187.051 4.86314 187.56 4.05692C187.86 3.58376 189.55 3.48213 189.584 3.23268C189.617 2.93239 188.089 3.28827 188.33 2.82641C188.856 1.82972 194.428 2.77856 190.186 3.32252C191.369 3.30549 191.979 5.28792 193.005 4.67023C193.668 4.26929 189.936 1.53133 195.536 2.03341C195.655 2.96953 193.297 2.30984 193.236 2.38108C193.15 2.48478 193.576 4.59721 193.65 4.70148C193.911 5.04477 199.63 3.91361 200.838 4.97493C200.36 3.75402 205.159 4.75707 205.682 4.38506C205.821 4.28236 205.301 3.5345 205.449 3.45534C206.378 2.98421 208.888 4.31922 210.052 4.35381C211.355 4.39301 211.19 3.7471 211.263 3.74832C211.837 3.78435 211.379 4.22223 211.729 4.22099C212.259 4.21889 215.898 4.30845 216.081 4.21709C216.134 4.18862 215.54 3.45077 216.333 3.3108C216.471 3.28655 216.384 4.16136 218.733 3.78348C221.563 3.32899 216.768 2.69561 217.944 1.7795C219.762 3.08389 219.703 1.79128 220.195 1.89278C220.366 1.92975 221.636 3.02875 223.016 2.95923C222.026 3.13762 221.036 3.31601 220.046 3.4944C221.019 3.68711 222.909 3.44859 223.711 3.66628C224.102 3.77225 223.78 4.67509 224.629 4.6507C224.81 4.64061 225.525 2.44104 223.299 3.42799C223.121 2.6426 224.18 3.15404 224.672 2.93188C224.746 2.89726 225.039 1.58517 225.667 2.40061C225.817 2.60124 224.177 6.42873 228.408 3.65847C228.544 3.56919 228.07 3.08985 228.203 2.99048C228.294 2.92318 229.374 3.11708 229.494 3.04907C229.616 2.9761 229.094 2.4528 229.239 2.34983C229.984 1.81923 230.962 3.89474 229.426 3.7366C229.939 3.99312 230.453 4.24964 230.966 4.50616C230.417 2.94191 231.772 4.06604 232.483 4.01786C237.035 3.70998 233.987 2.69261 234.769 2.16623C236.028 1.32107 235.067 3.99796 236.936 3.19361C237.109 3.11841 234.85 1.98211 239.261 2.62328C238.61 2.66755 237.959 2.71182 237.307 2.75609C237.683 4.26907 239.658 2.65231 239.81 2.63109C241.542 2.42335 240.371 2.96877 242.943 2.18967C243.173 2.11972 243.673 2.49311 244.165 2.30686C246.201 1.53952 241.478 1.84123 241.349 1.22869C241.288 0.928556 246.367 1.00414 246.541 1.14666C247.281 1.7784 244.239 1.42491 244.819 2.2092C245.03 2.48768 252.269 1.91572 253.721 2.22092C255.397 2.57607 256.152 4.62738 256.162 2.32248C256.635 4.58494 257.053 3.04131 257.268 3.05689C259.859 3.26632 259.864 3.28915 262.086 3.07251C262.577 3.02542 262.992 3.71188 263.165 3.59597C263.266 3.52596 263.077 2.79134 263.572 2.56468C264.26 2.2546 268.391 3.01019 268.698 3.41628C269.005 3.82237 266.953 3.59238 267.321 4.26006C268.806 4.32755 270.23 4.16235 271.726 4.23271C272.346 4.26394 272.027 4.73125 272.296 4.74055C272.41 4.74629 274.554 4.33477 274.463 4.1624C274.251 3.76157 267.629 4.031 269.373 3.21314C269.709 3.05511 270.898 4.13199 270.709 2.8225C276.624 3.11939 282.54 3.41628 288.455 3.71316C285.057 4.69259 281.232 3.81665 277.672 3.90848C277.184 3.91982 275.534 3.79352 275.735 4.45538C278.762 4.62673 282.526 4.28188 285.432 4.7132C285.526 4.72747 285.184 5.32212 285.532 5.41635C286.184 5.59223 288.305 4.63317 288.661 4.88117C288.722 4.93895 287.515 5.72288 287.882 6.22107C288.824 7.49955 289.064 4.66793 289.874 4.70148C290.5 4.72863 294.709 6.09776 295.758 5.23275C296.873 4.31075 292.656 4.69748 292.967 3.94364C295.82 3.18607 298.71 3.99504 301.406 3.90067C301.453 3.89826 301.041 3.30752 301.642 3.22486C302.689 3.08102 302.964 3.91897 303.473 4.05302C304.023 4.19572 305.966 4.07564 306.226 4.38116C306.259 4.42122 305.865 5.25236 305.806 5.27572C304.959 5.61827 304.658 4.53954 304.581 4.52569C304.292 4.48479 304.008 4.89797 303.744 4.87336C303.309 4.83233 303.07 4.45006 302.496 4.41631C302.1 4.39161 302.482 5.12569 302.101 5.09212C301.961 5.07683 300.45 3.40062 300.309 5.11165C300.266 5.65114 312.618 6.34393 313.853 5.91246C312.794 5.70673 311.735 5.50099 310.676 5.29525C312.826 5.79606 315.41 4.42892 315.593 6.45155C323.569 6.61692 331.544 6.78229 339.52 6.94766C340.944 7.11998 340.163 8.41973 342.506 8.04145C341.9 7.62737 341.295 7.21329 340.689 6.79922C341.89 7.0897 347.212 7.6572 348.073 7.38908C348.184 7.35394 348.339 6.1776 349.669 6.07653C350.848 5.98729 351.038 6.86867 351.669 7.03751C352.198 7.17681 352.793 6.94588 352.95 6.99454C353.071 7.03349 353.119 7.57245 353.409 7.66644C354.325 7.95701 353.582 6.4395 354.492 8.18208C354.271 8.24849 354.049 8.3149 353.828 8.38131C354.933 8.63352 356.444 9.42464 354.815 9.81496C354.535 9.88234 354.776 9.36092 354.567 9.36181C346.389 9.45871 352.919 10.4723 355.785 9.66261C356.521 10.4352 360.646 9.9635 360.783 10.1157C360.974 10.3363 360.268 10.9537 361.193 11.4869C361.388 11.5998 366.903 11.1671 364.917 12.194C364.507 12.4058 361.863 12.1832 361.226 12.2135C362.725 13.851 366.241 11.5049 366.637 11.565C368.232 11.8202 363.573 12.9842 367.166 13.1745C369.929 13.3205 367.335 12.2271 368.397 11.7603C368.994 11.4985 372.121 12.703 372.036 11.1431C373.109 10.9766 372.481 11.8025 372.614 11.8619C372.743 11.9141 374.853 11.4472 375.538 11.776C375.621 11.8169 375.36 12.6276 375.446 12.694C375.613 12.8076 377.647 12.6455 377.729 12.5768C377.781 12.5291 377.296 11.8192 377.496 11.6471C377.728 11.4486 379.686 11.6156 379.794 11.4127C379.947 11.1059 377.529 11.308 377.932 10.5142C379.046 10.7141 380.862 10.1844 381.597 9.54541C381.417 9.72813 380.337 9.75436 379.962 9.68995C380.138 8.52738 382.458 8.54322 381.665 9.46338C382.169 8.96921 381.825 8.70704 382.109 8.24068C382.183 8.12254 382.899 8.09821 383.037 7.89691C383.055 7.85681 382.316 7.41817 382.464 7.18204C382.732 6.75535 384.904 6.85134 385.082 6.96329C385.582 7.28052 383.811 7.66436 383.664 8.15474C383.643 8.23004 385.148 9.191 385.171 9.27587C385.259 10.1864 383.584 9.53024 383.775 10.3501C384.19 10.5233 384.604 10.6965 385.018 10.8697C383.42 11.7 380.463 11.273 379.7 12.2174C382.07 11.9364 384.55 11.9696 384.545 14.0964C384.544 14.9921 383.521 15.5171 383.561 15.7449C383.711 16.5597 385.131 15.6745 385.183 15.7175C385.226 15.7672 385.246 15.8155 385.246 15.8626C385.246 15.8626 385.246 15.8626 385.246 15.8627C385.246 16.3398 383.223 16.6833 383.121 16.9012C382.951 17.2881 383.852 18.881 383.85 19.2333C383.819 19.3041 382.378 19.681 382.864 20.2958C383.356 20.9168 384.617 20.9305 384.661 20.9951C384.902 21.3666 382.696 21.7054 382.63 21.9248C382.596 22.0357 383.78 22.7172 383.815 22.9131C383.844 23.1097 382.944 23.5387 382.589 24.1592C382.325 24.6203 383.095 24.9737 382.96 25.046C382.863 25.0939 380.778 25.0861 380.676 25.1671C380.523 25.287 381.011 25.838 380.94 25.9757C380.84 26.1739 380.166 25.975 380.254 26.1789C380.32 26.3308 382.929 28.2302 382.913 28.7375C382.883 29.6029 380.119 27.6118 382.691 31.0267C382.709 31.0491 383.335 30.8064 383.352 30.8275C383.738 31.4558 381.732 32.4223 384.185 32.2533C379.621 33.3446 383.617 33.5542 382.942 35.0112C382.681 35.5713 380.912 35.8022 380.904 35.8863C381.076 36.5968 381.639 36.0457 381.831 36.3941C381.936 36.5888 380.353 37.34 380.71 37.8277C380.894 38.0791 382.574 37.9896 382.644 38.0387C383.309 38.5012 382.493 38.9993 382.639 39.3278C382.736 39.548 383.75 39.5655 383.777 39.6051C383.819 39.6876 382.443 40.5775 382.156 40.8904C381.938 41.131 382.756 41.5081 382.604 41.613C381.687 42.2405 379.737 40.6402 381.616 42.8826C381.731 43.0201 382.442 42.9646 382.463 42.992C382.902 43.6277 381.593 43.6826 381.359 44.203C380.957 45.0997 382.838 44.5997 381.274 45.2304C382.447 45.8168 383.102 45.7923 384.475 45.6288C380.672 46.0848 379.33 48.4061 383.552 48.3477C382.209 48.3115 382.358 49.6216 381.957 49.6446C381.708 49.6574 379.761 48.3548 380.654 51.2775C380.766 51.6425 381.949 51.1787 381.578 51.9259C378.739 51.7352 381.518 52.4014 381.521 52.5002C381.484 54.2218 374.548 52.8117 373.356 53.008C371.973 53.2357 370.744 54.5923 370.443 54.594C369.454 54.5946 370.275 53.9058 370.054 53.6526C369.829 53.4016 367.017 54.7212 366.876 54.6487C366.331 54.3576 366.884 53.5414 366.828 53.5002C366.153 53.0001 362.376 53.6392 361.318 53.4494C361.351 53.9789 363.474 54.0209 362.149 54.8714C360.605 55.8628 360.517 53.5287 360.476 53.426C353.403 53.4481 346.331 53.4703 339.258 53.4924C339.346 54.7342 343.97 53.7977 344.075 53.9612C344.693 54.9292 336.882 54.9114 335.924 54.4729C336.652 54.7411 337.379 55.0094 338.107 55.2776C336.864 56.7053 334.114 54.8504 332.316 55.4808C331.735 55.6851 332.85 56.2361 332.827 56.2738C332.174 56.8282 331.127 56.401 331.91 55.6565C330.317 56.3699 330.549 55.5828 329.327 55.5237C329.263 55.5212 329.789 56.0974 328.821 56.3363C328.368 56.4477 325.95 56.4495 325.626 56.9535C325.493 57.1656 326.719 59.3998 326.871 57.4769C329.501 58.4143 327.711 56.6007 328.733 56.6449C328.889 56.6549 328.529 57.7282 331.102 57.223C330.612 59.1585 327.649 57.7112 327.141 57.9457C326.094 58.4276 330.41 59.4271 331.202 57.9183C330.832 59.4288 331.508 58.1219 332.47 58.184C333.523 58.2513 333.064 58.7011 333.634 58.7035C335.192 58.7148 334.546 57.6486 335.831 58.6098C334.578 55.6342 338.03 58.2171 339.036 58.9965C337.4 59.1476 335.763 59.2986 334.126 59.4497C334.22 59.6059 334.313 59.7622 334.407 59.9184C333.976 59.8963 333.545 59.8741 333.114 59.852C333.183 59.7023 333.252 59.5525 333.321 59.4028C331.098 60.3764 330.556 59.2821 330.374 59.27C328.041 59.143 325.346 59.1524 322.987 59.1489C322.633 59.1483 322.876 60.1222 320.296 59.3598C319.473 59.117 320.25 58.3594 319.317 58.4731C318.15 60.5318 318.172 58.8897 317.825 58.8871C316.83 58.8874 316.222 59.3974 316.129 59.4028C314.9 59.4824 313.098 59.3972 311.747 59.4731C311.722 59.4809 312.425 60.1134 311.547 59.9262C311.239 59.8594 308.475 57.1593 306.058 58.0394C306.687 58.2217 307.315 58.404 307.944 58.5863C307.205 58.3316 302.026 59.0121 303.293 59.7348C304.069 60.1766 305.964 58.4362 306.171 60.1098C304.448 59.6089 294.931 60.3581 294.19 59.9692C294.087 59.9137 294.718 59.3707 294.576 59.3012C294.467 59.2483 292.287 59.377 291.997 59.1684C291.825 59.0445 292.788 58.7117 292.71 58.516C292.641 58.3765 289.919 58.144 289.763 58.8246C290.432 58.5514 292.311 58.79 291.326 59.3637C291.199 59.435 290.542 58.996 290.388 59.0864C288.959 59.9203 293.229 59.7201 293.89 59.727C291.208 60.5941 287.059 59.5719 283.951 60.1372C282.695 59.5707 285.813 59.2705 284.392 58.8012C281.444 57.8283 283.608 59.5846 283.516 59.6567C282.784 60.2282 280.29 57.1651 280.289 59.4965C279.22 59.1456 279.566 58.8516 278.058 59.1567C278.256 59.3181 278.455 59.4796 278.653 59.6411C276.979 60.9915 273.435 57.5845 273.701 57.3246C274.415 56.629 276.26 57.714 276.418 57.6879C276.651 57.6493 277.296 55.2835 279.849 57.3988C280.895 55.8121 275.803 56.3279 278.12 55.2464C276.555 55.4239 270.117 54.3195 269.19 55.0159C269.08 55.1068 269.595 56.6878 268.004 55.8831C267.249 55.4999 269.07 55.4815 268.725 55.1214C267.662 54.016 253.203 54.7231 250.456 54.7815C250.278 54.7833 250.343 54.2926 250.168 54.2971C249.63 54.3108 247.669 55.0425 246.706 54.8167C248.701 55.7249 244.826 55.7955 243.84 55.6956C242.344 55.5434 242.436 54.68 241.79 54.4963C239.298 53.7885 235.438 55.8386 233.503 53.9221C233.609 55.8242 230.155 52.9895 228.584 52.9728C227.353 52.9592 225.568 54.2179 227.229 54.9846C225.105 54.897 222.869 55.2519 220.876 55.3675C220.547 55.3869 221 54.8244 220.438 54.8753C220.387 54.8839 220.317 55.4351 219.834 55.4925C215.85 55.9729 217.789 54.8016 217.043 54.4573C216.626 54.2645 216.318 54.1686 216.092 54.1369C218.414 54.0292 221.093 53.8128 221.809 53.7971C221.198 52.5799 216.662 54.0309 215.334 53.7033C215.288 53.6914 215.448 53.0206 215.402 53.0158C215.401 53.0158 215.4 53.0158 215.399 53.0158C214.901 52.9644 211.73 53.212 212.383 54.0119C212.558 54.2257 214.018 54.2252 215.748 54.1526C215.28 54.3026 215.63 55.0542 215.547 55.0862C214.545 55.4577 212.089 54.7242 211.218 54.6252C211.019 54.6035 211.033 55.085 211 55.0862C210.208 54.9768 210.533 53.602 209.72 55.0198C208.285 53.3064 212.409 54.7654 212.119 53.6526C211.895 52.7958 202.736 53.256 202.763 54.6057C202.731 54.4614 202.605 54.2822 202.347 54.0784C201.774 53.6254 199.225 53.7671 198.785 54.0159C198.711 54.0648 198.74 55.3749 198.648 55.387C198.418 55.4171 195.302 54.3899 194.138 55.1643C194.766 55.3479 195.395 55.5315 196.023 55.7151C192.228 55.7265 192.815 56.1164 194.079 56.5081C194.142 56.5117 194.204 56.5614 194.264 56.5667C195.245 56.8564 196.501 57.1353 196.52 57.2386C196.592 57.633 190.153 57.8525 191.391 56.637C191.564 56.4709 194.543 57.0121 193.068 56.1448C192.81 55.9929 190.897 56.2404 190.796 56.1448C190.124 55.5093 194.302 54.665 193.791 53.7619C192.777 54.6217 191.476 54.1689 190.313 54.3909C189.783 54.4912 189.653 55.148 189.588 55.1604C188.612 55.3319 189.16 54.6432 188.834 54.6604C188.659 54.6722 186.737 56.138 187.1 54.1174C180.765 55.6038 185.348 55.6023 189.234 55.4886C188.006 56.2245 185.598 55.8685 184.518 56.0394C184.13 56.1014 184.36 56.7756 183.705 56.9105C182.358 57.1879 175.923 56.4134 174.247 56.2308C175.276 55.9926 174.975 55.2581 174.181 55.3089C173.386 55.36 174.054 56.3402 173.899 56.4456C173.732 56.5547 170.004 56.092 169.384 56.2191C172.191 55.864 171.558 55.1316 169.175 55.055C169.52 54.844 169.864 54.6331 170.208 54.4221C168.812 54.7186 165.877 53.6013 165.069 53.9338C164.943 53.9872 165.398 54.6031 165.326 54.6331C164.618 54.8947 162.21 54.2667 162.098 54.4768C162.003 54.6517 163.03 55.168 162.649 55.4222C162.569 55.4757 161.579 54.6433 160.603 54.8479C160.241 54.9232 160.459 55.5056 160.368 55.5393C159.608 55.8195 160.057 54.8388 158.668 54.9964C157.65 55.113 156.892 56.0718 155.486 55.7542C160.103 56.9764 156.222 56.4659 154.291 56.8363C153.982 56.8954 154.247 57.9526 152.398 57.4379C156.333 55.5262 151.277 56.4274 150.242 56.4066C150.186 56.4001 150.166 55.7029 149.659 55.6917C149.616 55.6923 149.678 56.1635 149.206 56.1995C144.735 56.5402 147.594 56.0079 146.745 55.5433C146.383 55.3453 144.209 56.0115 143.623 56.0276C143.489 56.0293 143.551 55.5397 143.03 55.5589C142.108 55.594 141.282 56.1152 140.674 56.1566C140.603 56.159 140.6 55.3865 139.447 55.637C139.123 55.707 138.759 55.9813 139.219 56.2034C140.746 56.9339 143.643 55.6697 145.369 56.3988C146.943 57.0628 141.98 57.1254 141.722 57.1293C141.627 57.1317 142.596 56.7481 141.612 56.6722C140.771 56.609 139.234 57.9433 137.98 57.6527C137.885 57.6312 136.883 56.4999 136.929 56.4339C136.971 56.3857 138.509 56.1402 138.286 55.8128C138.259 55.7755 137.282 55.7831 137.154 55.5393C136.998 55.2426 136.577 52.331 136.368 52.258C135.832 52.0776 136.181 52.7417 135.835 52.6955C135.092 52.5981 132.515 51.737 132.431 52.7463C132.857 52.8062 133.282 52.8661 133.708 52.926C131.339 53.0298 132.349 53.4594 132.014 53.6486C131.652 53.8534 131.754 52.9663 130.955 52.883C130.782 52.8647 127.441 53.0499 127.502 53.4221C129.349 52.8297 128.664 53.926 128.75 53.9455C129.073 54.017 129.487 53.402 129.921 53.4143C132.975 53.5105 129.895 54.4811 130.616 54.7307C130.864 54.8147 131.359 54.2898 131.464 54.3166C131.806 54.4036 131.812 55.091 132.04 55.0354C132.573 54.9064 131.951 53.9337 131.993 53.883C132.469 53.2743 134.334 54.0317 133.173 55.0901C133.87 55.4715 133.952 54.1852 134.505 54.6995C135.603 55.7178 133.957 55.4562 133.511 55.6253C131.911 56.2352 131.436 55.7415 129.171 55.9105C128.356 55.9701 127.389 56.5949 127.011 56.6292C126.773 56.6508 124.522 54.4768 124.455 57.8793C123.58 57.55 122.208 55.3079 121.306 55.4104C120.497 55.504 120.754 56.7077 120.679 56.7542C120.563 56.8274 119.584 56.7326 119.253 56.9027C118.865 57.1037 119.059 57.5631 118.443 57.7504C116.912 58.2151 116.952 56.9864 116.794 56.9066C114.967 55.9836 115.767 57.7313 115.362 57.8715C114.984 58.0003 109.694 57.3276 108.581 57.7699C109.034 57.5238 109.487 57.2777 109.94 57.0316C109.129 56.2652 108.27 57.5152 108.255 56.1409C108.09 58.3597 106.416 56.8766 105.913 56.9339C105.715 56.9575 105.731 57.3356 105.483 57.3519C104.514 57.4182 102.33 57.1172 101.804 57.3089C99.532 58.1343 105.343 59.5073 105.8 59.5903C104.885 59.5658 99.7038 60.0627 102.085 61.1294C102.453 61.294 103.106 60.3011 103.312 60.2622C104.712 60.0065 103.611 60.8963 103.721 60.981C103.907 61.1176 104.828 60.2574 105.071 60.3598C105.152 60.3927 104.63 61.1984 105.965 61.2153C105.308 61.9964 101.557 61.3601 101.065 61.5435C100.89 61.609 101.989 63.278 98.7785 61.6568C98.8158 61.8117 98.853 61.9667 98.8902 62.1216C97.1027 62.1854 95.3152 62.2492 93.5276 62.313C93.7219 61.956 94.7256 61.239 93.4615 61.3911C92.7338 61.4792 93.2722 62.2743 93.2058 62.2974C92.5527 62.5163 80.9939 62.2517 78.7538 62.3404C77.9918 62.3692 75.8678 63.0082 75.7058 63.0201C74.7374 63.0841 71.3081 62.6681 70.6239 62.7584C70.1968 62.8163 70.6029 63.481 70.2213 63.4498C69.8665 63.4199 70.234 62.7774 70.1287 62.7506C69.256 62.5177 62.6266 63.3604 61.0524 62.7545C62.0145 62.9364 66.8158 61.6528 66.7192 61.1997C66.6983 61.1376 65.5315 60.6489 65.2907 60.8872C64.8931 60.331 63.5277 62.0246 62.7851 61.6919C62.7011 61.6541 63.0318 60.7042 61.7064 60.5317C61.2498 60.4728 60.0542 61.2133 58.851 60.3833C57.109 60.7821 47.9503 59.5501 47.3219 60.5708C47.3033 60.6247 48.593 60.9761 47.7217 61.395C46.5633 61.9518 47.6036 60.0763 46.2535 59.9145C46.0501 59.8899 42.294 60.0797 42.171 60.1958C41.0334 61.2484 44.3155 61.6751 44.2696 61.7974C44.1551 62.1055 41.428 62.2919 41.3172 62.2193C41.2116 62.1437 43.4357 60.749 40.7631 61.2778C41.0693 61.4445 41.3755 61.6112 41.6816 61.7779C40.4247 62.1025 40.3049 61.1376 40.0004 61.0786C39.0538 60.892 38.0297 62.3576 36.513 60.5473C36.112 60.0669 36.7778 59.5334 36.7276 59.4614C36.2458 58.8147 35.6312 60.5445 34.9068 59.2543C34.8522 59.1581 36.5381 58.3852 33.5915 58.3832C33.7943 58.5069 33.9971 58.6306 34.1999 58.7543C33.7844 59.0305 30.8009 59.1946 30.3995 59.1293C29.227 58.9385 30.2495 58.0505 29.071 58.1566C29.8269 59.3736 26.2431 59.5324 26.4492 58.4848C25.9487 59.8006 22.9043 58.7855 21.4731 58.7543C20.5701 58.7356 18.7283 59.3098 18.4414 59.2426C18.0918 59.1603 18.198 58.2627 17.5669 58.0629C17.387 58.0059 15.5082 58.6639 13.8591 57.7347C13.5395 57.5557 12.8683 56.0332 13.4624 55.6526C14.4791 55.0015 16.4026 56.228 16.378 55.3284C16.3492 54.366 13.7585 54.9384 13.0612 54.8128C9.84179 54.2318 11.7008 53.2087 11.618 52.8986C11.4033 52.146 9.64425 52.1694 9.57085 52.1017C9.26665 51.8011 10.5132 51.2055 10.532 50.7462C10.5547 50.1481 8.85913 49.0688 9.2446 48.8672C9.79637 48.5809 11.3546 49.4805 11.4534 49.4376C12.7394 48.8573 10.9767 47.4757 10.4908 46.7968C10.3435 46.588 10.9304 46.2448 10.8083 46.1835C8.94427 45.2541 10.4153 48.1254 9.17553 47.9336C8.06937 47.7627 9.4926 46.8547 9.45034 46.8046C9.39573 46.7496 8.07316 46.7001 7.86611 46.3788C7.76408 46.218 11.2016 44.4519 11.0581 43.66C9.96127 43.8345 8.86446 44.009 7.76765 44.1834C7.68166 43.151 9.25925 43.911 9.42242 43.8045C9.75091 43.5909 8.83494 43.0684 8.87426 42.742C8.89535 42.5343 9.97039 41.7934 8.99918 41.488C8.66539 41.3825 7.9649 42.1065 6.74922 41.3669C10.98 40.4224 8.04813 39.842 7.92343 39.4762C7.80127 39.1105 9.82106 38.2498 7.36939 38.402C7.26309 36.3926 7.42224 37.7668 8.11888 37.4137C8.9723 36.9795 6.9999 36.3179 10.119 36.8199C9.94156 35.8791 7.43451 35.9457 7.30179 35.8706C7.18718 35.8026 7.74444 35.3399 7.54574 35.1831C5.19547 33.3653 6.80975 34.1954 6.12905 33.0346C6.06851 32.9309 3.84712 32.5005 5.53827 32.3314C8.61927 32.0241 9.90693 33.3572 10.4247 30.5071C8.14577 29.2691 5.38453 31.1088 4.69178 31.14C3.63142 31.1849 4.72985 30.6036 4.59919 30.4407C4.55381 30.3881 3.64006 30.4361 3.62779 30.39C2.97623 28.2162 7.69558 30.3539 9.18141 29.9759C8.78314 29.6503 8.38488 29.3248 7.98662 28.9993C8.52694 28.9863 9.06727 28.9732 9.60759 28.9602C7.03349 28.3058 9.51684 28.7125 10.1587 26.9523C10.3028 26.5568 8.6117 27.2351 10.5408 26.1359C9.11798 25.8821 9.57181 25.5225 8.28348 26.0187C8.31673 25.3132 11.2154 24.5174 12.3587 24.1553C8.31971 23.3625 10.623 25.9503 7.13131 24.5811C6.48382 25.4547 8.15045 25.2846 8.01454 25.4288C7.52695 25.9473 6.3839 25.1241 5.0048 26.9406C4.78025 27.2389 5.73042 28.1569 4.32438 28.1125C4.16886 28.1062 3.27295 27.3217 3.28537 27.2648C3.40414 26.6504 4.29072 26.8807 4.32732 26.6242C4.36166 26.3814 3.37255 26.5274 3.36914 26.4601C3.33874 25.6904 4.19442 26.1659 4.07014 25.9249C3.80175 25.4008 0.243911 23.7444 4.88723 24.2296C1.03046 25.0998 4.39345 25.0795 5.89538 24.7452C6.2784 24.6614 6.3754 24.2016 6.92116 24.0421C7.62319 23.8354 8.44486 24.0561 8.80813 23.9717C9.19882 23.8787 6.97893 22.7919 10.1896 23.1162C8.55557 22.0352 5.66933 23.1878 4.06426 22.4287C0.825952 20.8949 6.32214 20.5656 6.89471 20.4169C7.04725 20.3766 6.53584 19.7557 6.63753 19.7177C6.80381 19.6593 9.92313 19.9464 10.2307 19.4325C10.5374 18.9191 9.08816 19.4562 8.99183 18.9208C8.92652 18.5603 12.6895 17.921 10.6525 17.6746C9.24846 17.5057 6.66049 18.9545 6.22457 17.3973C8.28936 17.2684 10.3541 17.1395 12.4189 17.0105C11.2888 16.4181 10.1587 15.8256 9.02857 15.2331C11.3461 15.0452 13.3496 15.7141 15.5507 14.8659C10.2615 12.9674 17.268 13.3508 17.345 13.1198C17.3708 12.9816 15.289 11.4406 14.954 11.1588C16.7987 10.566 22.4043 10.2763 19.1247 8.3735C19.72 8.80313 21.1615 7.74258 21.1425 7.66253C20.9594 6.82192 17.8154 7.36702 18.3282 6.6078C18.9224 5.72675 19.7551 6.92201 20.6693 6.82656C25.3603 6.32893 24.0733 1.94059 28.7771 2.635C28.6835 2.47874 28.5899 2.32248 28.4964 2.16623C33.6091 2.41494 38.7218 2.66364 43.8346 2.91235C45.8349 1.57224 51.1587 0.756197 53.7735 0.904461C54.3 0.933336 56.885 1.63666 57.0801 1.75996C57.4413 1.99628 55.4551 2.08644 56.3526 2.52952C56.5422 2.62047 60.9186 2.91599 60.6057 2.16623C60.1152 2.0793 58.5804 2.45618 58.3293 2.27951C56.5647 1.01854 70.0569 2.02592 70.7253 1.51777C70.4265 1.27427 70.1277 1.03077 69.8289 0.78727C70.6803 0.907066 71.5316 1.02686 72.383 1.14666ZM33.2608 61.3638C32.7499 62.1161 31.4692 61.5511 30.7125 61.7622C29.6671 62.058 27.8899 64.9549 28.6551 62.0513C30.1903 61.8221 31.7256 61.593 33.2608 61.3638ZM55.6987 62.4849C54.6692 62.0808 55.4677 60.4592 56.3115 61.1333C56.4051 61.2099 57.0915 63.0288 55.6987 62.4849ZM44.9059 61.7154C44.9492 61.6939 45.8389 61.7368 45.87 61.7622C46.6678 62.4133 43.9856 62.2803 44.9059 61.7154ZM97.0429 60.8833C95.9086 60.9533 96.7301 62.4275 97.4353 61.8208C97.4797 61.7823 97.1175 60.8799 97.0429 60.8833ZM96.2361 60.8442C95.3551 59.5241 93.5808 62.1996 94.9914 61.9302C95.1282 61.903 96.2769 60.9085 96.2361 60.8442ZM52.0291 61.8404C52.1449 61.3344 53.2069 61.5787 53.6603 61.6997C53.648 62.1617 52.4738 61.7838 52.0291 61.8404ZM78.9536 61.6997C78.9987 61.302 75.3077 61.3239 75.0562 61.8482C75.6388 61.6258 78.9112 62.0572 78.9536 61.6997ZM88.4193 61.1411C88.3258 61.0724 87.0507 61.1769 87.0879 61.5279C87.7103 61.9883 88.8406 61.4524 88.4193 61.1411ZM107.233 61.1646C107.302 61.0764 106.347 58.843 108.61 60.313C108.942 60.5282 107.756 61.1118 107.874 61.1919C108.121 61.3482 108.317 61.4211 108.474 61.4341C107.42 61.6192 106.325 61.7063 106.219 61.5708C105.722 60.931 107.202 61.2014 107.233 61.1646ZM117.11 59.5004C117.327 59.1361 118.714 59.3309 119.03 59.4809C119.084 59.5091 118.848 60.4666 119.472 60.395C119.973 60.3359 119.224 59.3552 120.201 59.5122C121.188 59.6697 119.869 60.3686 119.955 60.4184C120.071 60.4838 121.597 60.0435 121.55 60.6138C121.515 61.0362 119.879 60.7506 119.475 60.8403C118.957 60.9557 119.585 61.6595 118.72 61.5083C118.176 61.4139 118.477 60.1763 118.362 60.1137C118.266 60.0634 116.365 60.7756 117.113 59.5043C117.112 59.503 117.111 59.5017 117.11 59.5004ZM108.759 61.3794C108.679 61.4212 108.586 61.4435 108.474 61.4341C108.569 61.4173 108.664 61.3978 108.759 61.3794ZM36.2353 60.8208C36.7704 61.2025 35.182 61.6919 34.5805 61.1919C34.5701 60.7886 36.1501 60.7614 36.2353 60.8208ZM109.736 60.3716C111.301 60.6816 110.15 61.108 108.759 61.3794C109.2 61.1465 109.21 60.268 109.736 60.3716ZM65.2907 60.8872C65.3568 60.9795 65.3986 61.1234 65.4039 61.3599C65.2304 61.1013 65.2148 60.9624 65.2907 60.8872ZM68.9427 61.3091C70.1946 60.5889 67.651 60.6179 67.6671 61.1333C67.6747 61.3279 68.8926 61.3377 68.9427 61.3091ZM98.4978 60.9536C98.3833 60.8831 100.162 58.7083 97.5793 60.3403C98.958 60.5966 97.5035 60.8335 97.525 61.0239C97.5812 61.5714 99.897 61.0452 100.41 61.2818C100.811 60.3023 98.8759 61.1858 98.5008 60.9536C98.4998 60.9536 98.4988 60.9536 98.4978 60.9536ZM134.912 60.0278C134.598 60.6017 133.602 60.4171 132.931 60.3833C133.244 59.8093 134.24 59.994 134.912 60.0278ZM310.695 60.1098C306.092 60.6405 305.496 58.3032 309.707 59.227C309.79 59.2464 310.974 59.8729 310.695 60.1098ZM271.192 59.5043C270.758 58.4857 272.194 58.3219 273.136 58.7426C273.35 58.8372 274.138 59.869 273.238 60.0708C273.266 58.8361 271.874 58.3644 271.192 59.5043ZM110.621 59.7192C111.076 59.0399 112.48 59.5234 113.219 59.6254C112.768 60.1848 111.274 59.9318 110.621 59.7192ZM295.57 58.891C295.085 58.8139 294.757 59.7001 294.841 59.7739C295.216 60.1121 296.123 59.3956 295.57 58.891ZM106.091 59.6137C106.027 59.2078 107.886 58.817 108.015 59.8208C107.618 59.7481 106.137 59.8685 106.091 59.6137ZM133.645 59.7231C133.356 59.5167 134.851 59.1471 135.303 59.352C135.266 59.7841 133.834 59.8573 133.645 59.7231ZM287.759 59.1918C287.324 59.1148 286.239 59.0914 286.119 59.4497C285.969 59.8975 287.561 59.7448 287.759 59.1918ZM368.596 58.4184C368.651 58.5793 366.97 59.7393 366.222 59.4457C364.803 58.8841 368.536 58.3047 368.596 58.4184ZM300.162 58.434C301.532 59.2769 300.011 58.4606 300.071 59.3481C300.993 59.3801 303.287 59.4238 301.71 58.5512C301.403 58.3824 300.592 58.4914 300.162 58.434ZM298.898 58.1371C298.752 58.4246 297.764 59.331 298.618 59.2661C299.012 59.2347 299.649 58.2275 298.898 58.1371ZM358.181 58.8129C356.953 58.0272 362.582 58.4488 362.744 58.5863C362.829 58.659 362.885 58.7275 362.917 58.7856C363.124 58.5366 364.187 58.4917 364.31 59.1215C363.991 59.0695 363.121 59.1249 363.02 59.0551C362.976 59.0254 362.944 58.9975 362.922 58.9692C362.546 59.5159 358.416 58.9619 358.181 58.8129ZM348.853 58.0043C350.258 56.8452 350.507 58.8159 350.386 58.8793C348.856 59.6859 349.854 58.2325 349.807 58.1644C349.7 58.0512 348.613 58.7256 348.858 58.0043C348.856 58.0043 348.855 58.0043 348.853 58.0043ZM356.269 58.4887C356.326 58.463 357.506 58.524 357.555 58.5551C358.521 59.2174 355.183 59.0478 356.269 58.4887ZM124.555 58.1215C125.4 58.3174 124.571 59.0424 124.01 58.7817C123.964 58.756 123.81 57.9484 124.555 58.1215ZM298.224 58.3324C298.028 58.1954 293.019 57.6788 293.32 58.7738C293.745 58.6446 299.439 59.2083 298.224 58.3324ZM260.789 58.0668C261.672 58.0753 260.709 59.108 260.238 58.7231C260.063 58.58 260.566 58.0653 260.789 58.0668ZM103.586 58.6762C102.668 59.2436 102.858 57.3401 103.653 57.9926C103.684 58.0181 103.622 58.654 103.586 58.6762ZM267.846 58.6606C264.799 59.2864 265.521 56.0122 269.481 57.1175C269.358 57.2634 269.234 57.4092 269.11 57.555C273.681 58.0462 269.422 57.7858 268.303 57.9691C267.877 58.0388 268.234 58.5853 267.849 58.6645C267.848 58.6632 267.847 58.6619 267.846 58.6606ZM256.143 58.0043C253.21 55.6803 258.81 57.1937 260.417 56.891C258.86 57.8506 256.832 57.7054 259.59 58.6879C255.557 58.8779 257.236 57.9523 257.075 57.8754C256.885 57.7891 256.268 58.1041 256.143 58.0043ZM263.882 57.9887C264.052 57.9209 265.33 58.394 265.79 58.3168C265.146 59.1107 262.756 58.4497 263.882 57.9887ZM339.074 58.5434C339.181 57.9213 339.443 57.4632 340.451 57.6957C340.14 58.0082 339.496 58.277 339.074 58.5434ZM32.2909 58.0902C31.5964 58.0456 30.2135 57.8112 30.6376 58.4652C30.684 58.521 32.2888 58.4573 32.2909 58.0902ZM283.675 57.8285C283.527 57.752 279.707 57.7007 281.027 58.3871C281.425 58.5941 284.9 58.5062 283.675 57.8285ZM303.456 57.9066C303.136 57.9001 301.837 58.0173 301.81 58.1644C301.722 58.673 303.316 58.3934 303.456 57.9066ZM28.7873 57.4535C28.6959 57.389 26.5746 57.5033 26.8078 57.8051C27.2504 58.3758 29.1008 57.6758 28.7873 57.4535ZM127.628 56.6644C127.806 56.6414 128.04 57.3171 128.101 57.3246C128.246 57.3342 131.492 57.0743 130.252 57.9418C130.045 58.0872 125.374 57.754 124.767 57.6683C124.532 56.7408 126.527 57.6231 127.013 57.5277C127.098 57.5096 127.153 56.7336 127.627 56.6683C127.627 56.667 127.628 56.6657 127.628 56.6644ZM344.328 57.8871C344.471 57.2974 348.287 56.9069 348.243 57.6215C346.938 57.71 345.633 57.7985 344.328 57.8871ZM342.39 57.7894C341.576 57.3723 343.482 57.2343 344.045 57.4183C344.051 57.815 342.508 57.8504 342.39 57.7894ZM296.218 55.7034C295.834 55.8476 297.014 56.7081 296.75 56.8753C296.581 56.9795 295.724 56.657 295.451 56.9261C295.373 57.0116 296.247 57.8205 296.5 57.7855C296.859 57.7389 296.511 57.1024 296.903 57.098C298.204 57.0843 299.357 57.5383 300.577 57.5277C300.687 57.5255 299.833 57.076 300.772 57.0824C300.917 57.0825 301.79 57.752 302.913 57.6527C305.395 55.5793 307.218 57.6151 310.367 56.8675C310.248 56.6723 307.893 56.1486 307.754 56.1292C305.122 55.7883 300.405 55.7508 297.648 55.7464C296.94 55.7446 297.284 56.1834 296.979 56.1995C296.738 56.2114 297.025 55.3988 296.218 55.7034ZM32.6597 57.641C32.3287 56.8294 31.1676 57.3431 30.426 57.3011C30.687 58.0332 31.935 57.4611 32.6597 57.641ZM325.257 57.1605C324.885 57.1918 323.733 56.9474 323.638 57.1918C323.515 57.5109 325.179 57.7121 325.257 57.1605ZM145.931 56.8949C145.967 56.8727 146.861 56.9162 146.895 56.9417C147.694 57.5931 145.011 57.4597 145.931 56.8949ZM167.324 57.0511C168.002 56.9509 168.686 56.6973 168.914 57.3558C168.482 57.255 167.244 57.5098 167.324 57.0511ZM196.838 57.0316C196.698 56.1692 198.739 56.7277 199.124 56.805C198.982 57.1883 196.94 57.653 196.838 57.0316ZM338.927 55.8362C340.175 55.8872 339.912 54.581 340.704 55.1721C340.833 55.2721 341.251 57.9922 339.88 56.973C339.633 56.7898 340.599 56.1434 338.927 55.8362ZM270.127 57.1449C270.444 56.5744 271.436 56.7437 272.106 56.7894C271.956 57.2133 270.603 57.1042 270.127 57.1449ZM24.9561 56.8011C24.3708 55.9957 21.6667 56.5932 22.3358 57.1253C22.431 57.1948 24.5767 56.7707 24.9561 56.8011ZM113.793 57.1175C114.906 56.4833 112.602 56.2869 111.874 56.9066C112.203 56.866 113.718 57.1593 113.793 57.1175ZM189.748 56.5628C189.802 56.5368 190.981 56.598 191.034 56.6292C192.001 57.2915 188.663 57.1219 189.748 56.5628ZM160.289 56.0042C160.714 55.4823 163.508 55.9034 164.135 56.4261C163.532 57.1893 159.761 56.6561 160.289 56.0042ZM333.793 56.2073C334.683 56.1803 335.528 56.3411 336.345 56.5667C336.173 57.0062 333.887 56.5356 333.793 56.2073ZM194.079 56.5081C194.142 56.5117 194.204 56.5614 194.264 56.5667C194.201 56.5481 194.14 56.5268 194.079 56.5081ZM313.866 55.8987C313.12 55.7252 313.275 56.5303 313.321 56.555C313.882 56.8158 314.711 56.0946 313.866 55.8987ZM31.8074 56.4456C31.5487 55.719 30.2939 56.2826 29.5721 56.1097C29.7815 56.6836 31.2259 56.5219 31.8074 56.4456ZM253.001 56.5159C252.064 55.7281 255.878 54.8129 256.681 55.3206C256.741 55.8074 253.139 56.6238 253.001 56.5159ZM110.338 56.0276C110.264 55.4583 108.662 56.1454 109.003 56.4144C109.218 56.5856 110.383 56.3814 110.338 56.0276ZM258.599 55.6526C258.957 55.4789 259.793 56.0407 259.498 56.3831C259.121 56.8221 258.506 55.7024 258.599 55.6526ZM290.747 55.1956C290.59 55.1086 288.483 55.693 289.353 56.2738C289.957 56.6773 290.054 55.8543 290.195 55.8519C290.354 55.8545 293.736 56.8617 290.747 55.1956ZM231.642 56.0198C232.437 55.8009 233.398 56.0551 234.23 56.0394C233.891 56.3915 231.98 56.4875 231.642 56.0198ZM116.514 55.8753C116.321 55.645 111.062 55.5064 114.049 56.2152C114.223 56.2552 117.1 56.5727 116.514 55.8753ZM338.927 55.8362C338.77 55.8298 338.588 55.8026 338.378 55.7464C338.587 55.7685 338.769 55.8071 338.927 55.8362ZM324.755 55.7503C325.042 55.3358 323.595 55.225 323.167 55.4456C323.036 55.952 324.715 55.8082 324.755 55.7503ZM234.293 55.4612C234.773 55.224 235.643 55.4771 236.236 55.4495C236.136 55.8348 234.501 55.8526 234.293 55.4612ZM200.632 55.0276C201.584 55.2566 202.755 55.1513 202.773 54.6799C202.793 54.7536 202.839 54.8318 202.916 54.9104C202.993 54.9882 204.013 54.769 204.456 54.9299C207.108 55.8856 194.214 55.4912 201.687 54.1604C201.336 54.4495 200.984 54.7385 200.632 55.0276ZM156.507 54.8948C155.967 54.3211 154.454 55.04 154.847 55.2659C155.12 55.4207 157.048 55.4724 156.507 54.8948ZM177.296 54.5549C177.135 54.4525 175.658 54.8544 175.62 55.1565C176.469 55.4749 178.032 55.0306 177.296 54.5549ZM152.354 54.2229C152.015 54.1363 151.583 55.0615 151.622 55.1018C151.967 55.4396 152.924 54.738 152.354 54.2229ZM336.342 53.344C335.838 53.079 334.23 53.7487 333.879 54.3596C333.814 54.2415 333.638 54.0874 333.316 53.9026C333.317 53.9026 333.318 53.9026 333.319 53.9026C332.885 53.6558 319.886 53.3862 328.605 54.5627C328.878 54.6004 328.505 54.052 329.616 54.1487C329.689 54.1557 329.726 54.6035 329.953 54.6252C330.474 54.6726 333.253 54.9543 333.812 54.594C333.816 54.677 333.853 54.7559 333.929 54.8284C334.614 55.4741 336.734 53.5482 336.342 53.344ZM180.225 54.4729C179.928 54.307 178.987 54.4645 178.889 54.8596C179.356 55.0533 180.915 54.8599 180.225 54.4729ZM116.351 54.2541C115.745 53.9292 114.21 54.5367 114.674 54.8596C114.958 55.0583 117.049 54.6272 116.351 54.2541ZM170.799 54.6838C174.272 55.1509 171.628 54.6461 172.16 54.0666C171.706 54.2724 171.253 54.4781 170.799 54.6838ZM352.417 54.8401C351.863 54.7068 352.514 53.5634 353.124 54.1838C353.315 54.3808 352.727 54.9125 352.417 54.8401ZM377.425 54.4846C376.952 53.4708 379.261 54.0665 378.361 54.762C378.319 54.7854 377.459 54.5232 377.425 54.4846ZM359.95 54.0705C359.574 54.7608 359.329 54.8427 358.27 54.6721C359.838 54.4777 358.384 53.8671 359.95 54.0705ZM202.763 54.6057C202.769 54.6336 202.774 54.6542 202.773 54.6799C202.767 54.6546 202.764 54.6305 202.763 54.6057ZM149.089 54.4026C148.654 53.8178 147.436 53.8609 147.799 54.4495C147.834 54.504 148.911 54.8347 149.089 54.4026ZM333.879 54.3596C333.937 54.4644 333.908 54.5321 333.812 54.594C333.807 54.5159 333.832 54.4421 333.879 54.3596ZM155.632 53.926C155.588 54.3623 157.443 54.5319 157.517 54.4807C158.581 53.7241 156.397 53.8997 155.632 53.926ZM104.088 53.6408C103.993 53.6864 104.609 54.8126 104.988 54.3713C105.28 54.029 104.446 53.4676 104.088 53.6408ZM363.546 53.7893C364.133 53.79 364.96 53.7895 365.113 54.3245C364.719 54.2423 363.534 54.1818 363.546 53.7893ZM376.521 53.7502C375.827 54.3791 374.242 54.3773 373.229 54.2737C373.211 53.4459 375.87 53.9449 376.521 53.7502ZM337.935 53.6526C337.887 53.6189 336.415 53.3719 336.616 53.926C336.91 54.7386 338.351 53.9539 337.935 53.6526ZM106.948 54.2385C107.607 53.8569 106.091 52.6841 105.396 53.5901C105.039 54.0539 106.837 54.3025 106.948 54.2385ZM145.284 53.6369C144.415 53.9576 146.569 54.5288 146.87 53.9494C146.469 53.903 145.593 53.5234 145.284 53.6369ZM174.854 53.051C172.115 51.3799 173.607 54.4284 174.093 54.1604C174.161 54.1221 174.921 53.0903 174.854 53.051ZM18.1607 53.4611C17.773 53.6933 19.2184 54.5344 19.4054 53.9807C19.521 53.6342 18.4086 53.3132 18.1607 53.4611ZM216.092 54.1369C215.977 54.1423 215.862 54.1478 215.748 54.1526C215.834 54.1253 215.946 54.1164 216.092 54.1369ZM137.395 51.3986C139.323 53.7579 139.121 51.9395 139.288 51.9494C139.65 51.9748 140.491 52.6127 141.174 52.508C140.392 52.7736 139.611 53.0393 138.83 53.3049C139.447 53.4752 144.809 54.3437 144.921 53.9612C145.082 53.4163 143.395 53.5873 143.346 53.5393C143.275 53.4709 143.011 51.9562 142.855 51.8986C142.597 51.8065 138.114 51.7751 137.395 51.3986ZM169.127 53.3127C169.567 53.4928 169.692 54.0929 169.897 53.9494C169.967 53.9004 169.978 53.328 170.216 53.1799C169.853 53.2242 169.49 53.2684 169.127 53.3127ZM133.943 53.5197C133.397 52.8203 135.844 53.0859 135.923 53.1643C136.341 53.6384 134.389 54.0911 133.943 53.5197ZM154.706 53.4182C154.616 53.3774 152.737 53.159 152.753 53.5471C153.25 53.843 155.762 53.9292 154.706 53.4182ZM170.51 53.1408C171.17 53.2076 172.418 53.784 172.275 52.9221C172.274 52.9221 172.273 52.9221 172.272 52.9221C171.684 52.995 171.097 53.0679 170.51 53.1408ZM109.202 52.4181C107.979 51.0454 108.559 52.78 109.642 53.2229C109.97 52.6065 109.403 52.6415 109.202 52.4181ZM105.287 51.3947C104.947 51.1476 101.44 51.4183 101.975 52.1447C102.165 52.4036 104.182 51.7507 104.275 51.8009C104.416 51.8754 103.772 52.6789 104.848 52.5197C104.785 52.2474 105.404 51.4772 105.287 51.3947ZM108.19 51.5392C106.974 50.4952 106.701 52.4207 107.615 52.4259C107.973 52.4293 108.363 51.6898 108.19 51.5392ZM113.156 51.7033C112.718 51.5207 111.553 51.2543 110.75 51.8947C111.825 51.9494 112.899 52.0041 113.974 52.0587C114.098 51.696 113.538 51.8638 113.153 51.7033C113.154 51.7033 113.155 51.7033 113.156 51.7033ZM383.827 48.8164C382.861 48.2704 385.086 48.0612 385.18 48.1953C385.46 48.6407 384.259 49.0603 383.827 48.8164ZM10.6157 35.9683C10.3473 35.7506 10.1719 35.0345 9.58114 35.4097C10.1753 35.9383 10.7696 36.467 11.3638 36.9957C11.8255 35.7843 10.9091 36.2084 10.6157 35.9683ZM8.34667 31.5423C8.43061 31.513 7.9721 29.6503 9.05649 30.8939C9.78917 31.7335 5.80484 32.5519 5.08563 31.7259C5.88032 31.3422 7.62413 31.7815 8.34667 31.5423ZM1.36754 23.4795C1.3216 23.331 2.83534 23.1131 3.01055 23.2178C3.93056 23.7698 1.61609 24.2754 1.36754 23.4795ZM6.19665 23.835C5.48673 23.4733 7.05941 23.2401 7.5281 23.4483C7.57357 23.795 6.30631 23.8877 6.19665 23.835ZM374.045 21.8388C373.277 20.5729 372.59 23.2981 373.772 22.749C373.828 22.7232 374.078 21.9008 374.045 21.8388ZM2.84743 21.6006C3.55734 21.9623 1.98466 22.1954 1.51597 21.9873C1.47238 21.641 2.73933 21.5477 2.84743 21.6006ZM373.504 18.8231C372.484 17.9122 372.843 20.9695 372.971 21.0927C373.496 21.5793 375.297 20.3793 375.664 20.081C372.969 20.5398 373.984 19.2524 373.504 18.8231ZM368.799 20.6591C367.852 20.9853 370.271 21.6091 370.733 20.7568C370.262 20.7976 369.068 20.5648 368.799 20.6591ZM363.054 19.6786C362.545 19.5691 361.031 19.3069 360.777 19.788C361.333 19.7009 362.839 20.1736 363.054 19.6786ZM361.902 18.2372C361.106 17.5835 360.915 19.488 361.833 18.9208C361.868 18.8988 361.931 18.2735 361.902 18.2372ZM357.43 17.5496C356.908 16.7922 356.312 18.6367 357.158 18.6864C357.409 18.6978 357.485 17.6365 357.43 17.5496ZM372.227 15.5339C371.48 15.2087 370.517 16.5295 372.112 16.6746C371.552 16.8764 370.992 17.0783 370.431 17.2801C372.521 18.0204 372.368 16.1887 372.968 16.2644C373.806 16.372 373.74 17.8836 373.572 18.3582C374.259 17.4322 377.18 17.4174 378.868 17.241C377.385 16.8524 374.977 16.1786 373.513 15.9324C373.095 15.8611 372.689 16.2756 372.333 16.2293C371.762 16.1527 372.269 15.5558 372.23 15.5339C372.229 15.5339 372.228 15.5339 372.227 15.5339ZM351.551 17.5223C350.017 16.6643 350.987 18.5167 351.854 18.1864C351.891 18.1609 351.589 17.5432 351.551 17.5223ZM0.813501 15.9714C2.86279 16.7457 1.37321 17.7719 5.66024 16.2136C3.85916 17.3168 5.56064 17.007 5.20908 17.452C4.92705 17.804 3.87029 17.5125 4.48456 18.2215C3.67716 17.4498 0.171783 17.6632 0.0155077 17.5379C0.0169773 17.5379 0.0184469 17.5379 0.0199165 17.5379C-0.0739443 17.4637 0.159578 15.7252 0.813501 15.9714ZM363.046 14.8347C362.535 12.587 362.334 16.1545 361.329 14.2917C359.989 16.9968 365.027 14.2921 365.637 16.5769C360.166 16.3114 369.252 18.8409 365.433 15.4206C368.579 16.662 366.464 14.997 366.95 14.5612C367.469 14.097 369.249 14.6015 369.159 13.7643C369.158 13.7643 369.157 13.7643 369.156 13.7643C368.067 13.8229 366.979 13.8815 365.89 13.9401C366.956 15.7461 364.731 15.2046 363.977 13.7331C363.667 14.1003 363.357 14.4675 363.046 14.8347ZM369.207 16.5301C369.1 16.4887 366.732 16.7418 366.885 17.1043C367.201 17.3355 370.561 17.0583 369.207 16.5301ZM379.627 16.1355C378.777 16.1311 377.462 15.7788 376.999 16.4597C377.849 16.4643 379.164 16.8168 379.627 16.1355ZM335.854 16.0066C334.771 16.5654 338.107 16.7309 337.142 16.0691C337.094 16.0379 335.908 15.9805 335.854 16.0066ZM360.582 15.1745C359.48 14.4876 360.001 16.674 360.817 16.1043C360.864 16.0707 360.633 15.2059 360.582 15.1745ZM2.47415 15.7058C2.54784 15.1701 5.52116 15.5464 6.04822 15.5417C5.74877 16.0397 2.38961 16.3199 2.47415 15.7058ZM381.123 14.1315C379.431 12.2054 377.136 14.4302 376.884 14.3815C376.634 14.332 377.027 13.49 376.969 13.4674C376.839 13.4202 374.174 13.4909 374.045 13.5495C373.953 13.5952 374.435 14.7784 373.885 15.1511C374.958 14.4788 379.831 14.8994 380.084 14.7683C380.28 14.6636 378.803 13.4211 381.12 14.1315C381.121 14.1315 381.122 14.1315 381.123 14.1315ZM376.255 14.1237C376.921 14.6197 375.054 14.6818 374.602 14.4987C373.598 14.0892 376.17 14.0649 376.255 14.1237ZM371.764 13.6667C371.551 13.5554 369.626 13.4544 369.463 14.0065C370.374 14.7228 372.248 13.9259 371.764 13.6667ZM350.349 13.7409C349.849 13.8116 348.475 13.3873 348.396 13.8698C348.896 13.7994 350.271 14.2234 350.349 13.7409ZM12.6188 11.4947C11.7884 11.091 13.7123 10.9261 14.2736 11.1197C14.304 11.4415 12.6895 11.5294 12.6188 11.4947ZM360.395 10.5611C360.099 10.4144 354.062 10.7805 353.215 11.0064C354.043 11.3713 360.027 11.3993 360.298 11.2213C360.378 11.1679 360.433 10.5842 360.395 10.5611ZM373.453 10.3384C374.006 9.62791 374.368 10.4801 374.437 10.4908C375.122 10.5995 376.542 10.4393 376.23 11.1236C375.022 10.8475 372.351 11.7494 373.453 10.3384ZM349.92 10.5259C347.87 10.7896 351.808 11.5381 351.291 10.7955C351.258 10.7506 350.132 10.4982 349.92 10.5259ZM361.07 10.354C361.522 9.77993 367.561 10.2751 368.531 10.2759C367.663 11.3348 366.963 10.5305 365.796 10.5845C365.481 10.6003 365.565 11.0409 365.532 11.0416C364.987 11.062 365.394 10.5532 365.058 10.5455C364.846 10.542 360.434 11.1629 361.07 10.354ZM373.769 9.84621C374.106 9.43891 377.877 9.2653 378.029 9.37353C379.164 10.1785 374.062 9.988 373.769 9.84621ZM360.516 9.4126C361.165 8.18192 364.165 9.00611 362.112 9.61964C361.916 9.67545 361.086 9.14197 360.516 9.4126ZM350.139 9.354C350.038 9.31781 347.901 9.07181 347.863 9.46338C348.171 9.61555 351.287 9.75207 350.139 9.354ZM351.247 8.02973C351.196 8.03912 351.697 8.79329 350.694 8.69773C350.611 8.68873 350.455 7.84022 349.195 8.15083C348.94 8.2148 348.544 8.77612 348.572 8.81101C349.884 10.1426 353.835 7.59225 351.247 8.02973ZM373.838 9.15868C373.635 8.80053 374.125 7.73749 374.567 8.27584C374.756 8.50829 374.403 9.14625 373.838 9.15868ZM343.361 9.01024C344.604 8.36554 340.703 8.24365 340.504 8.40865C340.63 8.81023 343.237 9.07321 343.361 9.01024ZM14.5631 6.51796C14.5621 6.51796 14.5611 6.51796 14.5601 6.51796C15.6054 6.66404 14.958 7.20036 15.0069 7.2172C17.2332 8.00495 16.6427 6.79022 16.9909 6.64687C17.7374 6.33683 17.6171 7.81403 18.8764 7.20158C16.7948 8.106 18.6895 7.72685 18.7485 8.2524C18.9818 10.3971 15.9771 7.24816 14.9393 7.69769C14.7947 7.75994 15.8624 8.44441 15.4919 8.63913C14.2873 9.27007 10.5524 5.95932 14.5631 6.51796ZM374.908 8.18208C375.392 7.55212 379.07 8.16313 378.095 8.6821C377.938 8.76531 374.195 9.1003 374.908 8.18208ZM203.097 7.25236C203.981 6.70718 201.932 6.06628 201.552 6.49061C201.364 6.70201 202.708 7.49162 203.097 7.25236ZM188.733 4.92024C187.682 5.03091 186.575 7.30437 187.882 6.95157C188.021 6.913 188.853 5.2356 188.733 4.92024ZM257.704 6.08825C256.607 5.27579 256.673 6.78535 257.478 6.76406C257.762 6.75678 257.739 6.11396 257.704 6.08825ZM215.844 6.28357C215.734 6.23088 214.466 6.32726 214.512 6.67421C214.981 6.88237 216.554 6.64529 215.844 6.28357ZM258.052 5.8734C257.402 6.14547 258.521 7.2373 259.316 6.17029C258.913 6.25781 258.119 5.8456 258.052 5.8734ZM358.25 6.07653C357.705 6.69639 356.165 6.50909 355.28 6.61562C355.184 5.81255 357.617 6.22213 358.25 6.07653ZM193.192 5.83434C192.197 6.40033 194.327 6.86371 194.132 6.1156C194.105 6.07496 193.231 5.8102 193.192 5.83434ZM293.089 5.79136C292.366 6.27041 294.661 6.91463 294.03 6.07263C293.999 6.0383 293.129 5.76472 293.089 5.79136ZM303.11 6.06872C302.562 5.90713 300.224 5.95684 301.134 6.4242C301.275 6.49602 303.069 6.50749 303.11 6.06872ZM17.0526 6.06872C16.7571 5.24377 18.4721 5.44014 18.7176 5.58433C18.8141 5.64429 17.438 7.14203 17.0526 6.06872ZM250.581 5.95934C250.013 6.06255 248.542 5.86642 248.282 6.2992C248.977 6.20961 250.768 6.82145 250.581 5.95934ZM197.725 5.83043C196.859 4.93401 195.38 5.02248 195.746 6.19372C197.38 6.11524 195.544 5.14098 197.725 5.83043ZM261.707 4.90852C261.252 4.84014 260.903 5.96495 260.955 6.01794C261.448 6.52211 262.159 5.34615 261.707 4.90852ZM227.558 5.83434C227.532 5.35365 226.073 5.57182 226.268 5.88121C226.332 5.98508 227.579 6.22334 227.558 5.83434ZM339.145 5.80309C338.476 5.36434 340.518 4.9354 341.122 5.4476C341.415 6.18565 339.229 5.85348 339.145 5.80309ZM274.327 5.18978C274.395 4.47642 272.115 4.87974 273.013 5.47104C273.238 5.61899 274.303 5.4283 274.327 5.18978ZM296.155 4.33428C294.625 5.18496 301.048 5.7889 299.36 4.72882C299.239 4.6533 296.288 4.26244 296.155 4.33428ZM306.643 4.86555C306.379 4.77181 306.511 2.37474 307.603 3.29908C307.746 3.41896 307.076 4.05262 307.193 4.19756C307.262 4.28015 309.636 4.61681 309.746 4.56085C309.863 4.49731 309.725 3.72902 309.844 3.64285C309.979 3.54653 311.44 4.22143 312.206 4.22881C313.648 4.24146 313.804 3.602 313.922 3.59988C314.267 3.59564 314.846 4.04967 315.545 4.04911C319.066 4.04401 324.451 3.50197 327.243 4.85774C324.759 4.3133 322.391 4.89094 319.92 5.06868C320.643 3.73388 316.283 6.09715 318.834 4.55694C317.659 4.89103 307.508 5.15821 306.646 4.86555C306.645 4.86555 306.644 4.86555 306.643 4.86555ZM184.587 4.24834C185.232 3.4299 181.921 3.614 181.64 4.56085C182.078 4.69225 184.507 4.3411 184.587 4.24834ZM199.862 2.25217C200.17 2.1109 200.461 0.51111 202.074 1.32245C202.075 1.32245 202.077 1.32245 202.078 1.32245C202.55 1.55939 202.012 1.9492 202.099 2.0881C202.13 2.14482 203.601 2.94063 202.379 3.06861C200.517 3.26496 202.204 1.87847 201.211 1.86153C201.09 1.86022 199.21 2.72617 199.32 2.91626C199.331 2.9384 199.897 2.75521 199.99 2.83422C200.343 3.13122 200.171 3.63079 200.221 3.65457C200.383 3.71549 203.355 2.86439 203.787 3.60769C203.928 3.84738 199.05 4.4003 198.86 4.27568C198.74 4.19715 198.79 2.81044 198.666 2.67406C198.602 2.60613 196.64 3.12577 196.385 2.99829C196.311 2.96142 196.255 2.92167 196.213 2.88891C196.51 3.31794 194.733 3.28705 194.788 2.80297C194.818 2.61271 196.041 2.72284 196.085 2.75609C196.104 2.77017 196.121 2.78958 196.137 2.80297C195.883 2.28012 200.024 2.3037 199.13 1.52558C200.331 1.09931 198.96 2.66706 199.862 2.25217ZM205.632 1.39667C205.508 1.54251 205.384 1.68834 205.26 1.83418C207.361 1.47723 209.786 2.17927 212.207 2.17404C212.821 2.17377 212.114 1.28185 212.919 1.52558C213.564 1.72091 214.278 2.5482 213.928 2.73266C213.842 2.77868 212.529 2.23984 211.872 2.29514C209.931 2.45885 210.421 3.22373 210.308 3.24439C210.183 3.26614 208.962 2.72824 208.295 2.75219C206.618 2.8141 205.852 3.2837 203.561 2.67015C204.883 2.16605 204.159 1.07093 205.632 1.39667ZM283.957 3.02563C284.037 2.5442 285.412 2.97134 285.912 2.90063C285.833 3.38326 284.457 2.95489 283.957 3.02563ZM79.0418 2.40061C78.6194 3.19065 81.7851 3.38626 80.9508 2.72875C80.7662 2.58282 79.4396 2.40623 79.0418 2.40061ZM93.2631 2.8811C93.6866 2.66267 91.9814 2.09386 91.9846 2.70531C91.987 2.90139 93.2086 2.9095 93.2631 2.8811ZM232.794 2.17404C232.874 2.1493 234.039 2.32526 234.076 2.36545C234.848 3.20432 231.013 2.71947 232.794 2.17404ZM110.552 1.90841C109.075 2.42624 113.518 2.65068 112.161 1.99044C112.093 1.95828 110.622 1.88324 110.552 1.90841ZM116.727 1.76387C116.373 1.79162 114.802 1.53451 114.781 1.77559C114.75 2.16452 116.548 2.43027 116.727 1.76387ZM262.014 1.92403C261.844 1.03387 263.916 1.70799 264.636 1.59589C264.807 2.48667 262.734 1.81162 262.014 1.92403ZM248.936 1.26776C257.671 0.566036 255.746 2.46791 248.416 1.70137C248.406 1.1303 248.385 1.31195 248.936 1.26776ZM260.122 1.37323C259.804 1.94349 258.812 1.77439 258.142 1.72871C258.263 1.33223 259.638 1.47572 260.122 1.37323ZM75.2723 1.17791C75.8201 0.457529 78.246 1.34563 77.8147 1.64277C77.7143 1.70694 75.0711 1.57407 75.2723 1.17791ZM233.526 1.41229C233.323 0.546585 235.946 0.89971 236.146 1.09197C236.956 1.86529 233.739 1.22122 233.526 1.41229ZM274.412 1.16228C274.875 0.484186 276.191 0.832958 277.037 0.841959C276.651 1.42178 275.13 1.17448 274.412 1.16228ZM268.304 0.631014C268.357 0.604986 269.537 0.666206 269.59 0.697422C270.557 1.35973 267.219 1.19011 268.304 0.631014ZM13.1141 0.00598907C13.1534 -0.0158615 14.047 0.0273762 14.0781 0.052866C14.8757 0.703903 12.1937 0.570873 13.1141 0.00598907Z" fill="#DF175F"/>
</svg>
