<svg width="1062" height="829" viewBox="0 0 1062 829" fill="none" xmlns="http://www.w3.org/2000/svg">
<path d="M101.137 31.5349C89.6233 61.7689 58.3298 116.005 21.6673 98.0999C-3.3642 85.8759 15.7683 58.9404 42.6358 73.3759C69.5033 87.8114 61.6143 139.426 2.1438 134.436M14.4798 144.753L2.1438 134.436L10.1273 125.387" stroke="#DF175F" stroke-width="3" stroke-linecap="round"/>
<path d="M2.1438 789.753C13.6583 759.518 44.9513 705.283 81.6138 723.188C106.645 735.412 87.5123 762.348 60.6448 747.912C33.7773 733.477 41.6668 681.857 101.137 686.852M88.8008 676.535L101.137 686.852L93.1533 695.901" stroke="#DF175F" stroke-width="3" stroke-linecap="round"/>
<path d="M101.598 335.535C75.5981 309.285 39.1981 247.085 101.598 208.285M97.1436 222.535L101.598 208.285L86.1436 206.535" stroke="#DF175F" stroke-width="3" stroke-linecap="round"/>
<path d="M1060.14 115.535C1048.62 145.769 1017.33 200.005 980.667 182.1C955.636 169.876 974.768 142.94 1001.64 157.376C1028.5 171.811 1020.61 223.426 961.144 218.436M973.48 228.753L961.144 218.436L969.127 209.387" stroke="#DF175F" stroke-width="3" stroke-linecap="round"/>
<path d="M960.894 595.535C964.06 615.785 958.344 656.285 910.144 656.285M925.644 668.535L910.144 656.285L922.644 638.035" stroke="#DF175F" stroke-width="3" stroke-linecap="round"/>
<rect x="882.644" y="32.0349" width="27" height="27" stroke="#DF175F"/>
<rect x="566.644" y="756.035" width="27" height="27" stroke="#DF175F"/>
<path d="M932.923 631.672C932.126 630.875 931.727 629.913 931.727 628.785C931.727 627.657 932.126 626.695 932.923 625.897C933.72 625.1 934.683 624.702 935.81 624.702C936.938 624.702 937.901 625.1 938.698 625.897C939.495 626.695 939.894 627.657 939.894 628.785C939.894 629.913 939.495 630.875 938.698 631.672C937.901 632.47 936.938 632.868 935.81 632.868C934.683 632.868 933.72 632.47 932.923 631.672ZM932.923 616.506C932.126 615.709 931.727 614.746 931.727 613.618C931.727 612.49 932.126 611.528 932.923 610.731C933.72 609.934 934.683 609.535 935.81 609.535C936.938 609.535 937.901 609.934 938.698 610.731C939.495 611.528 939.894 612.49 939.894 613.618C939.894 614.746 939.495 615.709 938.698 616.506C937.901 617.303 936.938 617.702 935.81 617.702C934.683 617.702 933.72 617.303 932.923 616.506ZM937.051 614.858C937.391 614.518 937.56 614.104 937.56 613.618C937.56 613.132 937.391 612.719 937.051 612.379C936.711 612.039 936.297 611.869 935.81 611.868C935.324 611.867 934.911 612.038 934.571 612.379C934.232 612.721 934.062 613.134 934.06 613.618C934.059 614.103 934.229 614.516 934.571 614.858C934.914 615.201 935.327 615.371 935.81 615.368C936.294 615.366 936.708 615.196 937.051 614.858ZM928.227 625.285C927.099 625.285 926.137 624.886 925.34 624.089C924.542 623.292 924.144 622.329 924.144 621.202C924.144 620.074 924.542 619.111 925.34 618.314C926.137 617.517 927.099 617.118 928.227 617.118C929.355 617.118 930.317 617.517 931.115 618.314C931.912 619.111 932.31 620.074 932.31 621.202C932.31 622.329 931.912 623.292 931.115 624.089C930.317 624.886 929.355 625.285 928.227 625.285ZM928.227 622.952C928.713 622.952 929.127 622.782 929.467 622.442C929.808 622.102 929.978 621.688 929.977 621.202C929.976 620.715 929.806 620.302 929.467 619.963C929.128 619.623 928.715 619.453 928.227 619.452C927.739 619.45 927.326 619.62 926.988 619.963C926.65 620.305 926.479 620.718 926.477 621.202C926.475 621.685 926.645 622.099 926.988 622.442C927.331 622.785 927.744 622.955 928.227 622.952ZM943.394 625.285C942.266 625.285 941.304 624.886 940.506 624.089C939.709 623.292 939.31 622.329 939.31 621.202C939.31 620.074 939.709 619.111 940.506 618.314C941.304 617.517 942.266 617.118 943.394 617.118C944.522 617.118 945.484 617.517 946.281 618.314C947.079 619.111 947.477 620.074 947.477 621.202C947.477 622.329 947.079 623.292 946.281 624.089C945.484 624.886 944.522 625.285 943.394 625.285ZM943.394 622.952C943.88 622.952 944.293 622.782 944.634 622.442C944.975 622.102 945.145 621.688 945.144 621.202C945.143 620.715 944.973 620.302 944.634 619.963C944.295 619.623 943.881 619.453 943.394 619.452C942.906 619.45 942.493 619.62 942.155 619.963C941.816 620.305 941.646 620.718 941.644 621.202C941.641 621.685 941.812 622.099 942.155 622.442C942.498 622.785 942.911 622.955 943.394 622.952Z" fill="#DF175F"/>
<path d="M1009.81 138.868C1008.2 138.868 1006.68 138.562 1005.26 137.949C1003.84 137.336 1002.61 136.505 1001.56 135.456C1000.51 134.407 999.675 133.172 999.063 131.752C998.451 130.331 998.145 128.815 998.144 127.202C998.143 125.588 998.449 124.072 999.063 122.652C999.677 121.231 1000.51 119.997 1001.56 118.947C1002.6 117.898 1003.84 117.067 1005.26 116.454C1006.68 115.841 1008.2 115.535 1009.81 115.535C1011.42 115.535 1012.94 115.841 1014.36 116.454C1015.78 117.067 1017.02 117.898 1018.06 118.947C1019.11 119.997 1019.94 121.231 1020.56 122.652C1021.17 124.072 1021.48 125.588 1021.48 127.202C1021.47 128.815 1021.17 130.331 1020.56 131.752C1019.95 133.172 1019.12 134.407 1018.06 135.456C1017.01 136.505 1015.78 137.336 1014.36 137.95C1012.94 138.564 1011.43 138.87 1009.81 138.868ZM1009.81 136.535C1012.42 136.535 1014.62 135.631 1016.43 133.822C1018.24 132.014 1019.14 129.807 1019.14 127.202C1019.14 124.596 1018.24 122.389 1016.43 120.581C1014.62 118.772 1012.42 117.868 1009.81 117.868C1007.2 117.868 1005 118.772 1003.19 120.581C1001.38 122.389 1000.48 124.596 1000.48 127.202C1000.48 129.807 1001.38 132.014 1003.19 133.822C1005 135.631 1007.2 136.535 1009.81 136.535Z" fill="#DF175F"/>
<path d="M39.8105 778.868C38.1966 778.868 36.6799 778.562 35.2605 777.949C33.841 777.336 32.6063 776.505 31.5563 775.456C30.5063 774.407 29.6752 773.172 29.0631 771.752C28.451 770.331 28.1446 768.815 28.1438 767.202C28.143 765.588 28.4495 764.072 29.0631 762.652C29.6768 761.231 30.5079 759.997 31.5563 758.947C32.6047 757.898 33.8395 757.067 35.2605 756.454C36.6815 755.841 38.1981 755.535 39.8105 755.535C41.4228 755.535 42.9395 755.841 44.3605 756.454C45.7815 757.067 47.0162 757.898 48.0646 758.947C49.1131 759.997 49.9445 761.231 50.559 762.652C51.1734 764.072 51.4795 765.588 51.4771 767.202C51.4748 768.815 51.1684 770.331 50.5578 771.752C49.9472 773.172 49.1162 774.407 48.0646 775.456C47.0131 776.505 45.7784 777.336 44.3605 777.95C42.9426 778.564 41.4259 778.87 39.8105 778.868ZM39.8105 776.535C42.416 776.535 44.623 775.631 46.4313 773.822C48.2396 772.014 49.1438 769.807 49.1438 767.202C49.1438 764.596 48.2396 762.389 46.4313 760.581C44.623 758.772 42.416 757.868 39.8105 757.868C37.2049 757.868 34.998 758.772 33.1896 760.581C31.3813 762.389 30.4771 764.596 30.4771 767.202C30.4771 769.807 31.3813 772.014 33.1896 773.822C34.998 775.631 37.2049 776.535 39.8105 776.535Z" fill="#DF175F"/>
<path d="M847.713 143.535C842.047 124.535 842.063 86.7849 887.463 87.7849C932.863 88.7849 963.213 31.3699 972.713 2.53491M975.644 19.7849L972.713 2.53491L958.144 12.2849" stroke="#DF175F" stroke-width="3" stroke-linecap="round"/>
<path d="M544.192 826.535C539.676 816.968 539.689 797.959 575.87 798.462C612.051 798.966 636.238 770.055 643.808 755.535M646.144 764.221L643.808 755.535L632.197 760.444" stroke="#DF175F" stroke-width="3" stroke-linecap="round"/>
<path d="M62.8105 363.909C61.1966 363.909 59.6799 363.603 58.2605 362.99C56.841 362.377 55.6063 361.546 54.5563 360.497C53.5063 359.448 52.6752 358.213 52.0631 356.793C51.451 355.373 51.1446 353.856 51.1438 352.243C51.1438 350.668 51.4697 349.137 52.1215 347.65C52.7732 346.162 53.6774 344.855 54.834 343.726C55.9905 342.598 57.366 341.742 58.9605 341.159C60.5549 340.577 62.3049 340.402 64.2105 340.634C64.5021 340.673 64.7257 340.795 64.8813 341C65.0369 341.204 65.1244 341.481 65.1438 341.83C65.1827 343.075 65.6447 344.139 66.5298 345.025C67.4149 345.91 68.4696 346.371 69.6938 346.409C70.1021 346.429 70.4132 346.546 70.6271 346.759C70.841 346.973 70.9577 347.304 70.9771 347.751C71.016 348.568 71.2641 349.239 71.7215 349.764C72.1788 350.289 72.8154 350.687 73.6313 350.959C73.9035 351.057 74.1127 351.198 74.259 351.383C74.4052 351.568 74.4779 351.796 74.4771 352.068C74.516 353.682 74.2341 355.208 73.6313 356.647C73.0285 358.086 72.2021 359.345 71.1521 360.425C70.1021 361.504 68.8577 362.355 67.4188 362.976C65.9799 363.598 64.4438 363.909 62.8105 363.909ZM62.8105 361.576C65.1827 361.576 67.2877 360.759 69.1256 359.126C70.9635 357.493 71.9696 355.412 72.1438 352.884C71.1716 352.457 70.4082 351.873 69.8536 351.134C69.2991 350.396 68.925 349.569 68.7313 348.655C67.2341 348.441 65.9507 347.8 64.8813 346.73C63.8119 345.661 63.1507 344.377 62.898 342.88C61.3424 342.841 59.9766 343.123 58.8006 343.726C57.6246 344.329 56.6423 345.102 55.8536 346.045C55.065 346.989 54.4719 348.014 54.0745 349.122C53.677 350.229 53.4779 351.27 53.4771 352.243C53.4771 354.829 54.3864 357.031 56.2048 358.85C58.0232 360.668 60.2251 361.577 62.8105 361.576ZM61.0605 349.909C61.5466 349.909 61.96 349.739 62.3006 349.4C62.6413 349.06 62.8112 348.646 62.8105 348.159C62.8097 347.673 62.6397 347.26 62.3006 346.92C61.9615 346.581 61.5481 346.411 61.0605 346.409C60.5728 346.408 60.1598 346.578 59.8215 346.92C59.4831 347.263 59.3128 347.676 59.3105 348.159C59.3081 348.643 59.4785 349.057 59.8215 349.4C60.1645 349.743 60.5775 349.913 61.0605 349.909ZM58.7271 355.743C59.2132 355.743 59.6266 355.573 59.9673 355.233C60.308 354.893 60.4779 354.48 60.4771 353.993C60.4764 353.506 60.3064 353.093 59.9673 352.754C59.6282 352.415 59.2148 352.244 58.7271 352.243C58.2395 352.241 57.8265 352.412 57.4881 352.754C57.1498 353.096 56.9795 353.509 56.9771 353.993C56.9748 354.477 57.1451 354.89 57.4881 355.233C57.8311 355.576 58.2441 355.746 58.7271 355.743ZM66.3105 356.909C66.641 356.909 66.9183 356.797 67.1423 356.573C67.3663 356.349 67.4779 356.073 67.4771 355.743C67.4764 355.413 67.3644 355.136 67.1411 354.912C66.9179 354.688 66.641 354.576 66.3105 354.576C65.9799 354.576 65.703 354.688 65.4798 354.912C65.2566 355.136 65.1446 355.413 65.1438 355.743C65.143 356.073 65.255 356.35 65.4798 356.575C65.7046 356.799 65.9815 356.911 66.3105 356.909Z" fill="#DF175F"/>
<path d="M634.81 814.909C633.197 814.909 631.68 814.603 630.26 813.99C628.841 813.377 627.606 812.546 626.556 811.497C625.506 810.448 624.675 809.213 624.063 807.793C623.451 806.373 623.145 804.856 623.144 803.243C623.144 801.668 623.47 800.137 624.121 798.65C624.773 797.162 625.677 795.855 626.834 794.726C627.991 793.598 629.366 792.742 630.96 792.159C632.555 791.577 634.305 791.402 636.21 791.634C636.502 791.673 636.726 791.795 636.881 792C637.037 792.204 637.124 792.481 637.144 792.83C637.183 794.075 637.645 795.139 638.53 796.025C639.415 796.91 640.47 797.371 641.694 797.409C642.102 797.429 642.413 797.546 642.627 797.759C642.841 797.973 642.958 798.304 642.977 798.751C643.016 799.568 643.264 800.239 643.721 800.764C644.179 801.289 644.815 801.687 645.631 801.959C645.904 802.057 646.113 802.198 646.259 802.383C646.405 802.568 646.478 802.796 646.477 803.068C646.516 804.682 646.234 806.208 645.631 807.647C645.029 809.086 644.202 810.345 643.152 811.425C642.102 812.504 640.858 813.355 639.419 813.976C637.98 814.598 636.444 814.909 634.81 814.909ZM634.81 812.576C637.183 812.576 639.288 811.759 641.126 810.126C642.964 808.493 643.97 806.412 644.144 803.884C643.172 803.457 642.408 802.873 641.854 802.134C641.299 801.396 640.925 800.569 640.731 799.655C639.234 799.441 637.951 798.8 636.881 797.73C635.812 796.661 635.151 795.377 634.898 793.88C633.342 793.841 631.977 794.123 630.801 794.726C629.625 795.329 628.642 796.102 627.854 797.045C627.065 797.989 626.472 799.014 626.074 800.122C625.677 801.229 625.478 802.27 625.477 803.243C625.477 805.829 626.386 808.031 628.205 809.85C630.023 811.668 632.225 812.577 634.81 812.576ZM633.06 800.909C633.547 800.909 633.96 800.739 634.301 800.4C634.641 800.06 634.811 799.646 634.81 799.159C634.81 798.673 634.64 798.26 634.301 797.92C633.962 797.581 633.548 797.411 633.06 797.409C632.573 797.408 632.16 797.578 631.821 797.92C631.483 798.263 631.313 798.676 631.31 799.159C631.308 799.643 631.478 800.057 631.821 800.4C632.164 800.743 632.577 800.913 633.06 800.909ZM630.727 806.743C631.213 806.743 631.627 806.573 631.967 806.233C632.308 805.893 632.478 805.48 632.477 804.993C632.476 804.506 632.306 804.093 631.967 803.754C631.628 803.415 631.215 803.244 630.727 803.243C630.239 803.241 629.826 803.412 629.488 803.754C629.15 804.096 628.979 804.509 628.977 804.993C628.975 805.477 629.145 805.89 629.488 806.233C629.831 806.576 630.244 806.746 630.727 806.743ZM638.31 807.909C638.641 807.909 638.918 807.797 639.142 807.573C639.366 807.349 639.478 807.073 639.477 806.743C639.476 806.413 639.364 806.136 639.141 805.912C638.918 805.688 638.641 805.576 638.31 805.576C637.98 805.576 637.703 805.688 637.48 805.912C637.257 806.136 637.145 806.413 637.144 806.743C637.143 807.073 637.255 807.35 637.48 807.575C637.705 807.799 637.981 807.911 638.31 807.909Z" fill="#DF175F"/>
<path d="M227.81 84.9094C226.197 84.9094 224.68 84.603 223.26 83.9901C221.841 83.3772 220.606 82.5462 219.556 81.4969C218.506 80.4477 217.675 79.213 217.063 77.7928C216.451 76.3725 216.145 74.8559 216.144 73.2428C216.144 71.6678 216.47 70.1367 217.121 68.6496C217.773 67.1625 218.677 65.8547 219.834 64.7261C220.991 63.5975 222.366 62.742 223.96 62.1594C225.555 61.5769 227.305 61.4019 229.21 61.6344C229.502 61.6733 229.726 61.795 229.881 61.9996C230.037 62.2042 230.124 62.481 230.144 62.8303C230.183 64.0747 230.645 65.1395 231.53 66.0246C232.415 66.9097 233.47 67.3713 234.694 67.4094C235.102 67.4289 235.413 67.5455 235.627 67.7594C235.841 67.9733 235.958 68.3039 235.977 68.7511C236.016 69.5678 236.264 70.2386 236.721 70.7636C237.179 71.2886 237.815 71.6872 238.631 71.9594C238.904 72.0567 239.113 72.1978 239.259 72.3829C239.405 72.568 239.478 72.7963 239.477 73.0678C239.516 74.6817 239.234 76.208 238.631 77.6469C238.029 79.0858 237.202 80.345 236.152 81.4246C235.102 82.5042 233.858 83.3547 232.419 83.9761C230.98 84.5975 229.444 84.9087 227.81 84.9094ZM227.81 82.5761C230.183 82.5761 232.288 81.7594 234.126 80.1261C235.964 78.4928 236.97 76.4122 237.144 73.8844C236.172 73.4567 235.408 72.8733 234.854 72.1344C234.299 71.3955 233.925 70.5692 233.731 69.6553C232.234 69.4414 230.951 68.7997 229.881 67.7303C228.812 66.6608 228.151 65.3775 227.898 63.8803C226.342 63.8414 224.977 64.1233 223.801 64.7261C222.625 65.3289 221.642 66.102 220.854 67.0454C220.065 67.9889 219.472 69.0144 219.074 70.1219C218.677 71.2295 218.478 72.2698 218.477 73.2428C218.477 75.8289 219.386 78.0312 221.205 79.8496C223.023 81.668 225.225 82.5769 227.81 82.5761ZM226.06 70.9094C226.547 70.9094 226.96 70.7395 227.301 70.3996C227.641 70.0597 227.811 69.6463 227.81 69.1594C227.81 68.6725 227.64 68.2595 227.301 67.9204C226.962 67.5813 226.548 67.411 226.06 67.4094C225.573 67.4079 225.16 67.5782 224.821 67.9204C224.483 68.2627 224.313 68.6757 224.31 69.1594C224.308 69.6432 224.478 70.0566 224.821 70.3996C225.164 70.7426 225.577 70.9125 226.06 70.9094ZM223.727 76.7428C224.213 76.7428 224.627 76.5728 224.967 76.2329C225.308 75.893 225.478 75.4797 225.477 74.9928C225.476 74.5059 225.306 74.0929 224.967 73.7538C224.628 73.4147 224.215 73.2443 223.727 73.2428C223.239 73.2412 222.826 73.4115 222.488 73.7538C222.15 74.096 221.979 74.509 221.977 74.9928C221.975 75.4765 222.145 75.8899 222.488 76.2329C222.831 76.5759 223.244 76.7459 223.727 76.7428ZM231.31 77.9094C231.641 77.9094 231.918 77.7974 232.142 77.5734C232.366 77.3494 232.478 77.0725 232.477 76.7428C232.476 76.413 232.364 76.1361 232.141 75.9121C231.918 75.6881 231.641 75.5761 231.31 75.5761C230.98 75.5761 230.703 75.6881 230.48 75.9121C230.257 76.1361 230.145 76.413 230.144 76.7428C230.143 77.0725 230.255 77.3498 230.48 77.5746C230.705 77.7994 230.981 77.911 231.31 77.9094Z" fill="#DF175F"/>
<path d="M856.81 756.909C855.197 756.909 853.68 756.603 852.26 755.99C850.841 755.377 849.606 754.546 848.556 753.497C847.506 752.448 846.675 751.213 846.063 749.793C845.451 748.373 845.145 746.856 845.144 745.243C845.144 743.668 845.47 742.137 846.121 740.65C846.773 739.162 847.677 737.855 848.834 736.726C849.991 735.598 851.366 734.742 852.96 734.159C854.555 733.577 856.305 733.402 858.21 733.634C858.502 733.673 858.726 733.795 858.881 734C859.037 734.204 859.124 734.481 859.144 734.83C859.183 736.075 859.645 737.139 860.53 738.025C861.415 738.91 862.47 739.371 863.694 739.409C864.102 739.429 864.413 739.546 864.627 739.759C864.841 739.973 864.958 740.304 864.977 740.751C865.016 741.568 865.264 742.239 865.721 742.764C866.179 743.289 866.815 743.687 867.631 743.959C867.904 744.057 868.113 744.198 868.259 744.383C868.405 744.568 868.478 744.796 868.477 745.068C868.516 746.682 868.234 748.208 867.631 749.647C867.029 751.086 866.202 752.345 865.152 753.425C864.102 754.504 862.858 755.355 861.419 755.976C859.98 756.598 858.444 756.909 856.81 756.909ZM856.81 754.576C859.183 754.576 861.288 753.759 863.126 752.126C864.964 750.493 865.97 748.412 866.144 745.884C865.172 745.457 864.408 744.873 863.854 744.134C863.299 743.396 862.925 742.569 862.731 741.655C861.234 741.441 859.951 740.8 858.881 739.73C857.812 738.661 857.151 737.377 856.898 735.88C855.342 735.841 853.977 736.123 852.801 736.726C851.625 737.329 850.642 738.102 849.854 739.045C849.065 739.989 848.472 741.014 848.074 742.122C847.677 743.229 847.478 744.27 847.477 745.243C847.477 747.829 848.386 750.031 850.205 751.85C852.023 753.668 854.225 754.577 856.81 754.576ZM855.06 742.909C855.547 742.909 855.96 742.739 856.301 742.4C856.641 742.06 856.811 741.646 856.81 741.159C856.81 740.673 856.64 740.26 856.301 739.92C855.962 739.581 855.548 739.411 855.06 739.409C854.573 739.408 854.16 739.578 853.821 739.92C853.483 740.263 853.313 740.676 853.31 741.159C853.308 741.643 853.478 742.057 853.821 742.4C854.164 742.743 854.577 742.913 855.06 742.909ZM852.727 748.743C853.213 748.743 853.627 748.573 853.967 748.233C854.308 747.893 854.478 747.48 854.477 746.993C854.476 746.506 854.306 746.093 853.967 745.754C853.628 745.415 853.215 745.244 852.727 745.243C852.239 745.241 851.826 745.412 851.488 745.754C851.15 746.096 850.979 746.509 850.977 746.993C850.975 747.477 851.145 747.89 851.488 748.233C851.831 748.576 852.244 748.746 852.727 748.743ZM860.31 749.909C860.641 749.909 860.918 749.797 861.142 749.573C861.366 749.349 861.478 749.073 861.477 748.743C861.476 748.413 861.364 748.136 861.141 747.912C860.918 747.688 860.641 747.576 860.31 747.576C859.98 747.576 859.703 747.688 859.48 747.912C859.257 748.136 859.145 748.413 859.144 748.743C859.143 749.073 859.255 749.35 859.48 749.575C859.705 749.799 859.981 749.911 860.31 749.909Z" fill="#DF175F"/>
<path d="M250.81 779.909C249.197 779.909 247.68 779.603 246.26 778.99C244.841 778.377 243.606 777.546 242.556 776.497C241.506 775.448 240.675 774.213 240.063 772.793C239.451 771.373 239.145 769.856 239.144 768.243C239.144 766.668 239.47 765.137 240.121 763.65C240.773 762.162 241.677 760.855 242.834 759.726C243.991 758.598 245.366 757.742 246.96 757.159C248.555 756.577 250.305 756.402 252.21 756.634C252.502 756.673 252.726 756.795 252.881 757C253.037 757.204 253.124 757.481 253.144 757.83C253.183 759.075 253.645 760.139 254.53 761.025C255.415 761.91 256.47 762.371 257.694 762.409C258.102 762.429 258.413 762.546 258.627 762.759C258.841 762.973 258.958 763.304 258.977 763.751C259.016 764.568 259.264 765.239 259.721 765.764C260.179 766.289 260.815 766.687 261.631 766.959C261.904 767.057 262.113 767.198 262.259 767.383C262.405 767.568 262.478 767.796 262.477 768.068C262.516 769.682 262.234 771.208 261.631 772.647C261.029 774.086 260.202 775.345 259.152 776.425C258.102 777.504 256.858 778.355 255.419 778.976C253.98 779.598 252.444 779.909 250.81 779.909ZM250.81 777.576C253.183 777.576 255.288 776.759 257.126 775.126C258.964 773.493 259.97 771.412 260.144 768.884C259.172 768.457 258.408 767.873 257.854 767.134C257.299 766.396 256.925 765.569 256.731 764.655C255.234 764.441 253.951 763.8 252.881 762.73C251.812 761.661 251.151 760.377 250.898 758.88C249.342 758.841 247.977 759.123 246.801 759.726C245.625 760.329 244.642 761.102 243.854 762.045C243.065 762.989 242.472 764.014 242.074 765.122C241.677 766.229 241.478 767.27 241.477 768.243C241.477 770.829 242.386 773.031 244.205 774.85C246.023 776.668 248.225 777.577 250.81 777.576ZM249.06 765.909C249.547 765.909 249.96 765.739 250.301 765.4C250.641 765.06 250.811 764.646 250.81 764.159C250.81 763.673 250.64 763.26 250.301 762.92C249.962 762.581 249.548 762.411 249.06 762.409C248.573 762.408 248.16 762.578 247.821 762.92C247.483 763.263 247.313 763.676 247.31 764.159C247.308 764.643 247.478 765.057 247.821 765.4C248.164 765.743 248.577 765.913 249.06 765.909ZM246.727 771.743C247.213 771.743 247.627 771.573 247.967 771.233C248.308 770.893 248.478 770.48 248.477 769.993C248.476 769.506 248.306 769.093 247.967 768.754C247.628 768.415 247.215 768.244 246.727 768.243C246.239 768.241 245.826 768.412 245.488 768.754C245.15 769.096 244.979 769.509 244.977 769.993C244.975 770.477 245.145 770.89 245.488 771.233C245.831 771.576 246.244 771.746 246.727 771.743ZM254.31 772.909C254.641 772.909 254.918 772.797 255.142 772.573C255.366 772.349 255.478 772.073 255.477 771.743C255.476 771.413 255.364 771.136 255.141 770.912C254.918 770.688 254.641 770.576 254.31 770.576C253.98 770.576 253.703 770.688 253.48 770.912C253.257 771.136 253.145 771.413 253.144 771.743C253.143 772.073 253.255 772.35 253.48 772.575C253.705 772.799 253.981 772.911 254.31 772.909Z" fill="#DF175F"/>
<path d="M1032.81 363.909C1031.2 363.909 1029.68 363.603 1028.26 362.99C1026.84 362.377 1025.61 361.546 1024.56 360.497C1023.51 359.448 1022.68 358.213 1022.06 356.793C1021.45 355.373 1021.14 353.856 1021.14 352.243C1021.14 350.668 1021.47 349.137 1022.12 347.65C1022.77 346.162 1023.68 344.855 1024.83 343.726C1025.99 342.598 1027.37 341.742 1028.96 341.159C1030.55 340.577 1032.3 340.402 1034.21 340.634C1034.5 340.673 1034.73 340.795 1034.88 341C1035.04 341.204 1035.12 341.481 1035.14 341.83C1035.18 343.075 1035.64 344.139 1036.53 345.025C1037.41 345.91 1038.47 346.371 1039.69 346.409C1040.1 346.429 1040.41 346.546 1040.63 346.759C1040.84 346.973 1040.96 347.304 1040.98 347.751C1041.02 348.568 1041.26 349.239 1041.72 349.764C1042.18 350.289 1042.82 350.687 1043.63 350.959C1043.9 351.057 1044.11 351.198 1044.26 351.383C1044.41 351.568 1044.48 351.796 1044.48 352.068C1044.52 353.682 1044.23 355.208 1043.63 356.647C1043.03 358.086 1042.2 359.345 1041.15 360.425C1040.1 361.504 1038.86 362.355 1037.42 362.976C1035.98 363.598 1034.44 363.909 1032.81 363.909ZM1032.81 361.576C1035.18 361.576 1037.29 360.759 1039.13 359.126C1040.96 357.493 1041.97 355.412 1042.14 352.884C1041.17 352.457 1040.41 351.873 1039.85 351.134C1039.3 350.396 1038.92 349.569 1038.73 348.655C1037.23 348.441 1035.95 347.8 1034.88 346.73C1033.81 345.661 1033.15 344.377 1032.9 342.88C1031.34 342.841 1029.98 343.123 1028.8 343.726C1027.62 344.329 1026.64 345.102 1025.85 346.045C1025.06 346.989 1024.47 348.014 1024.07 349.122C1023.68 350.229 1023.48 351.27 1023.48 352.243C1023.48 354.829 1024.39 357.031 1026.2 358.85C1028.02 360.668 1030.23 361.577 1032.81 361.576ZM1031.06 349.909C1031.55 349.909 1031.96 349.739 1032.3 349.4C1032.64 349.06 1032.81 348.646 1032.81 348.159C1032.81 347.673 1032.64 347.26 1032.3 346.92C1031.96 346.581 1031.55 346.411 1031.06 346.409C1030.57 346.408 1030.16 346.578 1029.82 346.92C1029.48 347.263 1029.31 347.676 1029.31 348.159C1029.31 348.643 1029.48 349.057 1029.82 349.4C1030.16 349.743 1030.58 349.913 1031.06 349.909ZM1028.73 355.743C1029.21 355.743 1029.63 355.573 1029.97 355.233C1030.31 354.893 1030.48 354.48 1030.48 353.993C1030.48 353.506 1030.31 353.093 1029.97 352.754C1029.63 352.415 1029.21 352.244 1028.73 352.243C1028.24 352.241 1027.83 352.412 1027.49 352.754C1027.15 353.096 1026.98 353.509 1026.98 353.993C1026.97 354.477 1027.15 354.89 1027.49 355.233C1027.83 355.576 1028.24 355.746 1028.73 355.743ZM1036.31 356.909C1036.64 356.909 1036.92 356.797 1037.14 356.573C1037.37 356.349 1037.48 356.073 1037.48 355.743C1037.48 355.413 1037.36 355.136 1037.14 354.912C1036.92 354.688 1036.64 354.576 1036.31 354.576C1035.98 354.576 1035.7 354.688 1035.48 354.912C1035.26 355.136 1035.14 355.413 1035.14 355.743C1035.14 356.073 1035.26 356.35 1035.48 356.575C1035.7 356.799 1035.98 356.911 1036.31 356.909Z" fill="#DF175F"/>
<path d="M312.894 752.535C316.06 772.785 310.344 813.285 262.144 813.285M277.644 825.535L262.144 813.285L274.644 795.035" stroke="#DF175F" stroke-width="3" stroke-linecap="round"/>
</svg>
