<svg width="113" height="15" viewBox="0 0 113 15" fill="none" xmlns="http://www.w3.org/2000/svg">
<path d="M103.577 13.5499C103.832 14.2263 102.98 13.7829 103.546 14.7931C103.428 14.8614 103.309 14.9317 103.191 15C103.162 14.6259 103.131 14.2527 103.101 13.8785C103.259 13.7684 103.418 13.6582 103.577 13.548C103.577 13.5487 103.577 13.5493 103.577 13.5499ZM103.793 8.86444C103.648 9.93153 103.187 10.216 103.685 11.2007C103.725 10.8345 103.765 10.4684 103.805 10.1022C103.978 10.3862 104.152 10.6702 104.325 10.9527C104.387 10.813 104.45 10.6733 104.512 10.5352C104.591 11.1716 104.669 11.8097 104.749 12.4476C104.678 12.3545 104.607 12.2597 104.537 12.1666C104.259 12.6834 104.011 12.8247 103.634 12.9209C103.667 13.0715 103.7 13.2208 103.733 13.3714C103.541 13.1152 103.35 12.8585 103.159 12.6024C103.325 12.3509 103.51 12.0713 103.664 11.837C103.418 10.8392 102.984 11.3945 102.759 11.6026C102.452 11.8867 102.521 11.4123 102.293 11.6109C102.257 11.6419 102.253 12.0138 102.181 12.0201C101.818 12.0496 101.112 11.8525 101.525 10.9847C102.122 11.0965 102.632 10.3996 103.218 10.6542C103.063 9.6508 103.372 9.30936 103.793 8.86444ZM92.8159 12.0595C92.997 11.5721 93.3658 11.7688 93.6157 12.1071C93.616 12.1071 93.6163 12.1071 93.6165 12.1071C93.6715 12.1816 93.7961 12.8292 93.6165 12.8028C93.3239 12.7576 93.1824 11.7381 93.0288 12.4302C92.9601 12.3014 92.8879 12.1868 92.8159 12.0595ZM92.1799 12.1199C92.0004 11.87 92.0819 11.1018 92.3066 11.3097C92.3066 11.3091 92.3066 11.3085 92.3066 11.3079C92.4004 11.3948 92.2163 12.002 92.5527 11.3857C92.6214 11.8651 92.689 12.3014 92.7569 12.7653C92.6745 12.7731 92.5994 12.7856 92.513 12.7919C92.5712 12.0037 92.3594 12.3679 92.1799 12.1199ZM101.221 11.4186C101.193 12.1276 101.311 12.1232 101.513 12.6152C101.323 12.5919 101.133 12.567 100.943 12.5438C101.036 12.1682 101.128 11.7941 101.221 11.4186ZM105.685 11.5285C105.685 11.5285 105.686 11.5285 105.686 11.5285C105.748 11.4167 105.811 11.3046 105.872 11.1943C105.909 11.4474 105.946 11.6993 105.983 11.9524C106.203 11.7148 106.424 11.4774 106.644 11.2383C106.618 12.0112 106.223 11.8855 106.005 12.4257C105.682 12.1928 105.526 11.7441 105.505 11.0891C105.565 11.2349 105.624 11.3826 105.685 11.5285ZM52.7909 8.44698C52.7174 8.66114 52.6447 8.87548 52.5712 9.08965C52.669 9.18739 52.766 9.262 52.8646 9.37528C53.1225 8.44397 53.1467 9.26778 53.4847 9.21049C54.5204 9.03353 54.2456 7.58704 55.1811 9.70577C54.43 9.60498 54.7187 10.6005 54.2659 11.3674C54.1721 10.7837 54.6208 9.46723 54.3167 9.19401C53.7928 9.81176 53.289 10.3871 52.7078 10.786C52.7247 10.8869 52.7416 10.9882 52.7586 11.0891C52.8508 11.0254 52.9422 10.9614 53.0344 10.8977C52.9349 11.1678 52.8377 11.4356 52.7366 11.7088C52.8644 11.0957 52.5388 11.4383 52.5824 10.7339C52.6018 10.4203 52.7457 9.98524 52.8306 9.68563C52.6115 9.52266 52.3868 9.37338 52.1653 9.21507C52.28 8.96524 52.3947 8.71512 52.5087 8.46529C52.6024 8.45753 52.6954 8.45199 52.7892 8.44423C52.7898 8.44515 52.7903 8.44606 52.7909 8.44698ZM5.63544 11.707C5.9136 10.9774 6.41907 10.8567 6.6851 11.6686C6.33498 11.681 5.98556 11.6946 5.63544 11.707ZM105.484 10.5489C105.515 10.673 105.546 10.7957 105.577 10.9197C105.438 11.1494 105.298 11.3775 105.159 11.6072C105.133 11.2488 105.105 10.8903 105.078 10.5334C105.213 10.538 105.349 10.5443 105.484 10.5489ZM96.5876 10.9481C96.6893 10.9264 96.6983 10.9381 96.825 10.9893C96.8248 10.989 96.8247 10.9887 96.8246 10.9884C96.8748 11.0075 97.295 11.2168 97.2481 11.4928C97.0395 11.4974 96.817 11.4928 96.6035 11.4928C96.597 11.3113 96.5956 11.1312 96.5876 10.9481ZM99.0432 11.1092C99.0435 11.1098 99.0438 11.1104 99.0441 11.111C99.12 11.153 99.1919 11.2383 99.2703 11.2538C98.9882 11.6882 98.9436 10.9089 98.6873 11.1293C98.4311 11.3513 98.2727 11.7813 98.0552 10.7137C98.1361 10.5538 98.2231 10.3251 98.3064 10.1388C98.6702 10.5656 98.7682 10.1639 99.06 9.7433C99.0544 10.1996 99.0489 10.6529 99.0432 11.1092ZM57.4024 10.6066C57.4719 10.0788 57.5494 10.5967 57.5575 10.6029C57.5574 10.6036 57.5572 10.6042 57.5571 10.6048C58.173 10.116 57.4769 10.8969 58.0582 10.9792C57.9717 11.1111 57.8866 11.2504 57.8009 11.3838C57.6684 11.1293 57.5317 10.8409 57.4024 10.6066ZM77.4144 10.656C77.4201 10.8097 77.4269 10.9638 77.4325 11.1174C77.0832 11.0817 76.9941 11.6867 76.7039 11.1358C76.9408 10.9743 77.1776 10.8141 77.4144 10.6542C77.4144 10.6548 77.4144 10.6554 77.4144 10.656ZM94.8269 9.83027C95.2142 9.53687 95.5008 9.4076 95.8727 9.8733C95.873 9.87391 95.8733 9.87452 95.8736 9.87513C95.895 9.9038 95.7913 10.2253 95.8193 10.3063C95.896 10.2582 95.9753 10.1843 96.0528 10.1269C96.0633 10.3844 96.0734 10.6418 96.0838 10.8977C95.8656 10.8248 95.6471 10.7519 95.428 10.6789C95.4604 10.8295 95.4935 10.9788 95.5258 11.1293C95.3399 11.2069 95.1547 11.2843 94.9687 11.3619C95.0334 10.9398 95.0979 10.5176 95.1617 10.0939C95.0502 10.0055 94.9385 9.92027 94.8269 9.83027ZM71.5991 8.9743C71.6605 9.14196 71.5468 9.42316 71.6422 9.56753C71.7376 9.71007 71.9135 9.3972 71.8723 9.87055C71.7438 9.93416 71.6089 10.0071 71.478 10.0738C71.8993 10.9274 72.3195 10.155 72.326 11.209C71.9217 10.9358 71.5893 11.0627 71.1979 11.3546C71.2141 10.5179 71.6055 9.7945 71.3591 9.00909C71.4383 8.99822 71.5214 8.98234 71.5982 8.97613C71.5985 8.97552 71.5988 8.97491 71.5991 8.9743ZM111.142 0.0575042C111.382 0.121152 111.93 -0.220301 112.233 0.267149C112.307 0.387275 112.555 1.94335 112.554 2.14847C112.546 2.83926 112.244 2.93329 112.568 3.38345C112.459 3.38812 112.353 3.41406 112.245 3.42648C112.264 3.89064 112.283 4.35357 112.302 4.81618C112.434 4.74632 112.566 4.67611 112.697 4.6047C112.704 4.75839 112.71 4.91242 112.717 5.06611C112.243 5.06921 112.523 5.66239 112.277 6.21504C112.503 6.4944 112.731 6.77242 112.957 7.05179C112.827 7.01764 112.673 6.99235 112.558 6.952C112.543 7.73898 112.817 7.55135 112.864 7.6972C113.128 8.52145 111.782 8.10544 111.672 9.25077C111.887 9.37804 112.113 9.50224 112.332 9.62795C112.269 9.76921 112.206 9.91056 112.142 10.0518C111.644 9.26187 111.084 8.98202 110.503 8.49001C110.45 8.52258 110.398 8.55602 110.346 8.58705C110.361 8.9424 110.376 9.2964 110.391 9.65175C110.312 9.69367 110.232 9.73526 110.153 9.77718C110.386 8.6068 110.063 8.62275 109.672 7.90868C109.88 7.49737 110.136 7.74673 110.119 6.98038C109.405 7.57 108.57 6.73673 107.877 7.40242C107.704 7.56694 107.705 8.55555 107.3 8.46437C107.314 8.35571 107.316 8.15952 107.325 8.0167C106.625 8.49018 106.2 8.77323 105.472 8.29043C105.514 8.64575 105.556 9.00256 105.598 9.35788C105.752 9.18091 105.907 9.00113 106.06 8.82416C106.165 9.41091 106.01 9.66986 106.471 9.66366C106.849 9.659 106.624 9.39992 106.727 9.22606C106.866 8.98869 106.988 9.45564 107.137 9.19035C107.253 8.98699 107.128 8.50286 107.429 8.6255C107.308 9.25266 107.184 9.90027 107.062 10.5352C106.989 10.3939 106.916 10.2505 106.842 10.1077C106.916 9.94001 106.99 9.77455 107.064 9.6069C106.802 9.90803 106.554 10.1921 106.284 10.5041C106.372 9.59747 106.092 9.93738 105.94 10.0445C105.703 10.212 105.906 9.58804 105.751 9.69204C105.595 9.79765 105.428 10.4947 105.147 10.3457C105.298 9.94214 105.093 9.58025 105.133 9.20775C105.172 8.83525 105.469 8.75277 105.184 8.34628C104.636 8.65519 105.231 10.0738 104.86 10.3036C104.416 10.5799 104.31 8.26752 104.442 7.77044C104.547 7.37924 104.906 7.45791 105.011 7.06826C104.368 6.36507 104.362 7.75328 104.252 8.02494C103.853 9.01373 104.121 6.3746 103.648 7.32918C103.657 6.83565 103.664 6.39176 103.673 5.91842C103.592 6.00845 103.537 6.12809 103.439 6.19947C103.73 7.16108 103.492 7.11986 103.369 7.12136C103.177 7.12447 103.474 7.59351 103.423 7.71459C103.286 8.03862 103.068 7.89149 103.202 8.31515C103.142 8.118 103.077 7.92027 103.016 7.72467C102.791 7.97032 102.262 10.0302 102.765 9.61422C102.718 10.3795 102.556 10.0117 102.429 9.89527C102.302 9.77895 102.304 10.2664 102.193 10.1763C101.749 9.81615 102.039 8.98242 102.109 8.32888C101.523 8.77905 102.097 9.07688 101.252 9.37803C101.171 9.91049 101.561 10.4787 101.236 10.786C101.176 9.861 100.937 9.19649 100.47 8.88916C100.425 9.10184 100.38 9.3164 100.335 9.52908C100.08 8.67527 100.21 7.78742 99.7387 8.84613C99.9918 6.89793 99.8178 8.14429 99.3957 7.35115C99.31 7.19125 99.508 6.78706 99.3884 6.58214C99.3341 6.48973 99.2024 6.79484 99.07 6.55926C99.0053 6.44284 98.7029 5.69164 98.4934 6.04842C98.6471 6.99227 98.2491 7.79521 98.5904 8.57606C97.9597 8.38357 97.5182 8.83674 98.225 7.54981C98.0649 7.26417 97.9046 6.97975 97.7445 6.69566C97.6329 6.92076 97.5204 7.14408 97.408 7.36763C97.391 6.59189 97.4081 6.37428 96.9685 6.51074C97.1592 6.32764 97.3492 6.14151 97.5407 5.95687C97.5472 5.80022 97.5738 5.63741 97.5674 5.4854C97.3328 5.78334 96.6722 5.91157 96.5122 6.11799C96.352 6.32446 96.6612 6.38097 96.6151 6.58123C96.2311 8.23258 96.2616 7.01465 95.986 7.29805C95.8243 7.46571 96.2104 7.64776 96.1239 7.71917C95.8031 7.98089 95.6543 7.10326 95.3699 7.09207C95.4709 7.59023 95.5711 8.09614 95.6698 8.59895C95.3714 8.57256 95.0388 8.56814 94.7614 8.72803C94.6526 8.79045 94.7348 9.16095 94.717 9.18577C94.6288 9.31307 94.2699 9.51471 94.2319 9.51626C93.9458 9.51922 93.9376 9.00606 93.6596 8.97796C93.7688 8.93451 93.8714 8.89535 93.9781 8.85345C94.0266 8.02148 94.0761 7.18955 94.1246 6.35602C93.8521 6.29549 93.5795 6.2362 93.3063 6.17567C93.506 6.4535 93.7064 6.73001 93.9061 7.00784C93.594 7.68 93.2819 8.35369 92.9698 9.0274C92.8073 8.61448 92.6454 8.20166 92.4829 7.78875C92.0415 7.89767 92.1304 9.57382 91.921 8.10551C91.7908 8.22964 91.6607 8.35369 91.5306 8.47628C91.5492 8.26677 91.5676 8.05684 91.5862 7.84734C91.4293 7.97619 91.2725 8.10419 91.1156 8.23459C91.2806 8.97654 91.4422 9.75731 91.6056 10.4775C91.2969 10.6387 91.2909 10.0093 91.2449 9.85225C91.1228 9.43621 90.8805 9.99738 90.7834 9.61239C90.7506 9.48022 91.0531 9.06586 90.9489 8.58796C90.9285 8.49533 90.5235 6.73863 90.265 7.14425C90.2699 7.46249 90.2899 7.8527 90.3004 8.19888C89.9528 8.39218 89.7756 6.73101 89.8216 6.26539C89.6365 6.59136 89.3658 6.6186 89.3278 7.12777C89.2332 7.14019 89.1394 7.15197 89.0447 7.16439C89.1433 5.92432 88.7487 6.15107 88.7229 7.21749C88.8854 7.24388 89.0481 7.27166 89.2106 7.29805C89.0877 8.60514 89.5816 9.3941 88.554 8.18332C88.3575 7.50337 88.9032 8.27596 88.7431 7.76678C88.465 7.47042 88.2039 7.71838 87.9395 7.24495C87.6105 6.65353 88.0153 6.0847 87.2488 6.83756C88.9395 8.72367 87.0169 8.11171 86.2228 8.69691C86.0045 6.83404 85.3339 6.24399 84.4105 6.7982C84.5067 7.31666 84.7972 7.04954 84.9646 7.22023C85.132 7.39097 84.9509 7.69856 85.1594 7.94072C85.3679 8.18282 85.8109 8.51195 86.022 8.87817C85.8432 9.17161 84.9606 9.86534 85.5441 9.03197C85.1085 8.51825 84.9039 7.99033 84.3639 7.89403C84.2022 8.70279 84.2142 9.20639 83.6879 9.22972C83.9991 8.10588 83.401 7.32481 83.5327 6.16377C83.906 6.43419 83.6974 7.56264 83.9132 8.10276C83.9353 8.15674 84.2831 7.87386 84.3639 7.89403C84.013 6.88033 83.8917 6.50301 84.1075 5.29681C83.8593 5.40237 83.7049 5.25094 83.6822 5.82687C83.6305 5.57702 83.5785 5.32695 83.5276 5.07709C83.4468 5.08331 83.374 5.10644 83.2884 5.10181C83.4063 5.97058 83.1777 5.43576 83.0152 5.82962C82.8527 6.22392 83.0707 6.90973 82.6244 6.91904C82.7732 7.1224 82.9092 7.29689 83.0531 7.48939C82.7653 7.7129 82.4766 7.93784 82.1888 8.16135C82.3909 8.69218 82.829 9.48066 82.817 10.1791C82.6844 9.91539 82.2303 10.3788 82.1806 10.3979C81.9881 10.4693 82.093 10.0288 82.0785 10.0179C81.7761 9.8039 81.5271 9.95387 81.4123 9.28648C81.1851 9.5876 81.0138 9.41592 80.7728 9.43295C80.6402 9.44227 80.666 9.93247 80.5884 9.83943C80.0726 9.21852 80.564 8.58505 79.5689 9.79091C79.6894 10.1324 79.8083 10.4817 79.9287 10.8263C79.8163 10.9552 79.7046 11.0847 79.5922 11.2136C79.517 11.1515 79.4425 11.0889 79.3673 11.0268C79.3689 10.2864 79.3708 9.54443 79.3724 8.80402C79.29 8.76366 79.2071 8.72445 79.1247 8.68409C79.2662 8.61113 79.408 8.53825 79.5495 8.46529C79.5624 8.33501 79.5745 8.20466 79.5874 8.07438C79.3772 7.87257 79.1677 7.66895 78.9575 7.46558C78.9534 7.72315 78.9495 7.98252 78.9454 8.24008C78.4716 7.88149 78.4603 7.66345 78.0099 8.37283C77.663 8.36506 77.3806 9.44197 77.18 9.89527C77.1081 9.75094 77.036 9.60475 76.9633 9.46042C76.9172 9.67465 76.8707 9.88794 76.8245 10.1022C76.7332 9.80414 76.6406 9.50605 76.5492 9.20958C76.4983 9.88605 76.4719 10.0972 76.8284 10.3347C76.7063 11.1761 76.0787 10.8049 75.8231 10.5224C75.6293 10.308 75.8444 9.6062 75.8201 9.52084C75.7392 9.23083 75.4197 9.48107 75.3526 9.43295C75.0688 9.23272 74.8699 9.26777 74.6136 9.11254C74.5637 9.08147 74.4242 8.63671 74.4124 8.62275C74.3202 8.54669 74.0927 8.33052 74.0668 8.32431C72.7321 7.99231 74.1583 9.92189 72.9172 9.71858C72.9544 9.97305 72.9885 10.2258 73.0249 10.4803C72.9312 10.4958 72.8364 10.5105 72.7427 10.526C72.6238 10.3134 72.7676 9.92661 72.5315 10.2386C72.5469 9.92501 72.5623 9.61131 72.5785 9.29929C72.4758 9.4685 72.3768 9.63635 72.2717 9.80556C72.1068 8.71738 71.5046 8.47025 71.5474 7.19277C71.5619 6.7581 71.9888 6.31209 71.7632 5.84793C71.5799 5.75656 71.704 6.27568 71.6292 6.30292C71.0891 6.49231 71.1205 5.76466 70.8997 5.9587C70.865 6.27056 70.8284 6.58852 70.7929 6.90348C70.7096 6.81194 70.6261 6.72038 70.5421 6.62883C70.5227 6.83841 70.5025 7.0482 70.4831 7.25777C70.5615 7.27174 70.6498 7.28591 70.7218 7.29988C70.6214 8.11159 69.6999 8.4762 70.0513 7.78417C70.1944 7.50323 70.4565 7.62259 70.2909 6.66362C70.0443 6.80178 69.7645 6.94293 69.5049 7.08108C69.4968 6.87461 69.4893 6.66777 69.4812 6.4613C69.1314 6.59495 69.4495 7.42045 69.4489 7.8629C69.3689 7.87531 69.288 7.88619 69.208 7.89861C69.1741 7.69856 69.1419 7.48916 69.1063 7.2953C69.1031 7.61367 69.0583 8.35366 68.8198 8.07896C68.6665 7.90016 68.9079 7.09695 68.6156 7.20833C68.6374 7.705 68.743 8.30991 68.4173 8.46987C68.385 7.9515 68.3403 7.47662 68.3152 6.93186C67.9102 7.42985 67.7259 6.62935 67.2505 7.20833C66.9489 7.57471 66.5357 8.87525 66.3409 6.87144C66.1202 6.81869 66.1903 7.31769 66.125 7.42988C65.8169 7.9608 65.5877 7.01063 65.5303 6.95475C65.1642 6.5965 65 6.92541 64.7017 6.47686C64.7179 6.84788 64.7267 7.19909 64.7396 7.56079C65.013 7.00504 65.1514 7.03112 65.5347 7.15066C65.4061 7.22515 65.2775 7.30137 65.149 7.37587C65.17 7.67695 65.1908 7.97809 65.2111 8.27762C66.3965 7.09159 66.1199 8.96545 65.1262 9.37528C65.0405 8.81808 64.9517 8.26236 64.8668 7.70361C64.2927 8.54807 64.0225 7.81498 63.3733 7.63953C63.2961 7.61946 63.015 7.94044 62.8941 7.95628C62.8961 7.95842 62.8982 7.96055 62.9002 7.96269C62.825 8.48887 62.9268 8.73103 62.9389 9.20134C62.8735 9.26031 62.8079 9.31905 62.7425 9.37803C62.5962 9.01953 62.6476 8.72506 62.3598 8.81043C62.3986 9.16743 62.4369 9.52453 62.4757 9.88154C62.1604 9.89396 61.954 9.50607 61.6605 9.67373C61.7098 9.53867 61.7585 9.40323 61.8078 9.26817C61.169 8.92354 61.6774 6.82455 61.1947 7.86931C61.164 7.6862 61.134 7.5013 61.1033 7.31819C61.3022 7.27318 61.5012 7.22954 61.6993 7.18453C61.7033 6.92539 61.7076 6.66735 61.7109 6.4082C61.4982 6.48582 61.2845 6.56586 61.0719 6.64348C61.2271 6.46961 61.3833 6.29552 61.5385 6.12166C61.2919 5.99748 61.0453 5.87323 60.7987 5.74906C61.0605 6.70199 60.721 6.81853 60.7849 7.7622C60.3482 6.97669 60.0053 5.94125 59.3285 6.60412C59.1943 6.73616 59.2672 7.39562 58.8864 6.59313C58.9785 7.6424 58.5015 8.13477 58.5628 9.13268C58.6953 9.08457 58.8328 9.05431 58.9613 8.99535C58.815 8.64919 58.7907 7.69692 59.013 7.41432C59.2969 7.05418 59.7108 7.71416 59.6939 6.65721C59.807 6.70687 59.9123 6.73617 60.0222 6.77806C59.977 7.04025 59.9326 7.30409 59.8882 7.56629C60.201 7.15522 60.3975 7.2889 60.5479 7.94987C60.1752 8.10198 59.8033 8.25248 59.4306 8.40304C59.4855 8.44799 59.5412 8.49329 59.5961 8.5367C59.3138 9.21199 59.6049 9.8516 59.0785 9.99598C59.0818 9.68713 59.0844 9.37807 59.0876 9.06768C58.896 9.89355 58.3712 9.88907 58.5386 10.8391C58.3802 10.5473 58.3479 10.3627 58.2581 10.8748C57.8401 10.153 57.5716 9.24014 57.7204 8.15036C57.5651 8.32575 57.4098 8.50138 57.2554 8.67677C57.3452 8.97476 57.435 9.27137 57.5247 9.56936C57.2547 9.55073 56.9826 9.53242 56.7134 9.51535C56.6875 8.63372 57.2332 9.24788 57.0757 8.4598C57.0442 8.30161 56.8989 8.64045 56.8607 8.55135C56.4581 7.5874 57.0902 8.28383 56.9715 7.54523C56.3715 7.31703 56.8516 6.07943 56.0252 7.11953C56.0034 6.865 55.9799 6.60534 55.9597 6.35236C55.6729 6.33708 55.6961 6.91201 55.4495 7.02066C55.2951 7.08825 55.1013 6.07867 54.9307 6.76616C54.9003 6.8929 55.1872 8.12686 54.5843 8.07255C54.1164 8.03046 54.3111 7.15844 54.0582 6.84946C53.8051 6.54054 53.2261 7.74967 53.0555 6.37891C53.188 6.56046 53.3569 6.65841 53.504 6.80735C53.5639 6.54038 53.6221 6.2763 53.6811 6.01088C53.3448 6.35549 52.9971 5.94933 52.7707 6.58581C52.3219 5.61246 51.82 6.51572 51.9558 7.61481C52.1035 7.45634 51.9429 6.97709 52.148 7.28249C52.169 7.53863 52.1912 7.79352 52.2122 8.04966C51.8629 8.01861 51.6203 8.0258 51.7796 7.24495C51.7254 7.22632 51.6718 7.20774 51.6176 7.18911C51.6079 7.75418 51.5993 8.32134 51.5896 8.88641C51.5249 8.95006 51.4599 9.01319 51.3952 9.07683C51.3233 8.95271 51.2512 8.82715 51.1785 8.70148C51.2763 7.80731 51.443 7.77778 50.8915 7.27791C50.8899 7.58684 50.8875 7.89454 50.8859 8.20346C50.4242 7.81073 50.4121 7.06239 49.8324 7.09024C50.2771 6.01767 50.5204 7.91893 50.5188 5.76737C50.6304 5.90863 50.7429 6.0518 50.8545 6.19306C50.8715 5.88103 50.8883 5.56856 50.9045 5.25653C50.3053 5.42111 49.3101 7.47318 48.909 6.1125C48.8605 6.27855 48.8118 6.42289 48.7625 6.60137C48.3695 5.78016 48.1998 7.62384 47.8011 6.562C47.76 6.45057 47.8461 4.7184 47.3272 4.78048C47.3401 5.0056 47.3468 5.38451 47.3573 5.66849C47.245 5.53038 47.1332 5.38585 47.0217 5.24462C47.0014 5.45256 46.9802 5.66041 46.96 5.8699C47.1517 5.95062 47.3428 6.03269 47.5344 6.11342C47.3752 6.1848 47.2149 6.25626 47.0557 6.32764C47.2635 6.66749 47.3572 6.6711 47.2319 7.21566C47.0516 7.24826 46.871 7.28284 46.6907 7.31545C46.6722 7.45497 46.6537 7.59612 46.6351 7.73565C46.7225 8.15166 46.8107 8.5585 46.898 8.98071C46.4282 8.64075 46.0198 8.62229 45.6592 7.80431C45.5977 7.66616 45.815 7.12418 45.3963 7.61298C45.3898 7.32593 45.3786 7.09285 45.3713 6.82749C44.8587 7.63163 44.6903 7.39161 44.1558 6.81101C44.5019 7.3528 44.1931 7.00043 44.1049 7.29073C44.0445 7.49073 44.2802 7.46118 44.2536 7.67065C44.2269 7.87865 43.9206 8.71856 44.1825 8.81958C44.8245 7.09798 44.9994 9.15631 45.8242 8.32888C45.6972 8.55087 45.5694 8.77336 45.4424 8.99535C45.5022 9.14581 45.5557 9.28232 45.6204 9.44211C45.1604 9.10531 45.3841 9.32411 45.1951 9.5895C45.0059 9.85496 44.662 10.0805 44.4315 10.1534C44.359 10.1764 44.4355 9.79023 44.2717 9.75429C44.1601 9.72945 43.8552 10.3019 43.7848 9.62704C43.7387 9.18775 44.2286 7.97811 43.5512 7.981C43.4237 7.55034 43.7485 7.68409 43.7555 7.6322C43.8145 7.11991 43.3981 6.73474 43.2056 7.12594C43.1901 7.15969 43.342 7.55888 43.1768 7.71551C42.7846 8.08964 42.5581 7.63182 42.3042 7.01242C42.2767 7.73894 41.9467 8.6066 41.5359 8.33804C41.5149 8.54594 41.4949 8.75569 41.4739 8.96514C41.5376 8.8551 41.6014 8.74653 41.6652 8.63648C41.7347 8.76689 41.8084 8.86181 41.8763 9.01549C41.4632 9.19416 41.4048 10.1954 41.2067 10.5617C40.5288 11.8132 40.9397 9.16601 41.0619 8.70972C41.1501 8.89446 41.2353 9.10067 41.3226 9.29472C41.3129 9.04168 41.3031 8.78671 41.2942 8.53212C40.2794 8.53986 41.1397 6.88956 40.6246 6.41919C40.492 7.66412 40.1137 7.78411 39.6318 6.99411C39.5784 7.00032 39.5249 7.00191 39.4715 7.00967C39.4626 7.19119 39.4628 7.46866 39.4482 7.58826C38.8677 7.79938 38.7642 5.88216 38.7093 5.70053C38.4651 4.89498 38.2749 6.00957 38.2029 6.01912C37.8997 6.05793 37.8116 5.56303 37.523 5.7756C37.2126 6.0053 37.4248 6.38505 37.3304 6.72496C37.2546 6.99489 37.0097 7.04297 36.9085 7.32277C36.9487 7.09393 36.9934 6.86952 37.0335 6.63982C36.7118 6.32785 36.4488 6.02377 36.0834 5.94772C35.671 7.62213 35.3202 4.7976 35.4625 7.08841C35.8085 7.2452 36.0021 7.50624 36.1872 8.08994C35.9601 8.16444 35.7327 8.23699 35.5055 8.31149C35.4393 8.06007 35.3922 7.81504 35.3138 7.55896C35.144 8.09288 34.7504 7.86376 34.5959 8.02037C33.8722 8.75463 34.0961 9.66534 33.4355 8.1348C33.9116 7.98567 33.9109 7.2423 34.3831 7.34474C34.2812 6.81384 34.0412 6.92383 34.1965 6.28736C33.7397 6.44413 33.8874 7.01238 33.7096 7.51685C33.5562 7.95175 33.2474 7.9761 33.2649 8.54127C33.2333 8.23054 33.2089 7.92972 33.1774 7.61938C32.8815 7.62249 32.5857 7.62269 32.2898 7.62579C32.4159 7.30139 32.542 6.9764 32.6681 6.65355C32.5728 6.53103 32.4773 6.40897 32.382 6.28644C31.6542 7.29548 30.3993 5.44618 30.5998 7.981C30.2489 8.06172 30.205 7.74379 30.0142 7.26418C29.9932 7.45662 29.9727 7.61668 29.9517 7.83086C29.7254 7.62941 29.5516 8.3519 29.3519 8.1641C29.1522 7.97773 29.1027 7.2953 29.0736 8.4424C28.9442 8.11336 28.8156 7.84002 28.6871 7.53424C28.6095 7.79484 28.532 8.05244 28.4552 8.31149C28.3339 8.17489 28.2124 8.03886 28.0911 7.90227C28.0263 8.44984 27.5494 8.21381 27.3392 8.58156C27.1396 7.9913 27.1451 6.13285 26.6756 6.46588C26.6878 6.92681 26.6997 7.38641 26.7118 7.84734C26.6043 7.75111 26.4966 7.65519 26.3882 7.55896C26.3818 7.40852 26.3762 7.25807 26.3697 7.10763C26.4247 7.15419 26.4789 7.2005 26.5339 7.24861C26.4862 6.99402 26.4394 6.74061 26.3925 6.48602C26.2284 6.86318 26.0641 7.24039 25.8992 7.61755C26.1215 7.90312 26.3439 8.18888 26.5662 8.47444C26.2872 8.81287 26.093 8.47531 25.8505 8.85254C25.6395 8.21617 25.7174 7.84948 25.8031 7.1589C25.7247 7.21786 25.6453 7.27479 25.5669 7.33375C25.6187 6.64307 25.486 6.23153 25.9444 6.28736C25.9129 6.09036 25.8807 5.90254 25.85 5.69779C25.7748 5.72883 25.7261 5.56231 25.6436 5.63828C25.4188 5.8463 25.2465 7.05945 25.2619 7.48481C25.2702 7.70762 25.4918 7.28151 25.4829 7.5965C25.461 8.36461 24.9525 8.01975 25.6859 8.7912C25.4425 9.28019 25.3881 8.91142 25.1197 8.77015C25.1407 9.02611 25.1611 9.28044 25.1813 9.5364C25.0568 9.41847 24.9322 9.30096 24.8077 9.18303C24.9807 7.86822 24.063 7.37439 24.8891 6.22419C24.645 6.16521 24.4017 6.10592 24.1583 6.04384C24.2085 5.90881 24.2586 5.77514 24.3087 5.64011C24.4187 5.71151 24.528 5.78174 24.6379 5.85159C24.5086 5.60484 24.379 5.35955 24.2497 5.1128C23.9441 5.41862 23.8242 5.88896 23.6844 6.46954C24.0401 6.89321 23.9238 6.31449 24.201 6.19947C24.1913 6.56715 24.2041 6.90535 24.1799 7.29164C24.0367 6.53005 23.5695 7.08411 23.4612 7.12136C23.1314 7.23449 23.39 6.48619 23.1694 6.47046C22.9487 6.45493 22.6883 6.90032 22.508 6.15828C22.5112 6.57418 22.5257 7.0045 22.5386 7.38319C22.1949 7.5198 22.2635 7.02846 22.2279 6.96482C21.6603 5.91854 21.3523 6.80186 20.703 6.90897C20.7855 7.0378 20.8688 7.1541 20.952 7.27516C20.4622 8.15822 20.7922 7.88783 21.2175 8.17966C20.8188 8.09117 20.5906 8.84322 20.3092 9.06676C20.0278 9.28992 19.5453 8.90368 19.3689 8.60261C19.7724 8.11827 20.2076 8.43767 20.6556 8.30417C20.6047 7.88048 20.5552 7.5219 20.5026 7.05636C20.2302 7.94561 20.0723 7.35102 19.9825 7.23305C19.719 6.88704 19.7273 7.65028 19.568 6.82932C19.5745 7.11174 19.5792 7.3492 19.5857 7.61298C19.0415 7.495 18.4546 6.99572 18.1004 8.03868C18.068 7.36035 18.0436 6.70683 18.0064 6.01455C17.776 6.52516 17.5787 6.00227 17.3847 6.12166C17.1914 6.24119 17.265 6.78938 17.0378 7.00052C16.9957 7.03933 16.9082 6.69621 16.8047 6.94925C16.7002 7.20363 16.3147 9.095 16.2686 7.4427C16.0738 7.43493 15.8894 7.37451 15.6986 7.34657C15.8845 7.25344 16.0706 7.16323 16.2557 7.0701C16.0973 6.66963 15.9398 6.27036 15.7813 5.8699C15.7611 6.22695 15.7408 6.59045 15.7214 6.94284C15.2945 7.3775 14.9846 6.79373 14.5537 6.93186C14.4817 6.95514 14.6515 7.66106 14.3322 7.48115C14.0128 7.30108 13.7758 5.98352 13.2317 6.49243C13.2042 6.51882 13.0431 7.5279 12.8482 6.82932C12.8039 6.671 12.9905 6.43672 12.8887 6.22877C12.7868 6.02075 12.3322 5.84969 12.2966 5.35448C12.3015 5.52985 12.3299 5.71156 12.3436 5.89004C12.266 5.97384 12.1876 6.05771 12.1092 6.13997C12.1019 5.83108 12.0941 5.52174 12.0868 5.21441C11.6405 5.93314 11.4098 7.10557 10.7484 6.71764C10.9344 7.16623 11.1204 7.61663 11.3056 8.06522C11.3565 7.75009 11.4076 7.43284 11.4577 7.1177C11.7625 7.24342 12.0681 7.36824 12.3729 7.49396C12.4231 7.13536 12.4723 6.77779 12.5224 6.41919C12.6033 6.46575 12.6833 6.51087 12.7642 6.55743C12.744 6.81666 12.7236 7.07452 12.7026 7.33375C12.8626 7.27012 13.0229 7.20514 13.1821 7.1415C12.8579 8.67169 12.2767 7.01135 12.3186 8.29135C12.2467 8.09275 12.1747 7.89277 12.1027 7.69262C12.0712 8.31328 11.9249 8.13465 11.6671 8.03684C11.7261 8.34266 11.7913 8.64432 11.8455 8.95324C11.5948 8.52173 11.1502 8.56364 10.8906 8.39754C10.7766 8.32459 10.8905 7.87461 10.8566 7.82171C10.6827 7.54538 10.3505 8.33056 10.2809 8.26846C9.86532 7.89893 9.59525 6.41035 9.14163 7.39143C9.60981 7.6336 9.35511 7.53132 9.52168 8.07621C9.57383 8.24705 10.1787 8.60343 9.42128 8.44515C9.33249 8.42534 7.95823 7.39684 8.40997 6.60869C8.1876 6.86018 8.01351 7.15097 7.80973 7.41798C7.31163 5.34088 7.48402 7.29217 7.62876 8.36642C7.54709 8.37107 7.4694 8.38198 7.3853 8.38198C7.56401 7.25339 6.65358 7.18332 6.34469 7.75304C6.2412 7.94244 6.53059 8.30368 6.29126 8.47444C6.17729 8.3953 6.04801 8.29282 5.92758 8.20438C6.10223 8.91842 5.75948 9.19359 5.76427 9.91999C5.54516 9.2727 5.37756 7.90071 5.49798 7.15707C5.31689 7.45817 5.13485 7.75891 4.95376 8.06156C5.03785 8.23387 5.12303 8.40467 5.20713 8.57698C4.61523 8.12058 3.85417 9.15911 3.73045 7.63312C3.65202 7.64398 3.57275 7.65338 3.49432 7.66424C3.47006 7.92194 3.44661 8.18013 3.42236 8.43783C3.06746 8.21433 2.71337 7.98935 2.35848 7.76586C2.67448 7.60594 2.7497 7.23915 3.08109 7.53699C2.95338 7.24062 2.8233 6.9426 2.69802 6.64623C2.19912 7.44414 2.13106 7.96855 1.37991 7.73107C1.34595 7.72021 0.778399 7.05107 0.758992 6.98587C0.670083 6.68784 0.805045 6.25487 0.765456 6.10426C0.655486 5.68201 -0.0127523 4.62178 0.000185371 4.46189C0.163525 2.49967 2.41183 2.47366 3.0199 2.37276C9.32696 1.32651 15.4951 2.72626 21.7626 2.48719C21.827 2.48349 21.7989 2.19383 21.8263 2.18142C21.9969 2.10867 22.1644 2.56012 22.2275 2.57874C22.3622 2.61713 22.2881 2.20003 22.3865 2.19973C23.4037 2.20439 24.3636 2.44966 25.3817 2.37825C25.448 2.37359 25.3803 2.70731 25.4967 2.64832C25.5568 2.61602 25.745 2.10403 25.8806 2.09628C26.3544 2.0699 26.7525 2.23404 27.2522 2.22628C27.5255 2.22165 27.9355 2.26517 28.2411 2.25741C28.376 2.25411 28.5167 2.01988 28.65 2.01206C28.8392 2.00119 28.8006 2.47601 28.8297 2.5055C28.9574 2.63432 28.9751 2.11318 29.0964 2.12558C29.322 2.15042 29.3341 2.49836 29.6204 2.46888C29.8249 2.44715 30.2932 2.17243 30.5511 2.0917C31.1543 2.49529 31.9144 2.33506 32.4772 2.20156C32.8103 2.12242 32.8412 2.60959 32.977 2.60804C33.4557 2.5986 33.8189 1.97639 34.2684 1.95621C34.865 1.92992 35.3938 2.34135 35.9718 2.37093C36.0655 2.37558 36.044 1.92922 36.1359 1.91776C36.4764 1.87585 36.9117 1.79461 37.2149 1.85826C37.5528 1.9282 37.6775 2.57611 38.0082 2.44417C38.1051 2.40499 38.1336 1.8369 38.296 1.76396C38.5555 1.64927 38.8401 2.15023 39.0212 2.20614C39.2695 2.28065 39.0536 1.70191 39.3883 1.77953C39.4021 1.78288 39.4522 2.19658 39.5241 2.17685C39.7335 2.12096 39.7127 1.79517 40.0192 1.82622C40.0486 1.8305 40.4549 2.2247 40.4953 2.22628C40.733 2.23249 41.2116 2.3705 41.3524 2.2867C41.8553 1.98864 41.4594 1.3664 41.8871 2.71698C42.0755 2.38641 42.2623 2.05135 42.4619 1.73009C42.3287 2.0297 42.8695 2.46204 42.9075 2.4341C43.2218 2.20895 43.0346 1.68345 43.4332 1.77037C42.9068 2.98434 43.9474 1.92684 44.1795 1.89579C45.2969 1.74526 46.3126 2.0482 47.4357 2.04044C47.8117 2.03726 48.3156 1.78064 48.7134 1.78685C48.8061 1.78722 48.736 2.07451 48.8176 2.08072C48.899 2.08498 48.8087 1.76246 48.9017 1.77953C49.4798 1.89134 49.9327 2.49988 50.4624 1.73924C50.4881 1.84922 50.4873 1.93612 50.53 2.05692C50.9634 1.37548 51.7981 2.29188 52.1118 2.41762C52.6025 2.6131 52.7279 2.1525 53.0844 2.24551C53.5558 2.36969 54.2635 3.26954 53.9474 1.7841C54.2708 1.73755 54.5821 1.7247 54.9088 1.86283C54.9451 1.87849 54.9201 2.25606 54.9346 2.26382C55.0268 2.31802 55.0568 1.97997 55.119 1.96445C55.2878 1.9227 55.0124 2.32746 55.2531 2.21438C55.38 2.15384 55.4521 1.859 55.8046 1.85276C57.9296 1.82016 60.2366 1.92576 62.415 1.97544C62.5646 1.97854 62.4661 1.61342 62.6537 1.63671C63.3054 1.71751 64.472 2.33198 65.034 2.24825C65.5959 2.16443 65.4691 1.6305 65.8208 1.40692C65.8887 1.36346 65.833 1.66776 65.8944 1.67241C66.3076 1.70038 66.8002 2.17501 67.135 2.24642C67.3564 2.29427 67.3386 1.81555 67.4922 1.78136C67.7211 1.73168 67.9566 2.21533 68.0787 2.23086C68.6527 2.29905 69.0473 1.9095 69.5833 2.10818C69.5624 2.00283 69.5485 1.9053 69.5308 1.8015C70.1655 1.81857 70.7994 1.83569 71.434 1.85276C71.4041 1.75652 71.3752 1.65944 71.3453 1.56164C72.0899 1.61446 72.005 2.65762 71.9395 0.454823C71.9937 0.377221 72.051 0.287271 72.1028 0.215882C72.0818 1.3506 72.5322 2.181 73.1055 2.4698C73.1475 2.49153 73.4297 1.38515 73.3989 2.69226C73.4725 2.37248 73.5163 2.15204 73.5786 1.87107C73.6999 2.26681 73.8228 2.65786 73.944 3.05205C74.0095 2.99307 74.0759 2.93616 74.1414 2.87719C74.1511 2.62104 74.1436 2.35509 74.1646 2.10361C74.4686 2.0648 75.0921 2.38146 75.3324 2.34896C75.9291 2.26668 76.5366 1.57416 77.0008 2.32241C77.2269 2.24612 77.0024 1.74338 77.3386 1.80699C77.3766 2.06152 77.4123 2.30548 77.4519 2.56776C77.7267 1.43052 77.7841 2.12233 78.1608 2.35994C78.4155 2.52137 78.5822 2.24343 78.8248 2.29769C78.8862 2.31166 78.8775 2.64545 78.9196 2.63459C79.0604 2.60016 79.4622 2.14074 79.5616 2.12832C80.4623 2.00727 81.2361 2.05879 82.094 2.18142C82.1862 2.19384 82.0666 1.86443 82.162 1.8784C82.3156 1.90033 82.2252 2.40652 82.3142 2.43135C82.5622 2.49777 82.5641 1.96401 82.9101 1.93607C84.0494 1.84454 85.3592 2.24551 86.5494 2.28121C86.5866 2.28121 86.5844 1.96847 86.6248 1.96537C86.8884 1.95008 87.1551 2.37282 87.3944 2.36818C87.7914 2.36197 88.0898 1.92262 88.482 1.92417C89.2485 1.92572 89.9334 2.15069 90.7218 2.16311C91.3671 2.17398 91.9275 2.13227 92.635 2.13382C95.7254 2.14003 98.8791 1.14735 101.991 1.67516C102.07 1.68912 102.038 1.96543 102.062 1.95347C102.291 1.83394 102.312 1.46112 102.393 2.24184C102.686 2.08798 102.778 1.50143 103.132 1.54333C103.32 1.5653 103.179 2.47441 103.498 2.00565C103.785 1.58189 103.468 1.08366 104.323 1.59277C104.346 1.60676 104.458 2.1609 104.635 2.01664C104.814 1.87382 104.607 1.47702 105.037 1.35749C106.047 1.07809 107.326 1.55709 108.5 1.40967C108.573 1.40036 109.282 1.1041 109.422 0.967493C109.693 0.702047 109.636 0.290255 109.988 0.189333C110.259 0.111714 110.483 0.578177 110.803 0.485034C110.84 0.473713 110.902 -0.0060997 111.142 0.0575042ZM51.6185 9.37711C51.5521 9.84788 51.4325 11.5807 51.0316 11.0534C50.9936 11.0037 51.1987 9.81205 50.9773 9.62246C51.194 9.49672 51.405 9.45599 51.6185 9.37528C51.6185 9.37589 51.6185 9.3765 51.6185 9.37711ZM112.88 11.1065C112.58 11.0195 112.279 10.9334 111.979 10.8465C112.186 10.6369 112.393 10.4277 112.6 10.2166C112.693 10.5131 112.786 10.81 112.88 11.1065ZM75.5362 10.2834C75.5364 10.2834 75.5367 10.2834 75.537 10.2834C75.2217 10.507 74.9061 10.7309 74.5908 10.9545C74.6239 10.7899 74.6572 10.6247 74.6903 10.4601C74.9393 10.2009 75.1884 9.94208 75.4366 9.68288C75.4698 9.88309 75.503 10.0832 75.5362 10.2834ZM78.0276 8.54127C78.229 8.73688 78.1797 9.06675 78.2905 9.3881C78.2905 9.38749 78.2905 9.38688 78.2905 9.38626C78.3197 9.46992 78.4559 9.54312 78.5085 9.55563C78.4891 9.34916 78.464 9.14534 78.443 8.94043C78.9128 8.44056 79.8315 10.2169 78.6421 10.9325C78.6599 10.6718 78.6768 10.4124 78.6946 10.1516C78.1035 10.2246 77.4446 9.65899 78.0276 8.54127ZM46.8657 10.1278C46.3611 10.9816 46.1993 11.1616 45.5872 10.5764C45.6737 10.3344 45.7601 10.0924 45.8466 9.85041C45.9477 10.0972 46.048 10.3424 46.1491 10.5892C46.1494 10.5892 46.1497 10.5892 46.15 10.5892C46.1702 10.33 46.1904 10.0703 46.2098 9.81105C46.4282 9.9166 46.6474 10.0223 46.8657 10.1278ZM97.3421 9.15831C97.4827 10.8636 97.4421 9.87236 97.0404 10.2569C96.9014 10.3904 97.0369 10.6888 96.9504 10.7384C96.4832 11.0098 96.4458 9.86727 96.5501 9.27275C96.8145 9.23238 97.0816 9.19557 97.3412 9.15831C97.3415 9.15831 97.3418 9.15831 97.3421 9.15831ZM109.464 8.80402C109.465 8.80402 109.465 8.80402 109.465 8.80402C109.477 9.21995 109.289 9.33183 109.502 9.72591C109.34 9.72436 109.178 9.72105 109.016 9.7195C109.064 9.68075 109.112 9.64381 109.16 9.60506C109.118 9.46225 109.076 9.31761 109.034 9.17479C108.976 9.65288 108.923 9.37497 108.753 9.21507C108.8 9.72579 108.847 10.2369 108.894 10.7476C108.696 10.5955 108.498 10.4429 108.301 10.2908C108.299 10.1621 108.296 10.0331 108.294 9.90443C108.219 10.0689 108.146 10.2352 108.071 10.3997C108.051 10.246 108.032 10.0938 108.011 9.94013C107.922 10.0565 107.832 10.1728 107.742 10.2908C107.715 9.91855 107.913 9.75769 107.562 9.85225C107.67 9.47041 107.777 9.08973 107.885 8.70789C108.412 8.73894 108.938 8.77142 109.464 8.80402ZM93.6876 9.68288C94.2674 9.61147 94.1041 9.88123 93.9699 10.7256C93.8761 10.378 93.7814 10.0305 93.6876 9.68288ZM63.8188 8.93127C63.6506 9.50721 63.4818 10.0774 63.3095 10.6332C62.9667 10.9545 62.6237 9.90476 62.8816 9.49338C63.1921 8.99977 63.5164 9.55221 63.8188 8.93127ZM56.0101 9.18761C56.4296 9.45467 56.0349 10.139 55.9403 10.5379C55.8243 9.8968 55.6625 9.95335 55.4026 9.87879C55.6466 9.83723 55.9408 9.14226 56.0101 9.18577C56.0101 9.18638 56.0101 9.18699 56.0101 9.18761ZM70.5692 9.57852C70.7373 9.56129 70.9046 9.40044 71.0549 9.59591C71.0095 10.1466 70.7088 9.64559 70.9239 10.462C70.8163 10.4759 70.7087 10.4895 70.602 10.505C70.6698 10.1667 70.5786 9.91395 70.5697 9.58035C70.5695 9.57974 70.5694 9.57913 70.5692 9.57852ZM88.0705 10.332C87.7406 9.67995 87.678 9.95894 87.3457 10.4107C87.2989 9.87983 87.6952 8.99061 87.9434 8.79486C87.9854 9.30711 88.0276 9.81971 88.0705 10.332ZM10.0366 10.0601C10.1158 9.38341 10.7002 9.29517 10.9906 9.49521C10.956 9.59557 10.9213 9.69726 10.8868 9.79915C10.6037 9.88608 10.3196 9.97313 10.0366 10.0601ZM55.2789 9.83302C55.3224 9.85284 55.3636 9.86763 55.4026 9.87879C55.3593 9.88617 55.3175 9.87464 55.2789 9.83302ZM37.7139 6.89615C37.8521 6.2582 37.4412 6.04386 37.9401 6.29377C37.9401 6.29316 37.9401 6.29255 37.9401 6.29194C38.27 6.45649 38.3428 6.50043 38.6485 6.5501C38.5385 7.36964 37.9184 7.66258 38.773 7.83178C38.7843 7.83253 38.7619 7.34487 38.8984 7.41157C38.9406 7.43231 39.0755 7.83253 39.2806 7.94896C39.3469 7.98621 39.8452 8.10964 39.166 8.11741C39.1862 8.68869 39.1497 9.26692 39.1513 9.82112C38.8862 9.98218 38.6825 8.86355 38.402 8.89099C37.9856 8.93446 37.7737 10.0656 37.6936 8.58156C38.0438 8.21693 38.6451 8.20817 38.7235 9.10063C39.0622 9.1115 39.1595 8.3803 38.8863 8.01853C37.7163 8.47804 38.5651 6.93317 37.5407 7.51685C37.5285 7.72325 37.4864 7.94538 37.4928 8.13938C37.1801 7.41304 37.6646 7.12433 37.7139 6.89615ZM40.1605 8.47444C39.9584 8.91067 39.7569 9.35039 39.5555 9.78816C39.5555 9.07719 39.6665 8.43918 39.9851 8.03868C40.0433 8.18448 40.1023 8.33019 40.1605 8.47444ZM23.1556 8.6612C23.1265 9.04773 23.0489 9.40195 22.9923 9.76985C22.9309 9.44386 21.4754 9.13112 22.2159 8.81134C22.3234 8.76477 22.9794 9.44826 23.1556 8.6612ZM90.3611 9.74971C90.1897 9.49046 90.019 9.2308 89.8484 8.97155C90.111 8.8071 90.3738 8.63834 90.6365 8.47078C90.5444 8.89699 90.4532 9.32351 90.3611 9.74971ZM61.0283 8.2529C61.1007 8.26741 60.8603 8.799 61.1456 8.71522C60.9329 9.05519 60.7337 9.34295 60.5259 9.66274C60.4637 9.41125 60.4007 9.16079 60.3385 8.9093C60.29 9.07075 60.2405 9.23122 60.192 9.39267C60.2211 9.02631 60.247 8.6685 60.2777 8.29593C60.6279 9.08143 60.7081 8.1908 61.0283 8.2529ZM71.4392 6.82017C71.5022 7.61639 70.9952 8.08988 71.4939 8.21719C71.3993 8.74031 71.2472 9.0147 70.9553 9.06127C70.9085 8.86121 70.8617 8.6626 70.8148 8.46254C70.8084 8.99789 70.7333 9.19688 70.5692 9.57852C70.5691 9.57791 70.5689 9.5773 70.5688 9.57668C70.125 9.61544 70.1516 9.43694 70.0448 8.55684C70.5146 9.0536 70.5287 8.24949 70.8489 7.77135C71.0688 7.44257 71.3559 7.59147 71.4392 6.82017ZM24.7064 8.65205C24.3742 9.32417 24.6724 9.95108 24.0829 9.23704C24.1209 9.06628 24.1591 8.89696 24.1971 8.7262C24.3669 8.69982 24.5367 8.67533 24.7064 8.65205ZM73.0788 9.54922C73.0408 8.3167 72.728 7.35729 72.6746 9.36246C72.9794 9.77074 72.8305 8.63492 73.0788 9.54922ZM56.1532 7.25777C56.7394 7.31528 56.6286 8.70638 56.3876 9.40183C56.3504 9.14879 56.3132 8.8953 56.2769 8.64381C56.1742 8.75869 56.0715 8.87379 55.9688 8.98711C56.0302 8.41118 56.0917 7.8337 56.1532 7.25777ZM83.4129 8.19522C82.965 9.07543 83.8965 8.68475 83.5836 9.23429C83.3337 9.67357 83.0045 8.78667 83.129 8.23093C83.2155 8.2154 83.3118 8.20454 83.4121 8.19522C83.4124 8.19522 83.4126 8.19522 83.4129 8.19522ZM80.8207 8.44698C80.8942 9.38742 80.7882 9.1133 81.1421 8.94409C81.2432 8.89596 82.0464 9.24917 81.7092 8.46987C81.4222 8.46987 81.119 8.45629 80.8207 8.44698ZM49.3774 8.63374C49.372 8.2242 49.9904 7.32492 50.0698 7.54981C50.0698 7.5492 50.0698 7.54859 50.0698 7.54798C50.2841 8.16116 49.6317 8.24829 49.9147 9.08965C49.2881 8.34929 49.1006 10.1401 49.1442 7.78051C49.5134 7.677 49.3386 8.1634 49.3774 8.63374ZM2.36322 8.13205C2.36293 8.13205 2.36264 8.13205 2.36235 8.13205C2.40389 8.15131 2.7461 8.75237 2.70449 8.96057C2.29295 8.78206 2.36629 8.38642 1.98317 9.03655C1.96216 8.82715 1.94417 8.62405 1.92155 8.41311C2.07357 8.28892 2.15783 8.03736 2.36322 8.13205ZM21.582 7.83544C21.7332 7.72832 22.0092 8.17218 22.1814 8.14579C21.6332 9.85028 20.978 8.26083 21.582 7.83544ZM103.795 8.86261C103.794 8.86322 103.794 8.86383 103.793 8.86444C103.794 8.86351 103.794 8.86262 103.794 8.86169C103.794 8.862 103.794 8.8623 103.795 8.86261ZM33.2994 8.85803C33.2799 8.74739 33.2688 8.65127 33.2649 8.56691C33.2649 8.55897 33.2649 8.55104 33.2649 8.54311C33.2754 8.6467 33.2866 8.75148 33.2994 8.85803ZM48.092 8.75733C47.8344 8.18617 48.6926 7.27813 48.9702 7.49488C48.9508 7.75557 48.9477 7.99191 48.9025 8.29135C48.6785 7.61626 48.1349 8.85357 48.092 8.75733ZM67.659 8.54768C66.9806 8.53216 67.8634 6.27699 67.8998 8.07621C67.8985 8.11107 67.6765 8.54461 67.659 8.54768ZM53.442 8.52113C53.6148 7.83836 53.2675 7.65705 53.8229 7.77502C53.8552 7.95187 53.8875 8.12914 53.9199 8.306C53.7606 8.37739 53.6013 8.44974 53.442 8.52113ZM63.2147 5.58702C62.3609 5.96733 61.5443 6.63828 62.1004 8.52113C62.165 8.46066 62.2306 8.40218 62.2952 8.3417C62.3049 7.42311 62.5433 7.92454 62.8924 7.95445C62.9422 7.58976 63.1357 7.50544 63.1721 7.19552C63.2423 6.59645 63.0199 6.17527 63.2147 5.58702ZM99.263 7.082C99.2492 7.23879 99.2358 7.3964 99.2221 7.55164C99.087 7.72861 98.9516 7.90473 98.8166 8.0817C98.8384 7.78081 98.8603 7.47993 98.8821 7.17904C99.009 7.14645 99.1352 7.11367 99.2621 7.08108C99.2624 7.08139 99.2627 7.08169 99.263 7.082ZM40.9926 6.53637C40.915 8.26215 41.1861 7.9443 41.7359 7.07193C41.4884 6.89341 41.24 6.71489 40.9926 6.53637ZM76.9353 6.28644C76.9531 6.77673 76.9706 7.26551 76.9892 7.75579C77.281 7.24506 77.2268 6.68358 77.087 6.03469C77.0361 6.11843 76.9862 6.2027 76.9353 6.28644ZM81.14 6.07771C81.0189 5.97543 81.0807 6.37129 81.068 6.36334C80.7616 6.15532 80.7184 5.97374 80.3424 6.2718C80.2963 6.37578 80.251 6.48513 80.2049 6.59221C80.3787 7.61957 80.505 7.05964 80.8728 7.66333C80.8065 7.31094 80.7405 6.95806 80.6742 6.60412C80.8787 6.67861 81.0824 6.75208 81.2869 6.82658C81.3112 6.71791 81.3355 6.61025 81.3597 6.50158C81.287 6.36191 81.2119 6.20495 81.14 6.07771ZM100.825 7.52784C101.023 7.5682 101.223 7.61015 101.422 7.65051C101.429 7.39749 101.436 7.14276 101.444 6.88975C101.238 7.10237 101.031 7.31521 100.825 7.52784ZM36.9085 7.32277C36.8928 7.41252 36.8774 7.50283 36.8637 7.59467C36.8651 7.48274 36.8823 7.39536 36.9085 7.32277ZM1.83839 6.74418C1.61282 6.56724 1.28778 6.68342 1.04037 6.64623C1.05982 7.28098 1.68866 7.10552 1.90948 7.4903C1.94497 7.37641 1.93373 6.81864 1.83839 6.74418ZM56.9641 7.31361C57.0207 6.99697 57.0773 6.68182 57.1331 6.36517C57.2697 6.39933 57.4067 6.43539 57.5441 6.46954C57.5482 6.21029 57.5521 5.9488 57.5562 5.68955C56.9507 6.02636 57.0903 5.27879 56.7905 4.54153C56.8487 5.46503 56.9059 6.38857 56.9641 7.31361ZM107.154 5.88363C106.716 6.05905 106.561 6.38669 106.808 7.16439C106.962 6.98593 107.117 6.8073 107.272 6.62883C107.232 6.38051 107.192 6.13195 107.154 5.88363ZM28.9417 6.73686C28.5757 7.02746 28.5696 5.98372 28.2118 6.56658C28.4034 6.75903 28.5949 6.95363 28.7857 7.14608C28.8373 7.01 28.8902 6.87295 28.9417 6.73686ZM46.8954 3.87049C46.741 3.50739 46.4523 5.23336 46.0181 3.95929C45.9146 4.33955 45.8498 4.70276 45.7609 5.07526C45.7091 4.67009 45.6503 4.25974 45.601 3.85767C45.6007 3.85767 45.6004 3.85767 45.6001 3.85767C45.2063 3.99428 45.4617 4.50243 45.4528 4.93245C45.4486 5.11071 45.1563 4.81272 45.2477 5.20068C45.4053 5.86666 45.9945 5.4837 45.9961 6.2956C45.7891 6.03025 45.3849 6.25198 45.5045 6.79362C45.6355 7.38813 46.0164 6.3918 46.259 6.88517C45.9114 5.58753 46.6293 5.98836 46.711 6.98496C47.1323 6.21964 46.745 5.90745 46.3133 5.94314C46.5769 5.17938 46.1889 5.59202 46.125 4.95716C46.3968 4.57394 47.3296 4.89339 46.8954 3.87049ZM66.7709 5.27758C66.4797 5.32683 66.0248 4.89028 65.8255 5.53483C65.7094 5.91036 66.1653 6.20115 65.8509 6.79087C66.1346 6.73338 66.1993 6.50301 66.1508 5.98617C66.2155 5.92411 66.281 5.86358 66.3456 5.80307C66.3755 5.90391 66.4062 6.00342 66.4361 6.10426C66.47 5.89161 66.5042 5.68065 66.5373 5.468C66.606 5.50988 66.6755 5.55182 66.7442 5.59525C66.7522 5.48833 66.766 5.39527 66.7709 5.27758ZM18.4309 6.7689C18.5117 6.76269 18.5918 6.75652 18.6726 6.74876C18.6637 6.62288 18.6531 6.4918 18.6429 6.36243C18.6356 6.2602 18.6282 6.15797 18.6209 6.05574C18.6678 6.42098 19.0529 7.02804 19.2151 6.63799C19.2967 6.44231 19.1111 5.74764 19.4568 5.62638C19.2062 5.66211 18.9741 5.75691 18.7308 5.81589C18.7526 5.60942 18.7736 5.40074 18.7954 5.19427C18.7953 5.19397 18.7951 5.19366 18.795 5.19336C18.7142 5.1468 18.6324 5.09802 18.5515 5.05146C18.5111 5.62429 18.4713 6.19607 18.4309 6.7689ZM76.6983 5.31695C76.4226 5.72212 76.3303 5.93253 76.4604 6.58764C76.4607 6.58794 76.461 6.58825 76.4613 6.58855C76.564 6.29831 76.6667 6.00817 76.7694 5.71793C76.7459 5.58442 76.7225 5.45045 76.6983 5.31695ZM34.5334 5.1604C33.9472 7.64879 35.2674 6.12337 35.016 5.27575C35.0047 5.23694 34.5884 5.43517 34.5334 5.1604ZM56.0455 6.49243C56.2064 6.47225 56.3676 6.45402 56.5294 6.43384C56.4922 6.12802 56.4541 5.82326 56.4169 5.51744C56.2932 5.84189 56.1692 6.16798 56.0455 6.49243ZM105.249 4.75393C105.08 4.07087 104.645 3.8234 104.432 4.56625C104.544 4.65319 104.656 4.74023 104.767 4.82717C104.556 4.91251 104.348 5.00646 104.135 5.08716C104.124 6.03878 104.369 5.4867 104.738 5.74906C104.795 5.79136 105.16 6.97259 105.286 6.08229C105.311 5.8993 104.923 5.77487 105.193 5.24279C105.075 5.20092 104.973 5.21021 104.861 5.18695C104.853 4.9603 104.845 4.7334 104.836 4.50675C104.974 4.58881 105.111 4.67186 105.249 4.75393ZM65.0758 5.35174C64.6758 5.29922 64.6264 5.67945 64.5432 6.35144C64.7291 6.27538 64.9152 6.20047 65.1012 6.1244C65.0923 5.86738 65.0846 5.6103 65.0758 5.35174ZM101.674 4.53604C101.455 4.42613 101.549 4.9731 101.461 5.07709C101.128 5.46823 100.901 5.07731 100.572 5.32244C100.593 5.21688 100.614 5.11821 100.635 5.01575C100.634 5.01575 100.634 5.01575 100.634 5.01575C99.0756 4.55475 99.894 5.79523 100.826 5.59342C100.848 5.79679 100.869 6.00041 100.891 6.20222C101.308 5.84674 101.693 5.50469 101.674 4.53604ZM39.7417 5.07526C39.7239 4.94797 39.8751 4.13902 39.5913 4.51773C39.3666 5.69883 39.7351 5.11261 39.8274 5.56687C39.7506 5.6802 39.672 5.79045 39.596 5.90377C40.0553 6.23754 40.1224 5.9567 39.955 5.09357C39.943 5.03556 39.7595 5.20215 39.7417 5.07526ZM36.7233 4.49301C36.6602 6.23324 37.2398 5.45071 37.2188 4.91047C37.1388 4.88894 37.0766 5.18358 36.9917 5.05329C36.906 4.92291 36.8841 4.51642 36.7233 4.49301ZM53.3295 4.91871C53.3126 4.91095 53.142 4.17956 53.1589 4.7521C53.3699 6.10733 53.7952 5.23501 53.7208 4.76308C53.5801 4.78642 53.4863 4.98978 53.3295 4.91688C53.3295 4.91749 53.3295 4.9181 53.3295 4.91871ZM107.887 4.34379C107.879 4.29524 107.453 4.00126 107.398 4.27421C107.353 4.58153 107.331 4.91089 107.297 5.22906C107.531 4.93411 108.006 5.15879 107.886 4.34379C107.886 4.34379 107.887 4.34379 107.887 4.34379Z" fill="#DF175F"/>
</svg>
