<svg width="78" height="11" viewBox="0 0 78 11" fill="none" xmlns="http://www.w3.org/2000/svg">
<path d="M2.40098 1.13395C1.73862 0.636381 0.798317 0.769974 0.300752 1.43233C-0.196813 2.09469 -0.0632198 3.035 0.59914 3.53256L1.50006 2.33325L2.40098 1.13395ZM1.58001 2.39332L2.62869 1.3208C2.58223 1.27538 2.53288 1.23303 2.48094 1.19401L1.58001 2.39332ZM6.62541 6.61453L5.8488 7.89784L6.62541 6.61453ZM20.5513 1.79415L21.0828 3.19684L20.5513 1.79415ZM33.9459 5.70533L32.7178 4.84413L33.9459 5.70533ZM37.158 3.17166L36.6445 1.76231L37.158 3.17166ZM44.0773 6.47607L42.8724 7.36955L44.0773 6.47607ZM57.8823 5.73536L56.8164 6.79074L57.8823 5.73536ZM64.1375 7.05178L63.026 6.04449L64.1375 7.05178ZM67.0793 3.66784L68.2311 4.62884L67.0793 3.66784ZM74.0141 4.92412L72.9181 5.94814L74.0141 4.92412ZM76.1796 8.64642L77.1752 9.76836C77.4907 9.48836 77.6737 9.08845 77.6794 8.66664L76.1796 8.64642ZM76.1813 8.51435L77.0596 7.29835C76.6059 6.97066 76.0075 6.92281 75.5075 7.17423C75.0075 7.42565 74.689 7.93452 74.6815 8.49414L76.1813 8.51435ZM75.3841 9.78891C76.0557 10.274 76.9934 10.1227 77.4784 9.45116C77.9635 8.77958 77.8122 7.84195 77.1407 7.3569L76.2624 8.5729L75.3841 9.78891ZM1.50006 2.33325L0.59914 3.53256L0.679094 3.59262L1.58001 2.39332L2.48094 1.19401L2.40098 1.13395L1.50006 2.33325ZM1.58001 2.39332L0.531343 3.46583C2.64056 5.52816 4.42229 7.03457 5.8488 7.89784L6.62541 6.61453L7.40201 5.33122C6.28066 4.65262 4.6988 3.3449 2.62869 1.3208L1.58001 2.39332ZM6.62541 6.61453L5.8488 7.89784C7.18264 8.70503 8.52762 9.39134 9.88375 9.95408L10.4586 8.56862L11.0335 7.18316C9.82655 6.68231 8.61603 6.0659 7.40201 5.33122L6.62541 6.61453ZM10.4586 8.56862L9.88375 9.95408C10.7603 10.3178 11.6874 10.445 12.6169 10.233C13.5389 10.0227 14.3282 9.50978 14.9916 8.82313L13.9129 7.78085L12.8342 6.73856C12.4764 7.10889 12.1793 7.25574 11.9499 7.30807C11.728 7.35867 11.4386 7.35123 11.0335 7.18316L10.4586 8.56862ZM13.9129 7.78085L14.9916 8.82313C16.0444 7.73352 17.0643 6.57909 18.0514 5.3603L16.8857 4.41623L15.7201 3.47217C14.7859 4.62558 13.8239 5.71422 12.8342 6.73856L13.9129 7.78085ZM16.8857 4.41623L18.0514 5.3603C18.8382 4.38876 19.8378 3.66857 21.0828 3.19684L20.5513 1.79415L20.0198 0.391468C18.2986 1.04364 16.8545 2.07151 15.7201 3.47217L16.8857 4.41623ZM20.5513 1.79415L21.0828 3.19684C21.61 2.99709 22.0427 2.96495 22.4127 3.03152C22.7841 3.09834 23.1895 3.28216 23.6333 3.6628L24.6099 2.52427L25.5864 1.38573C24.8076 0.717678 23.9253 0.255467 22.9439 0.0789162C21.961 -0.0978869 20.9758 0.0292617 20.0198 0.391468L20.5513 1.79415ZM24.6099 2.52427L23.6333 3.6628C24.7535 4.62367 25.6657 5.66561 26.3818 6.78647L27.6459 5.97888L28.9099 5.17128C28.0232 3.78338 26.9114 2.52225 25.5864 1.38573L24.6099 2.52427ZM27.6459 5.97888L26.3818 6.78647C27.4226 8.41553 28.9514 9.35706 30.8819 9.19307L30.7549 7.69845L30.628 6.20383C30.0159 6.25583 29.472 6.05098 28.9099 5.17128L27.6459 5.97888ZM30.7549 7.69845L30.8819 9.19307C32.6727 9.04094 34.1107 8.08291 35.174 6.56654L33.9459 5.70533L32.7178 4.84413C32.069 5.76925 31.3797 6.13997 30.628 6.20383L30.7549 7.69845ZM33.9459 5.70533L35.174 6.56654C35.8703 5.57367 36.701 4.93467 37.6715 4.58102L37.158 3.17166L36.6445 1.76231C35.0443 2.34539 33.7336 3.39551 32.7178 4.84413L33.9459 5.70533ZM37.158 3.17166L37.6715 4.58102C38.4921 4.28204 39.2787 4.35191 40.1625 4.89852L40.9515 3.62278L41.7405 2.34704C40.1371 1.35543 38.3947 1.12456 36.6445 1.76231L37.158 3.17166ZM40.9515 3.62278L40.1625 4.89852C41.2506 5.57142 42.1495 6.39466 42.8724 7.36955L44.0773 6.47607L45.2822 5.58259C44.3246 4.29132 43.1397 3.21236 41.7405 2.34704L40.9515 3.62278ZM44.0773 6.47607L42.8724 7.36955C43.9988 8.88841 45.569 9.66024 47.4466 9.47717L47.301 7.98425L47.1555 6.49133C46.4153 6.5635 45.8363 6.32988 45.2822 5.58259L44.0773 6.47607ZM47.301 7.98425L47.4466 9.47717C49.2223 9.30403 50.6989 8.39897 51.853 6.94791L50.679 6.0142L49.5051 5.08049C48.773 6.00091 47.9976 6.40922 47.1555 6.49133L47.301 7.98425ZM50.679 6.0142L51.853 6.94791C52.7154 5.86359 53.4037 5.39299 53.8847 5.24002L53.4301 3.81057L52.9755 2.38112C51.6746 2.79484 50.5288 3.79332 49.5051 5.08049L50.679 6.0142ZM53.4301 3.81057L53.8847 5.24002C54.2364 5.12816 54.4893 5.08941 54.6589 5.08547C54.7412 5.08357 54.7964 5.09004 54.8296 5.09647C54.8461 5.09965 54.8572 5.10282 54.8638 5.105C54.8703 5.10715 54.8731 5.10855 54.8732 5.10857L55.5337 3.76183L56.1942 2.41509C55.1705 1.91302 54.0114 2.05166 52.9755 2.38112L53.4301 3.81057ZM55.5337 3.76183L54.8732 5.10857C55.1274 5.23326 55.748 5.71163 56.8164 6.79074L57.8823 5.73536L58.9483 4.67999C57.9081 3.62942 56.9629 2.7921 56.1942 2.41509L55.5337 3.76183ZM57.8823 5.73536L56.8164 6.79074C57.968 7.9538 59.1809 8.84347 60.4633 9.39371L61.0547 8.01525L61.6462 6.63678C60.8073 6.27685 59.9053 5.6466 58.9483 4.67999L57.8823 5.73536ZM61.0547 8.01525L60.4633 9.39371C61.2968 9.75138 62.1873 9.82276 63.0683 9.5474C63.9157 9.28257 64.6367 8.73462 65.2489 8.05907L64.1375 7.05178L63.026 6.04449C62.6437 6.46634 62.3536 6.62767 62.1734 6.68399C62.0269 6.72978 61.8732 6.73421 61.6462 6.63678L61.0547 8.01525ZM64.1375 7.05178L65.2489 8.05907C66.2575 6.94624 67.2515 5.80281 68.2311 4.62884L67.0793 3.66784L65.9276 2.70684C64.9738 3.85 64.0066 4.96253 63.026 6.04449L64.1375 7.05178ZM67.0793 3.66784L68.2311 4.62884C68.5735 4.21842 68.8676 4.0476 69.0962 3.97959C69.3164 3.91409 69.6105 3.90332 70.036 4.05376L70.536 2.63957L71.0361 1.22538C70.1238 0.902773 69.1729 0.826852 68.2408 1.10412C67.3172 1.37886 66.5518 1.9587 65.9276 2.70684L67.0793 3.66784ZM70.536 2.63957L70.036 4.05376C71.1437 4.44544 72.0994 5.07186 72.9181 5.94814L74.0141 4.92412L75.1102 3.9001C73.967 2.67641 72.604 1.77979 71.0361 1.22538L70.536 2.63957ZM74.0141 4.92412L72.9181 5.94814C73.8541 6.95001 74.2401 7.62673 74.3449 8.0075L75.7911 7.60952L77.2374 7.21155C76.9347 6.11176 76.1361 4.99821 75.1102 3.9001L74.0141 4.92412ZM75.7911 7.60952L74.3449 8.0075C74.4488 8.3852 74.5467 8.71085 74.6363 8.95014C74.674 9.05066 74.7443 9.23081 74.8509 9.40207C74.887 9.46006 75.0345 9.70011 75.318 9.89083C75.4781 9.99852 75.7687 10.149 76.1609 10.151C76.5878 10.1531 76.9381 9.97878 77.1752 9.76836L76.1796 8.64642L75.1839 7.52449C75.4141 7.3202 75.7569 7.14895 76.1757 7.15101C76.5599 7.1529 76.8419 7.3003 76.9927 7.40178C77.2577 7.58009 77.3845 7.79539 77.3975 7.81631C77.458 7.91341 77.4728 7.97008 77.4457 7.89778C77.4059 7.79143 77.3372 7.57413 77.2374 7.21155L75.7911 7.60952ZM76.1796 8.64642L77.6794 8.66664L77.6812 8.53457L76.1813 8.51435L74.6815 8.49414L74.6797 8.62621L76.1796 8.64642ZM76.1813 8.51435L75.3031 9.73036L75.3841 9.78891L76.2624 8.5729L77.1407 7.3569L77.0596 7.29835L76.1813 8.51435Z" fill="#DF175F"/>
</svg>
