<svg width="393" height="67" viewBox="0 0 393 67" fill="none" xmlns="http://www.w3.org/2000/svg">
<path d="M26.2915 34.8886C26.4945 34.6055 27.3206 33.6391 27.6262 33.2411C27.4712 33.7865 25.5955 35.8755 26.2915 34.8886ZM72.2235 23.0044C71.8603 22.7215 71.4908 22.4338 71.114 22.1427C72.0601 23.1061 73.2979 24.2885 74.0522 25.0928C74.1758 25.225 73.7323 25.0074 74.0344 25.3112C74.0917 25.3688 74.1409 25.4075 74.1864 25.4354C74.354 25.528 74.4718 25.4482 74.7936 25.7221C75.1718 26.0792 77.4128 28.1182 78.4672 28.976C78.9456 29.3702 79.4479 29.7883 79.9704 30.2436C81.3539 31.4483 83.2892 32.9553 85.1571 34.8987C85.4551 35.2229 86.825 36.2822 88.1323 37.259C84.6715 34.9075 87.8678 37.4676 89.056 38.2311C89.2536 38.3654 89.3721 38.1359 91.2511 39.4732C91.8054 39.8728 92.5076 40.4131 93.3775 41.1491C95.6812 43.1258 93.3964 41.9774 97.0286 44.6377C94.99 42.4951 96.7506 44.0025 98.2556 45.1166C98.5387 45.3222 98.8273 45.5267 99.1125 45.7223C99.3975 45.9477 101.827 47.5505 103.653 48.6624C103.661 48.6673 103.685 48.6804 103.717 48.6956C103.82 48.7474 104.291 48.7371 104.915 48.9481C105.347 49.0976 105.665 49.315 106.597 49.6341C107.303 49.8802 108.133 50.1817 109.091 50.6364C109.235 50.7511 109.881 50.7835 113.09 51.4313C113.521 51.5424 114.377 51.645 115.293 51.6559C113.724 52.163 116.539 51.888 116.712 51.8537C117.394 51.9797 114.352 52.1142 115.549 52.1761C117.141 52.1575 119.358 51.8088 120.187 51.5068C120.081 51.5269 119.99 51.5203 120.026 51.473C120.046 51.4309 120.186 51.341 120.139 51.3159C120.791 50.9707 121.697 50.4509 121.995 50.3911C121.874 50.3004 122.334 50.0492 123.036 49.6212C123.781 49.1947 124.613 48.5181 126.829 47.0487C128.133 46.3337 129.712 44.9369 130.172 44.4032C130.279 44.277 129.908 44.5453 129.962 44.4256C130.088 44.2661 130.227 43.9605 132.792 41.7359C132.802 41.7277 132.813 41.7194 132.824 41.7108C133.11 41.4766 133.1 41.6707 133.25 41.5187C133.34 41.4288 133.639 40.5438 134.587 39.9384C134.759 39.8299 134.449 40.2752 134.577 40.2454C134.744 40.1919 135.119 39.8164 137.507 37.4214C136.783 37.9177 137.144 37.4292 138.262 36.3819C139.261 35.412 143.057 31.6096 144.729 30.3589C144.841 30.2715 144.938 30.1964 145.017 30.1361C144.912 30.2005 144.808 30.2647 144.703 30.3284C144.438 30.502 144.177 30.676 143.92 30.8499C144.198 30.6362 144.443 30.4461 144.659 30.2765C145.613 29.5411 145.775 29.255 146.053 29.0241C147.354 27.941 149.273 26.4746 150.663 25.3466C150.691 25.324 150.718 25.3016 150.745 25.2794C152.171 24.1002 151.999 23.8823 153.699 22.6051C153.273 22.8811 152.846 23.1555 152.417 23.4295C153.561 22.5043 154.68 21.5762 155.804 20.6213C153.468 23.1245 156.372 20.1604 156.574 19.9632C156.892 19.6668 156.529 20.1845 157.046 19.71C157.053 19.7039 157.06 19.6977 157.067 19.6914C157.138 19.6305 156.937 19.5899 158.017 18.6723C160.256 16.8441 159.985 17.3343 160.871 16.666C160.937 16.617 160.641 16.6714 162.015 15.6323C165.822 12.6272 162.171 15.6699 161.896 15.8645C161.793 15.9545 162.196 15.8354 162.146 16.0129C162.081 16.2109 161.659 16.5867 159.45 18.1405C160.929 17.0897 161.172 17.2306 161.334 17.1147C161.518 16.9881 163.623 15.409 163.668 15.3482C164.517 14.5842 163.628 15.0699 163.785 14.9106C163.831 14.8632 164.172 14.6276 164.548 14.3223C165.715 13.3414 167.294 12.2462 167.609 11.6776C169.318 11.1447 167.25 12.2118 164.641 14.4332C164.551 14.514 164.458 14.5959 164.363 14.6791C164.303 14.7672 164.468 14.6741 164.706 14.5094C165.532 13.8658 166.974 12.8949 167.073 12.8351C170.828 10.3949 168.533 11.4563 169.217 10.7374C169.568 10.3777 171.086 9.77702 169.625 10.2534C172.679 8.41113 170.909 9.68129 171.128 9.58463C171.446 9.44706 172.424 8.76276 172.557 8.69912C172.752 8.60597 172.164 9.08695 172.92 8.68923C173.043 8.62333 174.12 7.75487 172.552 8.5706C173.154 8.22558 173.55 7.97977 173.839 7.79794C174.637 7.30215 174.702 7.25129 175.386 7.13972C176.712 5.65583 176.766 6.81666 177.433 6.50045C179.237 5.67855 178.51 5.49301 178.59 5.4206C178.894 5.17551 180.46 4.42452 182.091 3.78208C184.001 3.00708 185.932 2.61037 186.638 2.43606C186.292 2.75418 183.921 3.17479 182.129 3.87399C181.523 4.09307 181.013 4.29409 180.779 4.42071C179.211 5.28735 181.012 4.49419 182.232 4.12613C183.197 3.81393 183.853 3.70947 182.968 4.21288C183.951 3.70873 184.97 3.28336 185.946 2.93151C186.892 2.87463 186.712 3.02978 186.914 3.04445C187.09 3.07251 187.755 2.9204 189.791 2.59998C190.099 2.43204 189.408 2.52669 188.652 2.655C187.901 2.78031 187.083 2.95676 187.472 2.78395C187.98 2.55673 190.387 2.21138 190.383 2.15451C190.451 2.06508 188.293 2.44575 188.607 2.28973C188.925 2.13496 190.437 1.91959 191.521 1.80844C193.588 1.6126 195.153 1.6086 191.548 2.02218C191.429 2.04057 191.305 2.05958 191.168 2.07992C191.303 2.06291 191.428 2.05096 191.55 2.04249C193.207 1.91979 194.236 2.24184 196.024 2.17272C196.673 2.1547 195.194 1.88575 194.919 1.73168C194.779 1.6512 194.914 1.55907 195.793 1.5387C196.647 1.55458 198.414 1.49385 201.414 2.56193C201.5 2.71932 200.32 2.29067 199.06 2.02324C197.806 1.74164 196.573 1.62522 196.516 1.62958C196.342 1.64042 197.155 2.23736 197.298 2.28558C197.467 2.34883 199.317 2.47258 201.573 3.32144C203.864 4.17582 205.731 5.46373 206.702 6.0671C207.512 6.58177 208.203 7.06473 208.534 7.36226C208.151 6.62695 213.795 11.092 214.26 11.5041C214.425 11.6096 213.99 10.9992 214.162 11.1178C214.248 11.178 214.345 11.2509 214.452 11.3352C215.12 11.8819 217.155 13.6361 218.451 14.6082C219.451 15.3612 219.763 15.5349 219.875 15.5611C219.949 15.5886 219.956 15.5709 219.995 15.6026C220.89 16.3545 220.105 15.8397 220.641 16.3014C221.049 16.6334 222.551 18.1328 223.511 19.4095C224.505 20.7012 225.102 21.5467 225.175 21.6117C225.214 21.6511 224.978 21.0349 225.516 21.6853C225.564 21.741 225.524 21.798 225.708 22.0969C225.929 22.4305 226.36 22.9891 227.302 24.1054C229.835 27.1527 225.835 21.8127 227.026 22.956C228.309 25.0825 228.542 24.888 228.954 25.4697C229.052 25.6156 229.512 26.4282 230.194 27.5853C230.415 27.979 230.682 28.4144 230.987 28.8473C230.686 28.4432 230.39 28.0415 230.103 27.646C229.566 26.8868 229.029 26.1911 228.501 25.5336C228.877 26.0686 229.449 26.8426 230.022 27.7001C230.516 28.4373 231.046 29.1933 231.328 29.6467C231.583 30.0568 231.167 29.86 231.782 30.7179C231.919 30.9015 232.862 31.3002 231.088 29.1984C231.123 28.9071 231.761 30.0454 232.163 30.5122C232.224 30.5826 232.7 30.6879 232.993 31.4434C233.057 31.6025 231.565 30.787 233.576 33.1137C233.836 33.401 234.182 33.7555 234.647 34.1912C234.759 34.2963 234.525 33.808 234.637 33.909C234.704 33.9739 235.444 34.9604 235.553 35.0597C235.658 35.157 235.371 34.6071 235.499 34.7207C236.15 35.2983 236.514 36.5261 235.371 35.109C235.705 35.6116 236.057 36.122 236.421 36.6386C236.276 35.8758 237.145 37.307 237.759 37.9781C237.95 38.1877 238.128 38.3812 238.292 38.5591C241.318 41.7606 239.279 39.1662 239.978 39.7476C241.179 40.7245 239.88 40.3285 241.613 41.8535C241.782 41.9886 240.023 39.8073 243.724 43.8035C243.148 43.2421 242.576 42.6757 242.01 42.107C242.056 42.7062 244.065 44.1604 244.204 44.2849C244.942 44.9812 245.081 45.1386 245.276 45.336C245.291 45.3543 245.31 45.3716 245.385 45.4153C245.466 45.4607 245.584 45.5309 245.982 45.714C246.114 45.7746 246.382 46.0371 246.825 46.2054C247.815 46.5758 247.101 46.2175 246.433 45.8337C245.738 45.4317 245.5 45.1722 245.559 45.1241C245.587 45.0849 245.701 45.2497 246.65 45.7547C247.513 46.21 249.335 47.0244 249.696 47.242C249.705 47.2472 249.711 47.2511 249.714 47.2537C249.845 47.3609 249.799 47.3653 249.66 47.3151C248.728 46.9107 247.04 46.1307 247.442 46.4763C247.515 46.5402 248.094 46.7864 249.569 47.4976C250.569 47.9986 251.956 48.5078 252.919 48.6816C253.709 48.833 255.203 48.9521 255.677 49.0051C257.509 49.2047 258.343 49.6874 258.351 49.1168C258.866 49.6825 259.308 49.2843 259.526 49.2802C260.559 49.2622 261.107 49.2092 261.467 49.1636C261.532 49.1578 261.56 49.1508 261.627 49.1229C261.7 49.0884 261.781 49.0599 262.169 48.8215C262.449 48.6482 262.918 48.5474 263.065 48.4166C263.155 48.3361 262.854 48.3152 263.328 47.9345C263.452 47.8357 263.706 47.6592 264.091 47.4099C265.052 46.8521 267.607 44.8434 267.941 44.6501C268.277 44.4984 266.383 46.0495 266.829 45.8839C268.052 44.8825 269.273 43.6982 270.923 42.3668C271.06 42.2573 271.195 42.1511 271.328 42.0475C272.074 41.4771 271.764 41.8669 272.074 41.6319C272.282 41.4767 274.264 39.8463 274.122 39.8887C273.983 39.9562 272.702 40.8726 270.866 42.2958C268.996 43.8037 267.766 44.8908 268.561 44.0419C268.849 43.7326 270.311 42.8364 269.9 42.7588C270.16 42.5439 270.428 42.3247 270.709 42.1016C274.484 39.3022 276.489 37.6955 279.33 34.9371C281.987 32.3693 284.68 30.0965 287.202 27.934C284.953 30.1394 282.154 32.4511 279.448 35.0567C278.57 35.9001 277.711 36.702 276.873 37.4708C276.451 37.8697 275.007 39.0626 275.284 39.0391C276.615 37.9552 278.074 36.5896 279.535 35.1448C281.231 33.4708 282.917 31.9608 284.404 30.7173C284.499 30.6379 284.257 31.0504 284.62 30.7611C285.304 30.2116 287.225 28.2219 287.589 27.9832C287.662 27.9393 286.63 29.1018 287.065 28.8866C288.119 28.3663 287.967 27.6859 288.546 27.0819C288.591 27.036 288.64 26.99 288.692 26.944C289.492 26.1939 293.955 23.0222 294.52 22.16C294.869 21.6797 294.28 22.1921 293.482 22.84C292.693 23.4823 291.711 24.2606 291.805 24.0618C292.986 22.9712 294.167 21.965 294.991 21.1676C296.609 19.585 298.188 18.2343 299.607 16.919C299.652 16.877 299.156 17.1288 299.72 16.587C300.025 16.2938 300.273 16.0853 300.487 15.922C301.115 15.4243 301.483 15.2601 301.924 14.9272C302.675 14.3469 304.67 12.811 304.864 12.7402C304.902 12.724 304.684 13.1586 304.629 13.2084C303.885 13.8901 303.354 13.9534 303.276 14.0104C302.954 14.2457 302.691 14.5809 302.376 14.8254C301.854 15.2344 301.501 15.3924 300.762 16.0414C300.727 16.0724 300.697 16.1 300.672 16.1247C300.417 16.379 300.819 16.2277 300.474 16.5318C300.34 16.6478 298.602 17.6661 298.752 18.1103C298.764 18.147 299.617 17.4181 300.861 16.3326C302.725 14.6719 305.189 13.0739 306.223 12.097C311.046 8.13618 313.376 7.62551 313.991 7.02445C312.87 7.62357 311.721 8.18757 310.351 8.92362C312.862 7.62913 314.884 6.15655 315.631 6.04577C315.731 6.02356 315.807 6.02465 315.857 6.05143C318.854 4.24288 321.666 3.01509 324.607 1.87282C329.105 0.249622 332.387 0.640978 334.64 0.311097C340.805 -0.597342 347.514 2.23121 351.037 3.89944C351.173 3.96095 351.285 4.01408 351.378 4.06086C352.794 4.78104 352.137 4.61969 355.171 6.24955C354.399 5.66191 353.552 5.08478 352.665 4.55829C354.021 5.12545 357.827 7.71243 359.635 9.10482C360.742 9.90941 361.523 10.5567 361.837 10.7848C361.957 10.8761 362.369 10.8141 363.758 11.9822C364.959 12.9984 364.968 13.3033 365.529 13.8422C365.995 14.2901 366.557 14.6822 366.688 14.8035C366.785 14.8953 366.746 15.0311 366.968 15.2444C366.976 15.2511 366.983 15.2578 366.991 15.2647C368.05 16.2281 367.406 15.1901 368.204 16.4538C367.931 16.2343 367.658 16.0225 367.383 15.8156C368.678 16.9618 370.209 18.7753 368.307 17.095C367.973 16.8148 368.336 16.9673 368.096 16.7519C367.592 16.3049 367.125 15.9189 366.699 15.5813C362.336 11.9363 364.313 13.8215 366.608 15.695C367.619 16.4913 368.651 17.3985 369.424 18.109C369.765 18.5686 371.065 19.9934 372.034 21.1856C373.022 22.3941 373.691 23.1063 373.725 23.1615C373.808 23.3275 373.24 22.9596 373.74 23.6699C373.742 23.6733 373.747 23.6786 373.753 23.6855C374.01 23.9244 375.643 25.6805 376.571 27.071C377.519 28.4473 378.022 29.3267 377.212 28.3163C376.957 27.9291 374.506 24.5372 373.637 23.8244C374.99 25.5288 377.56 28.8003 378.261 29.677C378.408 29.8598 378.513 29.9936 378.553 30.0584C379.056 30.8553 378.54 30.2384 378.127 29.7664C377.765 29.3512 377.46 29.0223 377.972 29.8698C378.11 30.096 378.311 30.4095 378.593 30.8362C380.574 33.8197 378.907 30.8755 379.782 31.9579C380.276 32.5298 382.354 36.3197 382.616 36.0594C383.437 37.3672 382.799 36.6949 382.883 36.8657C382.915 36.9329 383.191 37.3745 383.529 37.9693C383.906 38.6288 384.488 39.5498 384.71 40.0004C384.754 40.0906 384.417 39.9303 384.457 40.0266C384.517 40.1953 385.93 42.3263 386.017 42.4283C386.063 42.4784 385.871 41.8506 386.048 42.0459C386.193 42.2058 386.954 43.4076 387.429 44.1749L386.763 43.3039C387.079 43.6314 387.293 43.8747 387.341 43.9083C387.416 43.9619 387.187 43.6632 386.814 43.2553L387.489 44.1383C387.03 43.3328 386.28 42.1387 386.596 42.3755C386.874 42.8443 387.249 43.4208 387.652 44.0397L386.952 43.1244C388.187 44.3552 389.125 45.6945 389.6 46.3025C389.436 46.0775 388.369 44.4543 387.878 43.8788C388.104 43.9137 388.911 44.8354 389.381 45.586C389.861 46.336 390.096 46.8978 389.675 46.3897C390.195 47.049 389.972 46.5258 390.298 46.8715C390.391 46.9697 390.905 47.9394 391.032 48.087C391.06 48.1141 390.644 47.0716 390.798 47.2407C390.972 47.431 391.526 48.4868 391.903 49.2773C392.003 49.4679 392.216 50.0632 392.283 50.2679C392.406 50.6992 392.459 50.9724 392.466 51.0009C392.473 51.037 392.425 50.831 392.319 50.5653C392.101 49.9966 391.736 49.5067 391.658 49.4178C391.216 48.9509 391.479 49.1884 391.931 49.9993C392.149 50.4002 392.303 50.9348 392.302 51.0256C392.307 51.1368 392.22 50.7917 392.068 50.3302C392.003 50.1327 391.798 49.5586 391.701 49.3748C391.552 49.1361 391.42 48.9404 391.364 48.9044C391.353 48.8979 391.435 49.1454 391.537 49.4544C391.63 49.6327 391.83 50.1895 391.892 50.381C391.98 50.7568 392.023 51.0663 392.013 51.1093C392.004 51.1638 391.932 50.9269 391.778 50.6169C391.451 49.9451 391.015 49.541 391.017 49.5472C390.886 49.5255 391.257 49.9113 391.565 50.6241C391.707 50.9562 391.761 51.2235 391.745 51.176C391.731 51.1419 391.662 50.8285 391.553 50.4789C391.495 50.299 391.307 49.7756 391.219 49.608C391.077 49.3463 390.961 49.1706 390.937 49.2809C390.989 49.4121 391.039 49.5418 391.09 49.6708C391.175 49.834 391.358 50.3437 391.415 50.519C391.539 51.0185 391.58 51.3203 391.538 51.2047C391.502 51.108 391.302 50.5726 390.997 50.1706C391.239 50.5403 391.422 51.0678 391.44 51.2108C391.463 51.3692 391.401 51.0988 391.242 50.569C391.187 50.3995 391.011 49.9068 390.928 49.7491C390.027 47.9554 388.141 44.6654 387.072 43.9048C389.33 46.4744 390.256 48.9144 390.561 49.9265C390.638 50.0719 390.8 50.526 390.851 50.6822C391.011 51.5844 390.836 51.3651 390.713 51.4312C390.662 51.4421 390.625 51.4896 390.566 51.4247C390.508 51.3647 390.428 51.1576 390.302 50.8409C390.258 50.7034 390.114 50.3033 390.047 50.1753C389.827 49.8932 389.613 49.5739 389.598 49.6124C389.565 49.71 389.676 49.98 389.828 50.2813C389.891 50.402 390.027 50.7789 390.069 50.9085C390.161 51.2179 390.221 51.4717 390.247 51.5355C390.274 51.6073 390.259 51.4735 390.189 51.2843C390.035 50.8716 389.802 50.6015 389.794 50.5957C389.735 50.5487 389.708 50.5389 389.699 50.5466C389.699 50.5466 389.699 50.5466 389.699 50.5466C389.666 50.569 389.837 50.736 390.042 51.1774C390.137 51.3839 390.182 51.6009 390.162 51.578C390.143 51.5647 390.081 51.3075 389.964 50.9388C389.923 50.8127 389.792 50.4461 389.73 50.3287C389.428 49.79 389.124 49.2483 389.073 49.2023C388.886 49.0404 389.069 50.3113 388.983 50.3414C388.962 50.3245 387.992 48.6002 388.155 49.2665C388.254 49.6544 388.533 50.3126 388.748 50.8041C388.792 50.8884 388.886 51.1516 388.916 51.2422C389.095 51.9921 389.053 51.8772 389.046 51.8737C388.99 51.8094 389.055 52.1829 388.79 51.2786C388.762 51.1924 388.672 50.9416 388.63 50.8613C388.254 50.1941 387.704 49.2002 387.645 49.1649C387.609 49.1424 388.168 50.6472 388.135 50.7018C388.11 50.7607 387.491 49.7347 387.123 49.3723C386.856 49.1066 387.256 50.0752 387.154 49.9198C387.127 49.8177 385.692 47.2782 385.523 47.1739C385.373 47.0093 385.66 47.6698 385.571 47.6034C385.459 47.5084 384.925 46.6933 384.956 46.8276C385.102 46.9208 386.491 50.2554 386.303 50.2807C386.122 50.3362 384.775 46.9021 385.661 50.2828C385.669 50.3055 386.088 51.0047 386.092 51.0277C386.171 51.5378 384.846 49.3856 386.189 52.0426L386.185 52.0324C386.196 52.0704 386.207 52.1092 386.218 52.1497C386.206 52.11 386.194 52.0716 386.181 52.0335L386.185 52.0444C383.378 47.098 385.64 51.6303 384.921 51.0235C384.662 50.7666 383.526 48.9035 383.481 48.9357C383.45 49.2013 383.923 49.709 383.962 49.9607C383.996 50.0706 382.824 48.5889 382.952 49.02C383.041 49.1966 384.058 50.9291 384.077 51.0352C384.35 51.8218 383.778 50.979 383.788 51.1788C383.795 51.3018 384.355 52.4425 384.361 52.4824C384.366 52.5308 383.402 51.0862 383.17 50.8484C382.996 50.6492 383.37 51.5503 383.261 51.4041C382.628 50.4629 381.818 48.5543 382.433 50.5567C382.469 50.6758 382.873 51.3847 382.878 51.4154C382.978 51.9401 382.249 50.6028 382.006 50.4879C381.597 50.232 382.726 51.9039 381.741 50.5473C382.203 51.556 382.52 52.2344 383.171 53.5034L382.964 52.9644C382.969 52.9659 382.989 53.0384 383.057 53.3084C382.99 53.0449 382.968 52.9655 382.961 52.9651L383.168 53.5045C382.137 51.4914 381.395 50.6489 381.159 50.5721C380.933 50.5405 381.177 50.958 382.273 53.1873C381.559 51.7266 381.36 52.0962 381.148 51.7142C381.017 51.4192 380.322 49.8548 380.164 50.9005C380.137 50.996 380.805 51.8694 380.466 51.6719C379.181 49.6536 380.331 51.626 380.315 51.6992C380.171 51.7688 379.7 51.0416 379.18 50.5127C379.024 50.3381 378.6 49.8082 378.485 49.6045C377.262 47.6502 375.105 44.1414 374.454 42.8592C374.428 42.8129 374.405 42.7717 374.384 42.7361C373.604 41.4267 372.504 40.3637 372.311 40.0625C371.658 39.0605 372.344 39.7981 372.251 39.5392C372.179 39.2941 369.907 36.5334 369.796 36.3371C369.45 35.6932 370.032 36.1914 369.998 36.1229C369.931 35.985 369.791 35.7547 369.598 35.4526C368.575 33.7777 366.947 31.6752 366.401 31.1677C366.342 31.2546 367.595 32.7409 366.647 31.9549C366.361 31.7266 366.174 31.5462 366.05 31.3884C365.308 30.5379 365.526 30.2632 365.5 30.2133C363.034 27.3538 361.863 25.783 359.82 24.1854C357.131 22.0282 354.973 19.8989 352.955 18.4778C350.612 16.7973 348.881 15.5545 347.025 14.8307C346.739 14.7151 346.462 14.5992 346.194 14.4849C346.193 14.558 346.48 14.7288 346.975 14.9556C348.04 15.3958 350.537 16.851 350.666 17.0065C350.88 17.3394 348.783 15.8368 346.906 15.1248C344.402 14.0753 342.765 13.3003 342.348 13.1153C343.044 13.4504 343.779 13.8404 344.597 14.2746C342.947 13.9095 340.559 12.471 339.008 12.467C338.507 12.4479 339.434 12.7202 339.411 12.7335C338.839 12.7627 337.978 12.5875 338.657 12.4661C337.291 12.5296 337.509 12.3595 336.434 12.3943C336.38 12.4004 336.847 12.4983 336.008 12.638C336.008 12.6381 336.007 12.6383 336.006 12.6384C335.236 12.7749 331.989 12.982 331.763 13.1388C331.6 13.2022 333.075 13.6508 333.271 13.1574C336.932 13.1097 334.406 12.856 335.885 12.7291C335.951 12.7226 335.959 12.7435 336.02 12.7648C336.114 12.8442 336.423 12.8405 337.949 12.7998C337.705 13.0548 336.877 13.0369 336.057 13.0968C334.899 13.195 333.931 13.2008 333.637 13.2492C332.887 13.3619 334.224 13.4064 336.071 13.2276C336.888 13.1456 337.72 13.1252 338.02 12.978C337.704 13.344 338.257 13.0193 339.036 13.1546C339.89 13.3205 339.493 13.3665 339.96 13.47C341.27 13.8249 340.796 13.4089 341.894 14.0495C340.96 12.8871 343.982 14.7678 345.361 15.6246C343.234 14.7303 341.702 14.0857 340.322 13.7554C340.389 13.8142 340.457 13.8743 340.525 13.9346C340.164 13.8236 339.817 13.7317 339.477 13.6571C339.539 13.6314 339.602 13.6065 339.666 13.582C337.873 13.4779 337.506 13.3242 337.347 13.2958C336.947 13.2891 336.526 13.3063 336.085 13.3512C333.093 13.6447 330.579 13.6979 329.71 14.008C329.6 14.041 329.617 14.1279 329.386 14.2411C329.019 14.4003 328.402 14.6278 327.344 15.0066C326.458 15.3301 327.19 14.7951 326.232 15.2601C325.255 16.2835 325.121 15.908 324.774 16.0788C323.799 16.5748 323.34 17.0002 323.26 17.0467C323.084 17.1531 322.899 17.2668 322.714 17.3843C321.319 18.2701 319.529 19.2741 318.295 19.9835C318.267 20.0018 319.124 19.6999 318.132 20.2055C317.916 20.3158 315.69 21.0969 315.182 21.5165C314.377 22.2409 313.627 22.8486 312.995 23.4118C313.694 22.9166 314.46 22.3536 315.287 21.6273C315.301 21.6188 315.315 21.61 315.329 21.601C315.317 21.6078 315.304 21.6172 315.289 21.6287C314.531 22.3568 312.731 23.809 311.675 24.6765C310.588 25.5777 310.099 26.1282 310.586 25.8266C311.171 25.4681 312.895 23.63 313.447 23.7155C312.746 24.2318 311.074 25.4195 310.018 26.3854C308.248 28.0076 306.262 29.8328 304.95 31.1596C303.332 32.755 302.282 33.5794 302.02 33.7761C301.901 33.8593 302.485 33.1824 302.323 33.2979C302.177 33.4181 299.952 35.3109 299.664 35.481C299.473 35.5988 300.368 34.7478 300.263 34.772C300.13 34.8293 297.536 36.9285 297.606 37.1246C298.056 36.616 299.896 35.1628 299.055 36.0526C298.945 36.1676 298.281 36.5879 298.167 36.7179C297.019 37.9656 300.847 34.6672 301.665 33.9963C300.509 35.0975 299.015 36.2993 297.797 37.3722C295.745 39.1797 293.76 40.8076 292.21 42.3224C290.965 43.2547 293.779 40.6224 292.391 41.7102C289.545 43.9669 291.808 42.5023 291.734 42.5923C291.292 43.1387 289.574 44.1556 289.038 44.7863C288.844 45.0044 288.763 45.1714 288.855 45.2669C287.739 46.2245 288.044 45.8461 286.552 47.3364C286.783 47.1792 287.016 47.0181 287.245 46.8587C285.822 48.7427 281.206 51.3336 281.494 50.9898C282.184 50.2659 284.42 48.7665 284.572 48.6096C284.809 48.3785 285.166 47.3564 288.057 45.3116C288.854 44.0382 283.771 48.9396 285.953 46.5591C285.037 47.5427 280.801 50.8009 278.872 52.2004C277.964 52.9238 277.15 53.6652 276.903 53.9507C276.8 54.0692 277.607 53.8957 275.854 55.1502C275.009 55.7515 276.881 54.1286 276.462 54.3704C276.03 54.5818 274.348 56.2138 271.194 58.3096C269.887 59.097 267.2 61.3005 263.328 61.8562C257.505 62.549 253.159 62.0649 250.306 61.5766C250.093 61.5343 249.904 61.4935 249.742 61.4567C249.442 61.3868 249.58 61.2939 249.289 61.2228C248.367 61.0452 245.281 60.137 243.975 59.3836C245.282 60.116 244.717 59.9322 243.622 59.4323C242.942 59.1306 241.154 58.3349 240.396 57.9085C238.194 56.6644 238.386 56.4349 237.416 55.6658C237.044 55.3512 236.648 54.9981 236.244 54.5959C233.926 52.2767 230.588 49.3382 229.321 47.2631C229.264 47.3583 229.087 47.2329 228.832 46.9595C228.003 46.0771 226.237 43.4322 225.163 42.0712C224.699 41.4938 224.102 40.8098 223.67 40.3526C223.193 39.8667 222.934 39.7394 223.396 40.5528C223.445 40.6357 223.501 40.7279 223.564 40.8279C223.501 40.7423 223.438 40.6552 223.375 40.5684C222.027 38.7015 220.584 36.7899 219.262 34.8737C219.083 34.617 218.896 34.3574 218.704 34.0973C218.486 33.8047 218.898 34.1315 218.515 33.63C218.478 33.5842 218.326 33.605 217.976 33.1685C214.897 29.4499 216.538 31.0812 216.036 30.3068C215.972 30.2114 215.911 30.1211 215.852 30.0358C215.582 29.6514 215.387 29.3688 215.235 29.1577C215.441 29.4247 215.662 29.7065 215.9 29.9972C217.678 32.1245 219.202 34.0727 219.575 34.665C219.585 34.6794 219.594 34.6933 219.603 34.7065C219.599 34.691 219.594 34.6742 219.588 34.6562C219.49 34.0745 217.563 31.7758 215.981 29.9323C215.36 29.1855 214.934 28.6065 214.696 28.2533C214.663 28.203 214.922 28.2724 214.887 28.2224C214.886 28.2214 214.885 28.2203 214.885 28.2193C214.687 27.9431 214.011 27.0312 213.519 26.5096C213.018 25.9703 212.636 25.7147 212.744 25.9575C212.827 26.1073 213.509 26.8164 214.938 28.7684C214.526 28.2767 214.66 28.7718 214.586 28.6861C214.139 28.1619 213.552 27.3098 213.092 26.7164C212.628 26.1088 212.242 25.7013 212.011 25.5035C212.009 25.5016 212.006 25.4997 212.004 25.4979C211.842 25.3695 211.782 25.4697 211.754 25.4478C211.064 24.8817 211.568 24.8319 210.589 24.5486C209.841 23.6681 211.204 24.7007 212.082 25.3995C212.391 25.6418 212.648 25.8762 212.661 25.7496C212.665 25.7005 212.497 25.4927 212.208 25.2405C211.167 24.3093 208.785 22.823 206.37 20.905C204.802 19.6497 203.562 18.8616 203.494 18.9698C203.486 18.9194 203.399 18.7982 203.193 18.5863C202.835 18.1992 201.196 17.1111 200.211 16.56C199.946 16.4066 199.753 16.2981 199.65 16.2484C199.562 16.2071 199.419 16.5045 199.317 16.4435C199.189 16.372 198.295 15.7145 197.666 15.3469C197.028 14.9683 196.543 14.8303 196.154 14.8615C196.527 14.9738 196.805 15.1044 197.14 15.2957C196.179 14.9026 195.617 14.9766 195.488 14.9875C195.361 15.0184 195.712 15.0787 196.064 15.1871C196.099 15.1938 196.132 15.2122 196.165 15.2197C196.427 15.3053 196.668 15.4141 196.877 15.528C197.084 15.64 197.269 15.7602 197.269 15.7743C197.269 15.8027 197.017 15.6978 196.746 15.6146C196.47 15.5294 196.149 15.4512 195.698 15.3992C194.811 15.2852 193.471 15.3802 194.054 15.1726C194.134 15.1433 194.838 15.1248 195.258 15.1474C195.676 15.1676 195.921 15.1753 195.424 15.0276C195.299 14.9471 193.624 15.0864 193.485 15.1014C193.146 15.0626 194.017 14.8523 194.775 14.7431C195.542 14.6252 196.135 14.6188 195.984 14.4813C195.322 14.5918 194.269 14.5091 193.13 14.6943C193.051 14.7061 192.974 14.718 192.899 14.7302C192.214 14.8401 192.082 15.022 191.998 15.0356C190.811 15.2296 191.46 14.9739 191.071 15.0292C190.801 15.0519 188.903 15.7522 189.188 15.1949C187.996 15.5113 187.439 15.8022 187.077 15.9956C186.235 16.4322 186.41 16.408 187.134 16.1344C187.832 15.8621 189.319 15.4474 191.574 15.1719C190 15.5279 187.899 15.8805 187.191 16.2736C187.187 16.2753 187.183 16.277 187.18 16.2786C186.78 16.4608 187.082 16.5141 186.419 16.8352C185.641 17.2025 183.205 18.2999 180.904 19.6319C178.919 20.7662 177.097 21.7613 176.351 22.1919C177.404 21.4947 176.987 21.5277 176.163 22.0357C175.361 22.5372 176.166 22.335 176.023 22.4531C175.88 22.5585 173.907 23.7024 173.06 24.434C172.48 24.9128 172.024 25.2643 171.836 25.4215C172.318 25.0298 172.718 24.6838 173.03 24.3988C173.814 23.6743 173.656 23.678 172.892 24.2345C172.493 24.5502 171.989 24.9434 171.416 25.378C171.78 25.0319 172.151 24.672 172.522 24.2969C170.849 25.7931 167.614 27.6829 167.017 28.2975C166.911 28.3965 167.416 28.1999 167.357 28.2557C167.039 28.5413 166.302 29.0891 165.712 29.5766C165.032 30.1428 164.43 30.6334 164.393 30.6988C164.327 30.8152 165.438 30.0187 165.099 30.3985C165.029 30.4776 163.904 31.1833 162.945 32.0635C162.589 32.3899 162.904 32.3131 162.817 32.3981C162.087 33.1042 162.388 32.5371 160.992 33.7467C160.271 34.369 159.749 34.9565 158.981 35.6343C158.693 35.8915 158.362 36.1687 157.958 36.4765C158.39 36.1528 158.744 35.896 159.029 35.6934C160.862 34.3684 160.262 34.8736 159.123 35.8099C158.48 36.3367 157.627 37.0622 157.005 37.6372C156.716 37.9053 157.159 37.8669 155.28 39.323C158.355 36.1073 155.053 39.1308 153.467 40.5399C153.3 40.6887 153.158 40.8168 153.059 40.9043C153.01 40.9461 152.88 40.8242 152.451 41.2113C152.415 41.2454 152.548 41.2806 152.156 41.6582C148.35 45.4719 150.723 42.9871 149.901 43.6267C149.588 43.8708 148.245 45.422 147.151 46.4399C147.047 46.5404 146.956 46.6287 146.889 46.6909C146.785 46.7884 146.756 46.6429 146.34 47.0438C145.598 47.7653 144.955 48.6098 144.394 49.1865C144.318 49.2596 144.222 49.0984 143.101 50.2844C142.779 50.6209 142.427 51.047 142.961 50.6159C144.304 49.5332 145.972 47.5343 147.181 46.4739C147.839 45.89 148.324 45.4318 148.763 45.0623C149.61 44.3344 148.807 45.2635 147.325 46.6369C146.602 47.2995 145.617 48.3041 145.513 48.4061C145.432 48.4874 146.205 47.5807 145.335 48.4223C144.576 49.1477 143.442 50.8444 141.76 52.1997C141.754 52.2046 141.745 52.2112 141.733 52.2194C141.625 52.2649 140.758 52.7116 140.772 52.6813C140.79 52.6529 141.254 52.1826 141.49 51.9341C141.788 51.6487 141.963 51.451 141.842 51.5182C141.828 51.5264 141.661 51.673 141.43 51.8643C141.223 52.0299 140.89 52.3173 140.799 52.3502C140.629 52.4052 139.776 52.2117 139.576 52.3799C139.068 52.8089 139.496 52.626 139.172 52.9243C138.55 53.5438 135.561 55.9613 135.547 56.2275C136.078 55.8226 136.583 55.4091 137.063 54.9987C134.343 57.3657 135.522 56.4433 135.162 56.8131C134.761 57.1704 134.737 56.9761 133.901 57.4953C133.863 57.5158 133.821 57.541 133.773 57.5725C133.722 57.5974 133.088 58.0887 132.125 58.8754C131.189 59.642 130.074 60.4287 130.147 60.432C132.461 58.6431 131.682 59.4816 131.815 59.4083C132.214 59.1305 132.585 58.6422 133 58.3209C133.627 57.8363 133.859 57.6988 133.994 57.6323C134.351 57.4228 134.269 57.5274 134.055 57.7225C133.922 57.8943 133.498 58.3099 133.798 58.1244C133.909 58.0563 134.034 57.9242 134.124 57.8247C134.316 57.6632 134.473 57.5214 134.539 57.4781C135.01 57.1682 135.117 57.2987 135.406 57.063C136.068 56.5103 135.125 56.9335 135.171 56.8798C135.73 56.3041 137.968 54.5746 136.812 55.9398C137.683 55.3083 137.547 54.9873 138.218 54.5382C139.515 53.6534 137.804 55.2054 137.291 55.6995C136.209 56.7722 135.469 57.3408 134.32 58.1138C134.021 58.3041 133.564 58.6504 132.604 59.4225C131.705 60.1552 130.434 61.2143 129.902 61.5412C129.57 61.8294 126.054 63.0009 126.289 63.7668C125.936 63.8951 125.527 64.0045 125.083 64.1028C123.231 64.5873 121.852 64.5075 120.786 64.716C119.528 64.9368 119.971 65.1643 119.854 65.1955C119.674 65.2463 118.145 65.3914 117.628 65.4603C117.02 65.5485 117.336 65.6522 116.355 65.7375C113.881 65.8993 113.91 65.5132 113.66 65.4964C110.555 64.9979 111.844 65.5116 111.117 65.461C110.983 65.4437 110.522 65.3719 109.805 65.197C109.532 65.1164 108.863 65.0051 107.567 64.7714C106.3 64.5464 104.459 64.0538 102.998 63.3294C102.65 63.1571 102.002 62.9381 101.666 62.8548C102.176 62.9651 102.592 63.0547 102.893 63.1201C102.487 62.7268 101.332 62.675 101.427 62.3429C101.149 62.835 98.8555 61.681 97.8362 61.1656C97.4717 60.993 97.4596 61.0967 96.9845 60.8439C96.7874 60.7371 96.5615 60.6078 96.3127 60.4529C95.2101 59.7696 93.1456 58.4303 92.5496 58.0795C90.187 56.7334 94.498 59.8644 96.0384 60.8935C96.7175 61.3388 97.1817 61.577 97.3332 61.6587C97.0709 61.5259 96.6138 61.297 96.015 60.9311C94.3508 59.97 90.0237 57.3023 92.3659 59.0991C92.7898 59.4231 93.6865 59.692 93.9255 59.8285C95.5379 60.7515 94.1819 60.174 94.2947 60.2688C94.4928 60.4316 95.6091 60.8671 95.8455 61.0451C95.8982 61.0841 95.6406 61.0258 95.8356 61.2193C96.0594 61.3956 96.5683 61.7456 97.4701 62.177C97.1738 62.082 96.5779 61.8318 95.7592 61.342C94.3805 60.5567 91.566 58.6883 91.0694 58.3658C90.8733 58.2375 91.7167 59.2666 89.3249 57.3004C89.001 57.0304 88.6319 56.7071 88.229 56.3311C88.25 56.397 88.2713 56.4631 88.2929 56.5293C86.0859 54.7931 84.5753 53.4275 82.909 52.1541C83.1414 52.2226 84.1747 52.8154 82.9903 51.9249C82.3068 51.4197 82.6805 51.9632 82.6154 51.9196C82.5468 51.8739 82.3584 51.7329 82.0707 51.5178C80.9056 50.5125 78.5238 49.3743 74.2266 45.331C73.1092 44.1387 71.5233 42.8468 70.0122 41.5114C69.2679 40.8544 68.5178 40.2507 68.0948 39.908C67.3745 39.3456 64.8835 37.4446 64.6814 37.2346C64.4482 37.0273 64.0943 36.6999 63.6725 36.2845C62.2762 34.8993 60.35 32.8958 59.8838 32.4926C59.5117 32.1601 59.7407 32.605 59.425 32.2971C59.1333 32.0142 59.5503 32.184 59.4668 32.0968C59.2108 31.8299 58.2044 30.902 57.1894 30.1435C54.6812 28.2047 52.0586 26.2943 51.371 25.7986C51.9651 26.1113 56.8077 29.4685 56.8688 29.3842C56.8463 29.3477 55.7364 28.3229 55.4708 28.1929C55.159 27.7715 53.5992 27.1082 52.9905 26.5759C52.9261 26.5233 53.3371 26.5026 52.2091 25.6802C51.8755 25.4337 50.7816 24.9387 50.4292 24.6419C50.4652 24.6458 50.4782 24.6374 50.4754 24.6217C50.4896 24.6073 47.4531 23.8471 44.7348 23.7174C41.9271 23.5192 39.8834 23.9039 39.8195 24.0714C39.7871 24.0833 40.7285 24.0003 40.1238 24.2175C39.8797 24.3119 39.8031 24.3147 39.7516 24.2782C39.6316 24.2116 39.7516 23.9293 39.0709 24.1147C39.003 24.1313 38.1988 24.4152 37.2361 24.8643C36.2883 25.3 35.2611 25.8413 35.2033 25.8858C34.1347 26.7059 37.5948 25.1251 37.502 25.2373C37.4681 25.3072 34.6794 26.7214 34.5169 26.8018C34.3944 26.8425 36.6394 25.3033 33.8019 26.9065C34.1598 26.7675 34.5125 26.6325 34.8598 26.5024C34.3999 26.7686 34.0634 26.9311 33.8098 27.0322C33.534 27.1204 33.3825 27.0881 33.2342 27.1629C32.4988 27.5448 31.8674 28.3892 30.5004 28.9447C30.1371 29.0958 30.5265 28.5905 30.4813 28.6068C30.0201 28.7788 29.8781 29.477 29.215 29.6895C29.1784 29.706 29.9405 28.6407 28.5387 30.0988C28.447 30.2026 28.3482 30.3163 28.2413 30.4415C28.3556 30.3391 28.4697 30.2381 28.584 30.1382C28.6275 30.1042 28.6717 30.0699 28.7167 30.0355C28.6987 30.0662 28.6658 30.1133 28.623 30.1723C28.0934 30.8355 26.2821 33.169 25.9415 33.5792C24.9067 34.7978 25.6329 33.5467 24.5869 34.8712C25.0362 34.5529 24.5326 35.3322 23.7088 36.2772C23.1115 36.9644 22.4073 37.7151 22.3836 37.5355C22.2424 38.1759 19.8625 40.7659 19.0641 42.047C18.936 42.2414 18.7871 42.4885 18.6403 42.7514C18.0717 43.7513 17.4073 45.0115 17.2523 45.2443C17.0033 45.6186 16.8818 45.3849 16.4195 46.0578C16.3104 46.2145 15.5901 47.6283 14.5784 49.129C14.3883 49.4012 14.1912 49.6778 13.991 49.9432C13.7946 50.1996 13.14 50.6348 13.3399 50.0497C13.4718 49.6714 13.7399 49.2085 14.0215 48.7868C14.6165 47.8757 15.1663 47.0864 15.0372 47.0302C14.9171 46.9827 14.414 47.783 13.863 48.6894C13.4784 49.3191 13.1285 50.0229 12.9615 50.3204C11.424 53.2595 12.0098 51.4386 11.8894 51.4745C11.6064 51.6026 10.9869 53.3148 10.9705 53.3798C10.8002 53.6554 11.0575 52.3923 10.9686 52.3307C10.8775 52.2792 10.4606 52.9881 10.2483 53.3442C10.1317 53.5545 10.0593 53.6585 10.089 53.5013C10.0997 53.445 10.1149 53.3808 10.1339 53.3099C10.2919 52.6472 10.9881 51.3866 11.0248 51.2966C11.4524 49.9552 10.3539 51.5748 10.0263 52.0326C9.92 52.1677 10.0673 51.5286 10.006 51.6496C9.15342 53.3866 10.1496 52.3851 9.92111 53.2461C9.90152 53.324 9.87541 53.4126 9.84032 53.5184C9.46174 54.6651 9.62897 53.4787 9.66606 53.1696C9.66953 53.1294 9.67071 53.107 9.66736 53.1123C9.66437 53.1175 9.6575 53.1355 9.6475 53.164C9.53968 53.4728 9.13833 54.7806 9.01056 54.9776C8.97457 55.0316 9.12601 54.0774 9.29321 53.0577C9.42249 52.112 9.64772 51.1162 9.5213 51.1568C9.30699 51.7546 9.11933 52.3559 8.9616 52.9582C8.7828 53.6297 8.60957 54.2928 8.44932 54.9463C8.1762 54.9828 8.84848 53.2657 8.935 52.9502C8.93762 52.94 8.93947 52.9315 8.94047 52.9249C8.96057 52.7933 8.91965 52.8284 8.85579 52.9265C8.73267 53.1291 8.52886 53.5595 8.48758 53.5142C8.4599 53.4881 8.53976 52.9058 8.48401 52.8149C8.47673 52.8045 8.46754 52.8011 8.45599 52.8065C8.41644 52.8279 8.34722 52.9581 8.2321 53.273C8.08918 53.6723 7.99499 54.5793 7.44623 55.9724C8.63154 50.8207 7.5086 54.306 7.36899 54.4408C7.23826 54.5665 7.73074 52.0449 6.92423 55.0408C6.40564 55.0386 6.78368 54.9363 6.94065 54.0618C7.12297 53.0816 6.41553 54.9651 7.23473 52.4402C7.31283 52.2037 7.40912 51.9278 7.53081 51.6077C7.43829 51.6486 7.27457 51.9705 7.11037 52.4028C6.73898 53.3778 6.32914 54.8509 6.29103 54.9583C6.23606 55.0947 6.31114 54.3799 6.2066 54.6137C5.01449 57.3974 5.7304 55.4588 5.23936 56.2351C5.20904 56.2772 4.93176 57.3448 4.83765 57.6631C4.80423 57.7684 4.78616 57.7889 4.79674 57.6558C4.80627 57.5421 4.83627 57.3165 4.90573 56.9396C5.36537 54.5655 5.96435 53.1064 6.17367 52.1218C6.31631 51.4906 6.34423 51.0626 6.17144 50.717C5.97982 51.1137 5.80916 51.5351 5.66234 51.9684C4.91018 54.1363 4.56039 56.5278 4.46051 57.5963C4.44371 57.745 4.42892 57.8696 4.41436 57.9638C4.21559 59.3274 4.28716 57.8957 4.22261 58.055C4.19593 58.1119 4.0401 59.2926 4.02957 59.3068C3.76467 59.626 3.81418 58.7785 4.0537 57.5242C4.38714 55.7438 5.27159 53.3193 5.54056 52.2272C5.31499 52.6985 5.09098 53.1717 4.87086 53.6494C5.03591 53.0572 5.20678 52.4699 5.37966 51.8836C5.40589 51.7947 5.43258 51.7062 5.45981 51.6177C5.42611 51.7098 5.39483 51.797 5.36565 51.8794C4.66386 53.8745 4.98041 52.8555 5.13591 51.8105C5.1975 51.411 5.24916 51.0092 5.21518 50.7557C5.18341 50.5349 4.60604 52.7804 5.19811 50.1963C4.85553 51.0501 4.72693 51.3771 4.62337 51.6567C4.51589 51.9531 4.4469 52.1959 4.26138 53.0707C4.19842 53.0348 4.2985 52.4198 4.46939 51.6105C4.73706 50.3095 5.3445 48.5776 5.71007 47.7002C4.30732 50.5341 4.46733 51.0062 4.36398 51.5789C4.31725 52.0119 4.18165 52.5244 3.50667 54.4459C3.49481 55.3359 4.03069 53.1815 4.02222 53.3703C3.9781 54.0192 3.33914 55.4409 3.44939 57.3775C3.4506 57.3966 3.45344 57.4099 3.45761 57.4186C3.46545 57.4347 3.47792 57.4345 3.49319 57.4249C3.57143 57.3747 3.72463 57.0793 3.70375 57.4622C3.69609 57.617 3.66045 57.8859 3.59221 58.324C3.55662 58.5269 3.20767 59.669 3.19765 59.6511C3.06166 59.4787 3.27741 58.3244 3.22479 58.2651C3.1673 58.2133 3.02575 59.5159 3.01182 59.5167C2.81355 59.5334 3.083 58.4252 3.00238 58.5792C2.82468 58.905 1.78312 63.5709 2.75401 57.4189C2.32592 61.6754 2.64459 59.4099 2.9377 57.3265C3.0085 56.874 3.08596 56.4369 3.14983 56.0801C3.24418 55.5661 3.16115 55.4096 3.30487 54.685C3.49116 53.7535 3.84881 52.728 3.96318 52.2663C4.07445 51.8155 3.1996 53.9884 3.96548 51.4594C4.0556 51.1653 4.17114 50.8145 4.32304 50.4012C4.17499 50.7067 4.03116 51.0561 3.89667 51.4387C3.31347 53.0732 2.75377 55.3561 2.39123 57.2297C2.29984 57.691 2.21953 58.1042 2.13588 58.4642C1.54755 61.1598 1.6229 59.2455 1.90622 57.1438C2.08136 55.9276 2.361 54.7721 2.41832 54.4935C2.46061 54.2866 2.13602 54.9331 2.16155 54.795C2.1834 54.6215 2.79283 52.5066 3.16222 51.2184C3.32843 50.6273 3.46532 50.1771 3.47289 50.0423C3.49192 49.7266 3.22778 50.5647 3.03533 51.1803C2.95237 51.4384 2.87376 51.6492 2.82097 51.6761C2.79663 51.6888 2.83828 51.4667 2.90974 51.1427C3.17926 49.832 4.18107 47.1573 3.27043 49.311C3.07441 49.8028 2.87671 50.4196 2.70247 51.0805C2.25589 52.7643 1.83998 54.8279 1.461 55.2234C1.79103 53.749 2.17984 52.3747 2.56217 51.0384C2.98135 49.5876 3.51417 48.196 4.13261 46.8579C3.38088 48.1327 2.7058 49.4789 2.13798 50.9111C2.07549 51.063 2.0134 51.2142 1.95108 51.367C1.99578 51.2078 2.04052 51.0514 2.08585 50.8955C2.92122 48.0824 4.12239 45.8394 5.41356 43.4972C5.55268 43.2426 5.69075 42.9809 5.82687 42.7127C5.63271 42.9869 5.46069 43.2259 5.30887 43.4329C3.5677 46.0053 4.10758 44.8863 5.03567 43.265C5.71548 42.1049 6.6391 40.5677 6.63965 40.5188C6.62545 40.4767 4.91933 42.5651 4.64503 42.8707C5.69785 40.8561 9.44754 34.4844 6.81359 37.927C7.12584 37.5406 7.54314 36.6944 7.80613 36.1235C7.98709 35.7458 8.10795 35.4831 8.09599 35.4878C8.02659 35.5139 7.86108 35.719 7.64906 36.0274C6.95843 37.0126 5.75709 39.1168 5.89973 38.5891C6.10933 37.8133 6.92562 37.0352 7.5382 35.9875C7.54221 35.9806 7.5462 35.9738 7.55019 35.967C11.1011 30.4071 9.58655 30.9882 13.2036 26.7972C13.3434 26.6452 13.5062 26.4674 13.6951 26.259C13.6027 26.308 13.5112 26.3551 13.4218 26.399C14.6351 25.0232 16.1914 22.9348 17.9928 20.908C20.7894 17.8423 23.4445 15.8627 27.0079 13.9505C28.2455 13.322 29.5426 12.6728 30.9623 12.0369C31.9505 11.4686 33.501 10.585 36.1345 9.81012C40.5718 8.60482 44.6313 8.79911 47.1822 9.0178C47.9907 9.04711 51.938 9.81312 52.2946 9.97026C52.8455 10.1248 49.7059 9.57487 51.1 9.93601C51.3656 10.0373 53.1626 10.1872 56.1218 11.34C57.9571 12.1382 58.9148 12.7695 58.787 12.5796C58.3558 12.3075 57.3071 11.7298 56.1574 11.2568C55.1644 10.8522 54.6311 10.7218 54.4351 10.6394C54.0748 10.4971 54.0645 10.4668 54.3373 10.5219C54.6157 10.5873 55.1148 10.6861 56.2122 11.1289C59.8478 12.6077 63.8411 15.9557 66.535 18.0468C68.9289 19.9342 70.273 21.321 70.5346 21.4936C70.2728 21.1599 70.0037 20.823 69.725 20.4829C70.6157 21.3463 71.438 22.1898 72.2235 23.0044ZM28.5678 31.2088C28.3429 31.7614 27.2904 32.8463 26.713 33.6654C25.9937 34.727 24.6896 37.382 24.9261 35.9818C26.4274 34.1103 27.482 32.5791 28.5678 31.2088ZM47.8448 24.5904C46.806 24.3437 47.6942 24.0442 48.5122 24.3567C48.5977 24.3945 49.2031 24.9504 47.8448 24.5904ZM38.0876 24.9648C38.1348 24.935 38.9053 24.6485 38.92 24.6551C39.2577 24.624 38.9151 24.7717 38.5187 24.9208C38.1242 25.0685 37.6905 25.2083 38.0876 24.9648ZM86.4364 54.6039C85.3039 53.6681 85.8548 54.6192 86.6901 55.1242C86.7413 55.1548 86.511 54.666 86.4364 54.6039ZM85.6483 53.9244C85.0091 52.9444 82.9767 52.1593 84.3086 53.1587C84.4331 53.2492 85.671 53.963 85.6483 53.9244ZM44.0525 24.0901C44.1725 23.9625 45.2799 24.0745 45.7546 24.1501C45.732 24.2595 44.5083 24.0813 44.0525 24.0901ZM68.3927 39.945C68.5984 40.0053 64.5645 36.6475 64.1351 36.3273C64.8885 37.0414 68.3781 40.0586 68.3927 39.945ZM77.9185 48.0951C77.8397 48.0271 76.2509 46.8147 76.2195 46.8859C76.9837 47.6764 78.3589 48.5186 77.9185 48.0951ZM99.6483 63.057C99.7054 63.0663 99.4155 62.8063 99.5297 62.7452C99.6107 62.674 100.294 62.8687 101.49 63.4666C101.652 63.5515 101.424 63.5246 101.132 63.4735C100.842 63.4235 100.475 63.3426 100.549 63.3783C100.859 63.5249 101.079 63.6185 101.251 63.6809C100.114 63.3652 98.1 62.6248 97.91 62.4763C97.4777 62.1924 97.9612 62.395 98.5048 62.6129C99.0536 62.8343 99.6255 63.0535 99.6483 63.057ZM114.162 66.1697C114.548 66.1153 116.814 66.1398 117.315 66.1264C117.402 66.1264 117.037 66.3965 118.041 66.3048C118.842 66.2187 117.627 66.0923 119.184 65.9731C120.763 65.8212 118.681 66.251 118.817 66.2403C119.002 66.2603 121.439 65.7993 121.398 65.9306C121.346 66.071 118.701 66.3701 118.055 66.4154C117.219 66.5035 118.253 66.6184 116.839 66.659C115.945 66.6703 116.43 66.3408 116.242 66.332C116.111 66.3624 112.884 66.4478 114.167 66.1708C114.165 66.1705 114.163 66.1701 114.162 66.1697ZM101.555 63.7715C101.472 63.7536 101.374 63.7256 101.251 63.6809C101.358 63.713 101.459 63.7429 101.555 63.7715ZM30.3499 29.1638C30.7778 28.9151 29.7665 29.9597 29.3735 30.2223C29.2673 30.1651 30.2585 29.2036 30.3499 29.1638ZM102.439 63.8344C102.574 63.9026 102.643 63.9481 102.685 63.9814C103.408 64.3548 103.27 64.3348 102.637 64.0809C102.511 64.0632 102.186 63.9594 101.555 63.7715C101.993 63.8653 102.094 63.6669 102.439 63.8344ZM55.4708 28.1929C55.5217 28.2617 55.5408 28.3222 55.5097 28.3729C55.3786 28.1888 55.3845 28.1496 55.4708 28.1929ZM58.731 30.9394C59.8704 31.7075 57.7958 29.8887 57.757 30.057C57.7238 30.0836 58.6786 30.8945 58.731 30.9394ZM88.0053 55.9277C87.9008 55.815 90.252 57.0292 87.08 54.968C88.549 56.2681 86.9079 54.9886 86.9128 55.0509C86.8803 55.1529 88.2799 56.2839 89.4522 57.1266C89.8316 57.4016 90.1499 57.6298 90.3063 57.759C90.6323 57.8321 90.1233 57.4783 89.5077 57.051C88.8794 56.6149 88.2001 56.1211 88.0088 55.9305C88.0076 55.9296 88.0065 55.9286 88.0053 55.9277ZM139.555 55.1047C139.344 55.5078 138.232 56.496 137.375 57.1972C137.686 56.7595 138.878 55.7517 139.555 55.1047ZM317.283 20.7448C316.063 21.4951 315.712 21.7895 315.541 21.8942C314.656 22.6726 314.23 22.92 314.187 22.8943C314.151 22.8503 314.496 22.5375 315.367 21.711C315.484 21.596 315.699 21.4179 316.323 21.0695C316.348 21.0488 317.504 20.5439 317.283 20.7448ZM279.443 53.2527C279.239 53.292 279.294 53.1582 279.483 52.9564C279.746 52.6626 280.432 52.1546 281.095 51.7372C281.333 51.5883 282.36 51.1309 281.403 51.9206C281.255 51.6849 279.964 52.4892 279.568 53.0618C279.521 53.1251 279.478 53.1893 279.443 53.2527ZM103.553 64.1528C104.594 64.4855 107.5 65.2698 108.37 65.3862C107.902 65.4756 104.988 64.8823 103.553 64.1528ZM303.338 32.2712C302.788 32.7391 302.583 33.2047 302.685 33.1417C303.143 32.8629 304.041 31.8054 303.338 32.2712ZM97.8758 61.9244C97.8374 61.8529 98.6917 62.1866 99.4292 62.4504C100.18 62.7244 100.802 62.9683 100.84 63.1151C100.446 62.9863 98.0037 62.0942 97.8758 61.9244ZM138.125 56.3287C137.774 56.5845 139.387 54.9802 139.828 54.6072C139.893 54.702 138.397 56.1463 138.125 56.3287ZM295.654 38.9677C295.212 39.3272 294.169 40.2308 294.116 40.398C294.044 40.6083 295.545 39.2455 295.654 38.9677ZM370.262 38.7032C370.273 38.7857 368.866 37.2289 368.325 36.3014C368.318 36.2904 368.312 36.2795 368.306 36.2688C367.963 35.6626 368.107 35.79 368.445 36.2215C369.072 37.0211 370.256 38.6573 370.262 38.7032ZM307.623 28.0624C309.048 27.0429 307.484 28.1981 307.693 28.3086C308.548 27.5324 310.754 25.5418 309.102 26.7511C308.779 26.9874 308.031 27.7065 307.623 28.0624ZM306.416 29.0776C306.329 29.2555 305.621 30.2367 306.359 29.5179C306.702 29.1846 307.109 28.4635 306.416 29.0776ZM362.415 28.6575C361.957 27.852 363.33 29.7316 365.459 31.979C365.911 32.4476 366.252 32.9107 366.274 32.9557C366.308 33.0258 366.325 33.0752 366.331 33.1066C366.489 33.1924 367.111 34.0315 367.062 34.2486C366.874 33.9446 366.375 33.2923 366.335 33.2205C366.317 33.1852 366.304 33.1582 366.298 33.1381C366.172 33.0657 365.781 32.5874 365.32 32.118C363.601 30.3485 362.512 28.7686 362.415 28.6575ZM354.502 21.145C355.965 22.0164 355.924 22.6476 355.787 22.5463C354.201 21.4312 355.387 21.9836 355.352 21.9294C355.262 21.8111 354.167 21.0948 354.506 21.1483C354.505 21.1472 354.503 21.1461 354.502 21.145ZM361.129 27.0833C361.172 27.1088 361.974 28.0173 362.008 28.0779C362.292 28.5388 361.837 28.0445 361.449 27.6073C361.06 27.1678 360.705 26.7481 361.129 27.0833ZM126.462 63.7576C127.745 63.2318 126.58 63.9759 125.709 64.2531C125.639 64.2709 125.335 64.1922 126.462 63.7576ZM305.853 29.6749C305.788 29.7214 305.246 30.2015 304.608 30.8172C302.785 32.5857 300.6 34.3216 300.922 34.308C301.148 34.0838 303.066 32.5937 304.73 30.9397C305.659 30.0133 306.401 29.295 305.853 29.6749ZM266.596 61.9073C268.391 61.1481 266.582 62.2648 265.443 62.4686C265.039 62.5495 266.141 62.0974 266.596 61.9073ZM94.4456 59.6845C93.3221 59.1529 93.7953 58.8878 94.6117 59.5864C94.6434 59.6135 94.4892 59.7051 94.4456 59.6845ZM276.139 55.8204C272.73 58.8039 273.395 57.3447 277.528 54.1023C277.434 54.2324 277.339 54.3644 277.242 54.4973C281.449 51.0535 277.701 54.1526 276.503 55.2785C276.074 55.6722 276.535 55.4551 276.143 55.8184C276.141 55.8191 276.14 55.8197 276.139 55.8204ZM258.329 63.0373C254.794 62.4514 259.678 62.9663 263.415 62.4483C264.343 62.319 265.155 62.0999 265.706 61.9095C264.989 62.196 264.174 62.4238 263.432 62.563C261.486 62.9172 260.227 63.0534 263.476 62.8675C263.628 62.8513 263.783 62.8324 263.949 62.809C263.787 62.8388 263.633 62.8645 263.479 62.8878C260.218 63.31 259.596 63.1366 259.422 63.117C259.29 63.0667 259.84 62.9921 259.72 62.9856C259.429 62.975 258.513 63.0644 258.329 63.0373ZM271.307 59.2689C271.354 59.2325 271.495 59.1461 271.672 59.0435C272.337 58.649 273.343 57.9885 273.736 57.6662C273.42 58.0301 272.519 58.7071 271.754 59.1698C271.184 59.5094 270.71 59.7372 271.307 59.2689ZM345.456 15.5422C345.615 15.4786 345.86 15.4869 346.636 15.7921C346.771 15.843 346.925 15.9119 347.105 16.0069C346.976 15.9881 346.793 15.9449 346.593 15.8989C346.185 15.7755 345.768 15.6375 345.456 15.5422ZM27.2183 31.5593C26.6982 32.1808 25.5373 33.5608 26.0062 33.2303C26.068 33.1726 27.296 31.6027 27.2183 31.5593ZM291.571 42.123C291.383 42.2322 288.073 45.3806 289.329 44.4134C289.666 44.1241 292.793 41.2357 291.571 42.123ZM310.424 25.3684C310.281 25.4832 309.929 25.7874 309.69 26.0256C309.385 26.3185 309.131 26.5704 309.131 26.5932C309.132 26.6699 309.43 26.422 309.763 26.1058C310.028 25.8466 310.402 25.4721 310.424 25.3684ZM24.1806 35.0834C24.1407 35.1203 23.8155 35.5114 23.3923 35.9915C22.9201 36.5295 22.3806 37.2049 22.5242 37.1085C22.7365 36.9656 23.1419 36.4921 23.4818 36.0724C24.0155 35.4318 24.3572 34.9157 24.1806 35.0834ZM130.767 60.993C131.009 60.8244 131.417 60.7441 131.499 60.6878C131.596 60.6287 132.71 59.7825 133.38 59.2606C134.061 58.7389 134.402 58.5392 133.991 58.9844C133.947 59.0172 132.803 59.9952 130.982 61.2183C129.206 62.4153 127.178 63.332 126.732 63.5143C126.284 63.4943 129.347 62.2442 130.022 61.7308C130.14 61.6501 130.124 61.4417 130.766 60.9951C130.766 60.9944 130.767 60.9937 130.767 60.993ZM350.349 17.9807C350.453 17.9637 351.375 18.5438 352.403 19.2523C353.225 19.8045 354.102 20.565 354.024 20.6189C353.436 20.1474 352.875 19.7226 352.333 19.3504C351.633 18.8648 350.967 18.3974 350.349 17.9807ZM348.648 16.8395C348.029 16.3495 349.614 17.2518 350.147 17.6989C350.076 17.7593 348.718 16.8824 348.648 16.8395ZM303.523 31.0192C303.111 31.463 304.604 30.3279 304.334 30.6433C304.149 30.8728 303.128 31.7185 302.88 32.0228C302.805 32.122 303.91 31.3944 304.203 31.0894C304.564 30.7235 304.204 30.9003 304.428 30.6367C304.449 30.6109 304.477 30.58 304.515 30.5422C305.591 29.4702 306.713 28.592 307.857 27.5405C307.961 27.4449 307.083 28.096 307.966 27.2903C308.082 27.1838 308.774 26.7158 309.633 25.9626C309.736 25.8733 309.848 25.7749 309.968 25.6668C311.033 24.252 312.649 23.446 315.016 21.3416C315.259 21.1395 315.709 20.8017 316.564 20.2275C316.503 20.238 315.98 20.5013 315.589 20.7286C315.185 20.9611 314.944 21.136 314.872 21.191C314.829 21.2298 314.8 21.2561 314.786 21.2684C312.911 22.9726 310.635 24.4209 309.322 25.6212C307.642 27.1355 306.013 28.6142 304.907 29.6849C304.304 30.2709 304.674 30.0644 304.42 30.3195C304.312 30.4289 304.291 30.3665 304.195 30.4025C304.094 30.4521 303.913 30.6028 303.523 31.0192ZM27.4081 31.1488C27.0045 31.3157 26.228 32.4958 25.6053 33.2676C25.9723 33.1006 26.8377 31.7691 27.4081 31.1488ZM331.377 13.2269C330.956 13.267 330.011 13.3583 329.988 13.4364C329.956 13.4845 330.216 13.4588 330.562 13.4127C330.901 13.3658 331.342 13.2994 331.377 13.2269ZM149.391 44.6136C149.426 44.5715 150.252 43.7609 150.283 43.74C151.13 43.1244 148.639 45.5638 149.391 44.6136ZM169.668 27.2957C170.362 26.7621 171.102 26.1346 171.464 26.0649C170.937 26.4375 169.643 27.4561 169.668 27.2957ZM197.495 15.8315C197.5 15.7133 197.811 15.8493 198.297 16.1568C198.77 16.4557 199.444 16.9328 199.672 17.0845C199.563 17.0744 198.881 16.7051 198.369 16.4144C197.843 16.1148 197.493 15.9178 197.495 15.8315ZM345.536 14.8394C346.179 15.1248 346.57 15.2298 346.842 15.2836C347.097 15.3057 347.217 15.2665 347.574 15.5279C347.671 15.6085 347.731 16.3554 346.705 15.6404C346.703 15.6391 346.701 15.6378 346.699 15.6366C346.619 15.5901 346.662 15.5849 346.722 15.5815C346.777 15.5651 346.852 15.5482 346.767 15.4682C346.632 15.372 346.257 15.1817 345.536 14.8394ZM278.134 53.5857C278.268 53.3419 278.737 52.9235 279.176 52.5772C279.372 52.4223 279.586 52.2641 279.782 52.1181C279.751 52.2005 279.5 52.4189 279.233 52.6473C278.868 52.9568 278.377 53.3679 278.134 53.5857ZM20.9618 38.6058C20.3475 39.009 18.6979 41.5814 19.2495 41.0416C19.3022 40.9665 20.6625 38.9431 20.9618 38.6058ZM109.144 64.8764C109.676 64.8905 109.467 64.7953 108.871 64.6856C108.285 64.5819 107.019 64.4024 106.303 64.301C106.613 64.3742 107.452 64.5622 108.069 64.6759C108.702 64.7944 109.106 64.8741 109.144 64.8764ZM192.242 15.3585C192.278 15.3503 192.751 15.2953 193.198 15.2444C193.471 15.214 193.7 15.1975 193.725 15.1987C194.139 15.2394 193.727 15.2998 193.213 15.3631C192.391 15.4638 191.524 15.5243 192.242 15.3585ZM162.811 32.5553C163.082 32.1993 164.857 30.7304 165.964 29.8634C166.232 29.6613 166.464 29.5048 166.602 29.4293C166.524 29.5461 166.324 29.7466 166.072 29.9866C164.859 31.1336 162.469 33.0163 162.811 32.5553ZM340.243 12.8969C341.021 13.085 341.782 13.3891 342.577 13.7659C342.324 13.7523 340.284 12.9543 340.243 12.8969ZM196.064 15.1871C196.099 15.1938 196.132 15.2122 196.165 15.2197C196.131 15.2086 196.097 15.1973 196.064 15.1871ZM320.321 17.799C319.408 18.2809 319.698 18.3422 319.754 18.318C320.452 17.993 321.357 17.2434 320.321 17.799ZM26.5305 31.758C26.1928 31.8848 25.3269 33.2171 24.6465 33.9899C24.9607 33.8362 26.1126 32.3096 26.5305 31.758ZM253.756 62.473C252.431 62.1953 257.926 62.331 259.118 62.3602C259.186 62.5388 253.975 62.5796 253.756 62.473ZM103.347 63.0548C103.337 63.0305 103.279 62.9898 103.187 62.9358C103.116 62.8659 102.863 62.7743 102.589 62.707C102.321 62.6406 102.071 62.6062 102.208 62.6864C102.392 62.7849 103.022 63.0069 103.15 63.0123C103.282 63.0604 103.357 63.0776 103.347 63.0548ZM262.052 62.2913C262.383 62.2366 262.992 62.2031 263.378 62.1968C263.734 62.1816 263.914 62.1934 263.644 62.2768C263.567 62.2999 263.485 62.3197 263.398 62.3364C262.738 62.4748 261.918 62.3149 262.052 62.2913ZM297.85 35.7077C297.776 35.757 297.334 36.1707 297.025 36.5129C296.568 36.993 296.246 37.3783 296.763 37.0229C296.947 36.8959 297.082 36.7817 297.179 36.6846C297.385 36.4736 297.383 36.3299 297.471 36.2521C297.551 36.1612 300.941 33.6574 297.85 35.7077ZM227.292 45.7638C227.711 46.195 228.146 46.6963 228.571 47.1913C228.916 47.5928 229.262 47.9917 229.594 48.3522C229.424 48.2255 228.97 47.7674 228.503 47.2515C227.97 46.6643 227.407 45.9928 227.292 45.7638ZM113.205 65.2077C113.071 65.1704 111.566 65.0627 109.932 64.6668C109.559 64.572 108.827 64.4678 108.525 64.4394C108.377 64.4259 108.353 64.4358 108.515 64.4795C108.67 64.5228 109.026 64.5979 109.431 64.6975C109.473 64.708 109.703 64.7577 109.897 64.811C111.584 65.2584 113.909 65.3793 113.205 65.2077ZM345.536 14.8394C345.337 14.7512 345.115 14.6463 344.869 14.5222C345.117 14.6377 345.338 14.7454 345.536 14.8394ZM330.843 12.9319C330.976 12.864 330.682 12.8632 330.359 12.9021C330.032 12.9402 329.702 13.0224 329.573 13.0859C329.548 13.1583 329.792 13.1137 330.11 13.0597C330.422 13.0046 330.824 12.9413 330.843 12.9319ZM229.758 48.3182C230.241 48.7591 230.995 49.6608 231.55 50.2332C231.386 50.2064 229.874 48.5967 229.758 48.3182ZM201.455 17.6843C202.348 18.3259 203.401 19.0681 203.492 18.9916C203.499 19.0199 203.529 19.0661 203.586 19.1339C203.644 19.1971 204.602 19.8635 204.983 20.2289C206.112 21.3194 203.78 19.3735 202.005 18.1607C200.132 16.8977 198.852 15.9327 202.574 18.1739C202.207 18.0073 201.836 17.8458 201.455 17.6843ZM158.772 35.5265C158.185 35.8111 156.869 37.1603 157.277 36.8899C157.514 36.7262 158.788 35.6866 158.885 35.515C158.899 35.4909 158.894 35.4811 158.864 35.4892C158.845 35.4935 158.815 35.5055 158.772 35.5265ZM179.49 19.8563C179.289 19.946 177.683 21.0035 177.685 21.0898C178.659 20.6134 180.385 19.4663 179.49 19.8563ZM154.711 38.7527C154.366 39.023 154.09 39.5676 154.136 39.5413C154.533 39.3092 155.351 38.3687 154.711 38.7527ZM342.871 13.0161C342.359 12.7225 340.772 12.3768 340.434 12.4686C340.382 12.4253 340.232 12.3457 339.954 12.2375C339.955 12.2377 339.956 12.2379 339.957 12.2381C339.788 12.1642 337.812 11.7336 335.933 11.9804C333.728 12.2099 332.107 12.2862 331.756 12.3635C331.459 12.4132 331.881 12.4663 335.641 12.2314C335.859 12.2138 335.794 12.1825 335.95 12.1332C336.031 12.0982 336.209 12.0505 336.669 12.0345C336.734 12.033 336.775 12.1418 336.975 12.1405C337.452 12.0723 339.824 12.4019 340.358 12.51C340.357 12.5312 340.385 12.5583 340.449 12.5938C340.976 12.8572 343.224 13.1995 342.871 13.0161ZM182.591 18.035C182.267 18.1605 181.323 18.7434 181.273 18.8892C181.773 18.6443 183.342 17.736 182.591 18.035ZM112.963 64.7814C112.24 64.6764 110.574 64.4772 109.997 64.3927C109.922 64.4015 109.904 64.4247 109.98 64.4647C109.98 64.4647 109.98 64.4647 109.98 64.4648C110.58 64.7458 114.143 64.9947 112.963 64.7814ZM173.085 23.9155C174.426 22.9539 174.732 22.8243 174.542 22.8909C174.376 22.9569 173.887 23.2114 174.073 22.9953C173.711 23.3055 173.385 23.6096 173.085 23.9155ZM358.526 23.5742C357.958 23.05 358.823 23.4155 359.406 24.088C359.589 24.3002 358.846 23.8684 358.526 23.5742ZM376.989 47.7583C376.889 47.1295 378.308 49.6324 377.564 48.787C377.537 48.7522 377.008 47.805 376.989 47.7583ZM364.841 29.7102C364.354 29.4091 364.072 29.0987 363.278 28.075C364.594 29.5809 363.452 27.9856 364.841 29.7102ZM203.494 18.9698C203.495 18.9795 203.497 18.9872 203.492 18.9916C203.489 18.9819 203.49 18.9751 203.494 18.9698ZM151.748 41.4244C151.28 41.6585 150.222 42.7123 150.642 42.5066C150.685 42.4804 151.673 41.6392 151.748 41.4244ZM340.434 12.4686C340.48 12.5076 340.448 12.5167 340.358 12.51C340.359 12.49 340.385 12.4776 340.434 12.4686ZM157.801 36.0116C157.816 36.0732 158.303 35.7168 158.768 35.3701C159.24 35.0146 159.7 34.6483 159.732 34.6141C160.409 33.8905 159.54 34.5797 158.688 35.2718C158.353 35.5442 158.018 35.8286 157.801 36.0116ZM95.6678 58.96C95.5571 58.9052 96.088 59.563 96.547 59.7183C96.9046 59.8394 96.0899 59.1688 95.6678 58.96ZM367.689 32.8291C368.04 33.3006 368.575 34.1076 368.571 34.3448C368.313 33.9038 367.6 32.8619 367.689 32.8291ZM376.502 46.6586C375.925 46.0242 374.876 44.3827 374.168 43.0137C374.124 42.9291 374.081 42.8462 374.04 42.7668C374.072 42.7437 374.149 42.8239 374.249 42.9699C374.802 43.8712 376.095 46.1091 376.502 46.6586ZM344.563 13.8155C344.488 13.7679 342.928 13.0383 343.099 13.2646C343.301 13.5584 344.998 14.0882 344.563 13.8155ZM99.8142 61.2731C100.825 61.5321 98.7152 60.5213 97.2822 59.9328C96.925 59.7909 97.576 60.2384 98.2863 60.5987C99.0024 60.9681 99.7306 61.2495 99.8142 61.2731ZM148.194 44.6533C147.396 45.5515 149.601 43.5744 149.732 43.2326C149.369 43.5788 148.487 44.3279 148.194 44.6533ZM176.584 21.1272C173.522 22.4872 175.477 22.1985 175.924 21.8446C175.985 21.7954 176.66 21.0933 176.584 21.1272ZM15.8277 44.8088C15.6208 45.2655 16.7579 43.7822 16.7621 43.509C16.7645 43.3368 15.9608 44.5147 15.8277 44.8088ZM215.235 29.1577C215.132 29.024 215.033 28.8941 214.938 28.7684C215.014 28.8592 215.11 28.984 215.235 29.1577ZM140.289 51.4131C140.502 51.3073 140.678 51.2227 140.824 51.1532C142.614 50.0215 142.12 49.931 142.297 49.7795C142.68 49.4235 143.611 48.7192 144.206 48.0815C143.544 48.8414 142.85 49.6415 142.044 50.4863C142.65 50.0179 145.659 47.0564 146.83 46.0767C147.52 45.4725 147.864 45.1182 147.883 45.0692C147.921 44.9179 147.362 45.4468 146.749 45.9848C146.5 46.201 146.268 46.4251 146.249 46.4358C146.181 46.4755 145.705 46.4037 145.563 46.5214C145.378 46.6162 142.615 49.545 140.745 51.0603C140.55 51.2127 140.386 51.3443 140.289 51.4131ZM171.096 25.075C171.626 24.7246 171.867 24.7217 172.082 24.503C172.156 24.4274 172.079 24.3074 172.332 24.0505C171.917 24.4088 171.503 24.7494 171.096 25.075ZM137.42 54.8757C136.749 55.2741 139.311 52.9437 139.335 52.9295C139.82 52.6212 138.05 54.5109 137.42 54.8757ZM156.844 36.6512C156.758 36.7069 154.915 38.2222 154.989 38.2888C155.53 37.9109 157.931 35.8947 156.844 36.6512ZM172.63 23.7897C173.103 23.3991 174.247 22.7868 174.012 22.6906C174.011 22.6912 174.01 22.6918 174.009 22.6924C173.5 23.0595 173.047 23.4182 172.63 23.7897ZM102.742 61.8179C102.207 61.4391 101.971 61.3887 102.098 61.515C102.213 61.639 102.641 61.9271 103.052 62.1541C103.368 62.1178 102.926 61.9431 102.742 61.8179ZM97.3632 59.3454C97.3156 59.3112 97.2281 59.2544 97.1079 59.1756C96.3692 58.6818 92.9884 56.6474 93.4554 57.1287C93.6583 57.3495 96.0385 58.6367 96.1146 58.6952C96.2571 58.8052 95.4556 58.5457 96.6416 59.2322C96.6237 59.1759 96.8603 59.2305 97.0482 59.2716C97.2721 59.3525 97.4475 59.405 97.3632 59.3454ZM101.719 61.2272C100.276 60.4628 99.6195 60.7225 100.917 61.1877C101.399 61.3547 101.914 61.3324 101.719 61.2272ZM108.598 63.417C108.078 63.2878 106.134 62.9234 104.543 62.4431C106.557 63.256 108.493 63.4522 109.543 63.6619C109.686 63.5941 109.122 63.5393 108.594 63.4164C108.595 63.4166 108.597 63.4168 108.598 63.417ZM382.318 53.5461C382.119 52.9843 382.322 53.2925 382.589 53.7846L382.344 53.1439C382.344 53.1169 382.362 53.1679 382.419 53.3962C382.476 53.6169 382.584 54.0292 382.769 54.4596C383.149 55.3593 383.694 55.936 383.738 56.0034C384.052 56.3744 383.557 56.0868 382.923 55.0759C382.617 54.5801 382.391 53.9378 382.298 53.5878C382.2 53.2237 382.181 53.1499 382.192 53.1877L382.447 53.8533C382.392 53.7353 382.348 53.6302 382.318 53.5461ZM7.53715 50.9584C7.3723 51.2512 7.12173 51.3988 6.9889 52.1303C7.33494 51.4629 7.71232 50.817 8.11522 50.192C8.05684 49.5476 7.71367 50.636 7.53715 50.9584ZM5.61089 53.375C5.63504 53.2689 5.01839 53.7078 5.71433 52.4477C6.17248 51.6 4.93171 56.5904 4.64571 57.4849C4.71742 56.4466 5.39952 54.2847 5.61089 53.375ZM1.97421 62.0391C1.92859 62.0966 2.09043 60.118 2.14918 59.8871C2.43018 58.6975 2.19649 61.7444 1.97421 62.0391ZM3.01923 55.628C2.7102 56.5564 3.14316 54.4382 3.37147 53.8593C3.46659 53.8187 3.05863 55.4778 3.01923 55.628ZM381.635 39.7506C381.587 39.4962 381.486 39.2838 381.377 39.1286C381.073 38.6831 380.737 38.6262 381.094 39.2811C381.139 39.3652 381.199 39.4627 381.275 39.574C381.314 39.6309 381.641 39.7929 381.635 39.7506ZM1.722 60.0537C1.92297 59.1293 1.73458 61.2075 1.62356 61.8072C1.5295 61.857 1.68867 60.1972 1.722 60.0537ZM381.985 38.8255C381.983 38.8185 381.98 38.8116 381.978 38.8048C381.486 37.4643 381.069 38.2857 381.129 38.4487C381.186 38.604 381.303 38.8272 381.453 39.088C381.888 39.8519 382.788 40.9551 383.027 41.2259C381.222 38.4612 382.183 39.3742 381.985 38.8255ZM378.233 33.6401C377.472 32.6553 379.116 35.3738 379.625 35.7971C379.278 35.2662 378.45 33.9165 378.233 33.6401ZM374.127 27.2044C373.817 26.7599 372.964 25.6893 372.33 25.1084C372.168 24.9599 372.034 24.8456 371.959 24.8131C372.047 24.9002 372.159 25.02 372.286 25.1523C373.016 25.8847 373.903 27.0661 374.127 27.2044ZM373.29 25.6437C372.57 24.6325 372.026 24.7639 373.092 25.6807C373.133 25.7169 373.313 25.683 373.29 25.6437ZM369.648 21.2413C369.301 20.556 368.38 20.238 369.181 21.1404C369.413 21.4065 369.683 21.3146 369.648 21.2413ZM381.812 36.8544C381.343 35.9102 380.365 34.9614 381.485 36.8623C381.041 36.2176 380.59 35.5943 380.137 34.9857C381.505 37.4786 381.769 37.114 382.179 37.8529C382.341 38.1561 382.423 38.3847 382.453 38.5487C382.491 38.8836 382.265 38.9212 382.124 38.839C382.657 39.4254 384.556 42.3896 385.85 44.3419C384.849 42.5585 383.33 39.9705 382.625 38.4909C382.621 38.4817 382.616 38.4726 382.612 38.4634C382.342 37.937 381.977 37.4978 381.738 37.0707C381.346 36.3731 381.838 36.9072 381.815 36.858C381.814 36.8568 381.813 36.8556 381.812 36.8544ZM363.709 15.7338C362.383 14.2974 363.013 15.4645 363.887 16.1056C363.926 16.131 363.741 15.7692 363.709 15.7338ZM0.0326397 62.5616C0.506841 60.0268 0.449911 61.8008 0.861949 56.9587C0.898505 56.6476 0.942354 56.3127 0.99482 55.955C0.943158 56.4549 0.925605 56.7777 0.92244 56.9695C0.917752 57.3648 0.9699 57.2072 1.02741 56.9881C1.08986 56.7504 1.16344 56.4426 1.16859 56.6646C1.17042 56.7466 1.15876 56.8693 1.14222 57.0084C1.07093 57.5957 0.9369 58.3997 1.18053 57.7356C0.778337 58.8671 0.364296 63.4778 0.31695 63.6036C0.317136 63.6019 0.317322 63.6002 0.317508 63.5985C0.28713 63.7029 -0.115529 63.4017 0.0326397 62.5616ZM375.076 26.4524C375.014 25.4774 374.162 25.7887 373.387 24.3099C373.321 24.2744 373.263 24.2462 373.214 24.2246C373.034 24.1872 373 24.2434 373.069 24.3694C373.831 25.1828 376.988 29.0378 376.823 29.718C373.764 25.1047 376.53 29.7352 377.144 30.4221C377.299 30.5926 377.374 30.6004 377.297 30.3201C377.247 30.1378 377.135 29.8334 376.92 29.3383C377.126 29.7109 377.289 30.003 377.423 30.236C378.645 32.3263 377.765 30.4028 378.152 30.8034C378.61 31.2718 379.822 33.2829 379.93 33.0743C379.929 33.0732 379.928 33.0722 379.928 33.0711C379.199 32.0058 378.47 30.9732 377.797 29.9869C377.716 29.8683 377.633 29.7471 377.55 29.6234C377.894 30.9753 376.527 28.6082 376.134 27.4205C375.795 27.0991 375.442 26.7737 375.076 26.4524ZM379.391 33.5125C379.315 33.3721 377.535 30.8666 377.58 31.0917C377.741 31.4245 380.281 35.0755 379.391 33.5125ZM386.248 44.4517C386.148 44.3388 386.041 44.2203 385.927 44.0985L386.443 44.7734C385.842 43.7567 385.103 42.5211 384.69 42.158C385.183 42.9281 385.889 44.1402 386.389 44.8066L385.881 44.1426C386.022 44.2692 386.145 44.3751 386.248 44.4517ZM345.66 4.08701C344.17 3.64961 348.561 5.4492 347.356 4.78596C347.312 4.75143 345.75 4.10358 345.66 4.08701ZM372.662 23.8756C371.997 22.8646 371.969 23.677 372.658 24.2123C372.697 24.2419 372.692 23.9205 372.662 23.8756ZM0.200673 60.3773C0.121361 60.293 0.326885 58.4721 0.619432 56.9158C0.756161 56.1921 0.898607 55.6033 0.951883 55.3664C0.960706 55.5164 0.852001 56.1421 0.73481 56.9362C0.5002 58.5352 0.298413 60.4554 0.200673 60.3773ZM388.206 46.224C387.844 45.3616 387.203 44.4165 386.43 43.6204L387.036 44.4133C386.121 42.9512 385.156 41.9457 385.048 41.7546C384.888 41.4808 385.333 41.7864 385.299 41.7226C385.187 41.5497 383.479 38.828 383.438 38.7297C383.376 38.6429 383.391 39.2703 383 38.767C383.523 39.525 385.628 42.7923 386.728 44.6005L386.169 43.869C386.672 44.4023 386.966 44.7832 387.034 44.8536C387.154 44.9821 386.86 44.4832 386.836 44.3688C386.788 44.2525 387.194 44.5268 388.203 46.2199C388.204 46.2213 388.205 46.2226 388.206 46.224ZM384.678 41.054C385.014 41.817 383.763 39.8712 383.554 39.4045C383.039 38.3385 384.6 40.9366 384.678 41.054ZM381.877 36.0567C381.75 35.7684 380.342 33.5375 380.105 33.4463C380.636 34.5414 382.176 36.6619 381.877 36.0567ZM363.176 14.0169C362.69 13.6105 361.334 12.3076 361.16 12.3273C361.723 12.7672 363.028 14.0468 363.176 14.0169ZM3.01955 45.9908C2.37327 47.0894 3.62062 44.4198 4.12087 43.7259C4.19649 43.7171 3.05612 45.8854 3.01955 45.9908ZM373.388 22.959C373.305 22.8701 372.361 21.7062 370.798 19.9285C369.263 18.1771 367.229 16.4562 366.451 15.8908C366.386 15.8422 366.331 15.8022 366.289 15.7724C366.326 15.8081 366.376 15.854 366.437 15.9088C367.165 16.5212 369.129 18.252 370.624 19.993C372.144 21.7567 373.093 22.9365 373.199 22.995C373.264 23.0476 373.409 22.991 373.388 22.959ZM383.818 37.757C383.829 37.7699 383.84 37.7828 383.851 37.7956C384.263 38.2237 384.287 38.6657 384.323 38.7345C384.676 39.4081 385.642 40.8555 385.295 40.6266C384.812 39.7922 383.935 38.4736 383.669 37.8939C383.445 37.4446 383.423 37.2976 383.818 37.757ZM363.281 13.0418C361.179 11.3036 364.981 14.8593 364.563 14.2495C364.545 14.22 363.505 13.2276 363.281 13.0418ZM373.864 23.392C373.887 23.4037 373.924 23.4297 373.971 23.4672C374.887 24.1337 377.462 27.5902 378.577 29.4664C379.288 30.5526 379.95 31.5413 380.188 31.8959C379.446 31.2053 379.082 30.4679 378.487 29.5269C378.396 29.3832 378.297 29.2294 378.186 29.0637C377.964 28.733 377.929 28.8799 377.905 28.8444C377.507 28.2477 377.91 28.6292 377.662 28.25C377.64 28.1357 374.956 24.5266 373.896 23.5421C373.783 23.4052 373.755 23.3381 373.864 23.392ZM384.096 38.0095C384.266 38.2192 386.757 42.0639 386.906 42.3308C387.494 43.6241 384.059 38.1845 384.096 38.0095ZM373.681 22.855C373.826 22.9131 374.023 23.0625 374.217 23.2219C375.555 24.4304 376.898 26.4293 375.123 24.4622C374.981 24.3133 374.6 23.8108 374.128 23.3106C373.992 23.1572 373.839 22.991 373.681 22.855ZM363.691 13.0106C363.63 12.9347 361.415 10.9619 361.272 10.9934C361.676 11.3361 364.773 14.0858 363.691 13.0106ZM364.975 13.6913C364.923 13.6487 365.279 14.2095 364.34 13.3601C364.254 13.2832 364.28 13.0163 362.931 11.9534C362.655 11.7369 362.137 11.4837 362.162 11.5164C363.45 13.0492 367.416 15.655 364.975 13.6913ZM384.283 37.9917C384.256 37.7577 384.738 38.0848 384.875 38.5807C384.935 38.7955 384.585 38.527 384.283 37.9917ZM356.162 7.16108C356.969 7.60592 356.219 7.01731 355.079 6.30067C353.946 5.57422 352.373 4.83451 352.215 4.79442C352.429 4.90882 356.091 7.05301 356.162 7.16108ZM3.35651 42.7569C3.35572 42.7583 3.35493 42.7596 3.35414 42.7609C3.45047 42.6076 3.53243 42.4831 3.60089 42.3833C4.04454 41.7533 3.80762 42.3442 3.83928 42.2997C5.45872 40.0138 4.82111 40.4694 5.0176 40.0765C5.44707 39.2115 5.68053 39.5382 6.39515 38.0537C5.19386 40.4901 6.38098 38.3313 6.53416 38.3321C7.14666 38.3494 4.46512 41.2992 3.89783 42.434C3.81669 42.598 4.65722 41.5469 4.4579 41.9679C4.36425 42.1657 4.2196 42.4077 4.05053 42.6596C2.81658 44.5481 0.664714 47.4488 3.35651 42.7569ZM385.092 38.9014C385.433 39.2126 387.889 43.2995 387.099 42.3124C386.902 42.0616 384.42 38.2776 385.092 38.9014ZM210.934 9.75187C212.053 10.4259 209.74 8.47934 209.195 8.26333C208.939 8.14412 210.456 9.45028 210.934 9.75187ZM189.267 2.72493C187.766 2.95078 186.064 3.86688 188.091 3.41305C188.309 3.36342 189.454 2.77702 189.267 2.72493ZM260.01 50.0177C258.853 49.8625 258.919 50.2316 259.782 50.1977C260.082 50.1823 260.045 50.022 260.01 50.0177ZM224.603 21.7099C224.566 21.6417 223.535 20.2847 223.479 20.3613C223.901 21.0106 225.018 22.4193 224.603 21.7099ZM260.36 49.9431C259.69 50.05 260.926 50.2638 261.52 49.903C261.218 49.9733 260.432 49.9342 260.36 49.9431ZM372.584 20.2654C372.01 19.8008 370.453 17.9552 369.387 17.0081C369.45 16.7249 372.075 19.6284 372.584 20.2654ZM196.369 2.48468C194.453 2.4921 198.541 2.93061 198.222 2.77495C198.164 2.73361 196.431 2.46323 196.369 2.48468ZM292.219 24.3184C291.604 24.9882 293.895 23.2821 293.158 23.6242C293.128 23.6397 292.257 24.2787 292.219 24.3184ZM301.803 15.6819C301.626 15.8182 301.304 16.0825 300.936 16.4146C300.125 17.1425 299.058 18.1562 299.77 17.6235C299.86 17.5565 300.506 16.9745 301.006 16.4915C301.458 16.0613 301.811 15.7339 301.803 15.6819ZM4.93469 39.9338C4.56065 40.1563 5.74326 38.282 5.94193 38.0225C6.01846 37.9237 5.418 39.6503 4.93469 39.9338ZM252.574 49.5834C252.149 49.5367 250.931 49.085 250.662 49.082C251.284 49.3278 252.688 49.8448 252.574 49.5834ZM204.789 5.26027C203.85 4.33835 200.856 3.10774 201.472 3.69422C203.028 4.3225 202.9 4.25327 202.965 4.22379C202.978 4.19549 203.306 4.27923 204.789 5.26027ZM262.183 49.3379C261.949 49.4408 261.968 49.73 261.984 49.739C262.194 49.7952 262.487 49.2978 262.183 49.3379ZM233.641 33.7849C233.673 33.7455 233.523 33.515 233.351 33.2785C233.052 32.8675 232.682 32.421 232.73 32.5648C232.744 32.6078 233.003 33.005 233.251 33.3512C233.428 33.5993 233.612 33.8207 233.641 33.7849ZM350.76 3.4708C350.369 3.23219 350.963 3.42902 351.545 3.64586C352.284 3.92638 353.103 4.32375 353.475 4.5736C353.705 4.81883 352.486 4.20966 351.483 3.80146C351.129 3.65131 350.791 3.48897 350.76 3.4708ZM274.158 40.1868C274.156 39.9753 271.964 41.7583 272.951 41.198C273.218 41.0462 274.18 40.2494 274.158 40.1868ZM294.672 21.7141C294.307 22.1509 294.732 21.8647 295.243 21.4213C296.676 20.0963 298.951 18.0329 297.758 18.8961C297.668 18.9585 296.062 20.3762 295.117 21.2948C294.889 21.5097 294.694 21.6856 294.672 21.7141ZM305.28 12.5622C305.032 12.7266 304.874 12.112 305.659 11.7206C305.766 11.6656 305.475 12.1371 305.565 12.1052C305.582 12.0985 305.766 11.9583 305.947 11.806C307.199 10.6278 308.931 9.58471 309.004 9.52735C309.163 9.40803 308.863 9.37046 309.021 9.24486C309.242 9.05874 311.22 8.10611 312.03 7.66142C313.606 6.77529 313.638 6.55911 313.769 6.48428C314.109 6.28336 314.716 6.04694 315.378 5.64141C315.41 5.62168 315.442 5.6018 315.475 5.58177C318.124 3.94057 321.277 2.44098 324.369 1.25872C328.46 -0.220389 331.312 0.0267425 332.819 0.00177193C330.782 0.0841742 327.86 0.116984 324.448 1.46345C323.441 1.87645 322.453 2.31122 321.448 2.7717C322.267 1.99245 316.754 5.28999 319.962 3.31215C319.464 3.58798 317.744 4.38989 315.484 5.81033C313.062 7.48988 309.311 8.93988 306.056 11.9211C305.745 12.2101 305.401 12.4789 305.282 12.5603C305.281 12.5609 305.28 12.5615 305.28 12.5622ZM182.399 4.24555C182.622 4.11004 182.538 4.10754 182.261 4.19671C181.443 4.41699 178.637 5.79465 178.446 6.12214C178.974 5.86469 181.778 4.51185 182.3 4.2926C182.355 4.26756 182.389 4.25152 182.399 4.24555ZM207.72 6.03018C208.107 6.24337 208.671 6.07472 210.577 7.65256C210.579 7.65385 210.581 7.65514 210.583 7.65644C211.132 8.12184 210.411 7.72558 210.497 7.83056C210.537 7.86657 212.198 9.33987 210.7 8.27745C208.374 6.70141 210.657 7.87132 209.425 7.02056C209.256 6.88867 206.87 5.63061 206.993 5.77183C207.001 5.78261 207.692 6.15967 207.796 6.24976C208.18 6.58172 207.907 6.55623 207.963 6.59922C208.131 6.67193 211.957 9.08092 212.291 9.64707C212.471 9.78329 208.108 6.75649 206.734 6.01498C206.518 5.88423 206.368 5.78887 206.34 5.7655C206.224 5.66951 206.463 5.41019 206.346 5.29646C206.314 5.26845 205.761 4.94499 204.994 4.51701C204.243 4.09205 203.234 3.60628 203.001 3.48457C202.869 3.41171 202.767 3.35381 202.691 3.31062C202.947 3.48999 202.254 3.17973 201.43 2.87518C200.611 2.56398 199.69 2.29995 199.764 2.2571C199.857 2.17938 202.419 3.09086 202.459 3.17125C202.495 3.19068 202.525 3.20925 202.553 3.22553C202.35 3.0669 203.881 3.71409 205.013 4.3698C206.174 5.02729 206.963 5.50047 207.066 5.47883C207.075 5.47805 207.078 5.47319 207.075 5.46391C207.07 5.44546 207.04 5.41011 206.978 5.3537C207.024 5.37735 207.065 5.39912 207.103 5.41925C208.292 6.07832 206.639 5.4718 207.72 6.03018ZM214.688 10.8875C214.531 10.8033 214.374 10.7189 214.216 10.635C214.381 10.7642 214.544 10.8944 214.71 11.0296C215.824 11.9437 217.84 13.3513 220.151 15.2128C220.695 15.6505 221.211 16.1113 221.691 16.5794C222.546 17.4418 221.751 16.2912 222.775 17.4716C223.574 18.427 224.085 19.4587 223.701 19.037C223.643 18.9627 222.245 17.0447 221.177 16.1362C220.773 15.7757 220.416 15.49 220.112 15.2622C218.694 14.2397 219.036 14.6991 218.915 14.6086C218.761 14.4922 217.42 13.3513 216.754 12.886C215.723 12.1578 215.133 11.7775 214.515 11.2603C213.894 10.7393 213.188 10.1233 212.173 9.2576C213.767 10.3565 213.132 9.48991 214.688 10.8875ZM282.644 31.7237C282.644 31.5579 284.098 30.402 284.581 29.9566C284.584 30.1126 283.137 31.2507 282.644 31.7237ZM77.8813 28.554C77.4583 28.3945 79.1227 29.8383 79.8204 30.4132C80.0048 30.5562 80.0779 30.5821 79.914 30.3795C79.9064 30.37 79.8957 30.3579 79.8823 30.3432C79.558 29.9998 78.2525 28.8552 77.8813 28.554ZM91.7986 40.244C92.0871 40.4302 91.6237 39.9904 91.1489 39.6073C90.7831 39.3118 90.4205 39.0563 90.3829 39.1104C90.3692 39.1315 90.7215 39.4091 91.0839 39.6926C91.4265 39.9601 91.7649 40.2222 91.7986 40.244ZM238.367 37.9691C238.389 37.9908 238.49 38.1087 238.623 38.2652C238.905 38.6015 239.357 39.1347 239.373 39.1621C239.606 39.5685 238.992 38.9357 238.511 38.3643C237.964 37.7185 237.55 37.1512 238.367 37.9691ZM109.079 50.7981C109.035 50.7983 109.013 50.8052 109.004 50.8173C109 50.8177 108.999 50.8196 109.001 50.8228C108.996 50.8665 109.084 50.9486 109.366 51.0209C109.647 51.0929 110.077 51.1377 109.662 50.9857C109.638 50.977 109.4 50.9177 109.279 50.8743C109.149 50.8301 109.089 50.7985 109.079 50.7981ZM114.398 51.7303C114.254 51.7257 113.872 51.6812 113.588 51.6316C113.297 51.5826 113.118 51.5381 113.107 51.567C113.087 51.6118 113.282 51.7016 113.602 51.7536C113.913 51.8065 114.321 51.8096 114.398 51.7303ZM261.986 48.5952C261.905 48.5303 262.043 48.432 262.41 48.2021C262.769 47.979 263.407 47.5813 263.969 47.2234C264.079 47.1547 264.177 47.089 264.252 47.0328C264.331 47.0628 264.224 47.1762 264.029 47.3161C263.242 47.863 262.19 48.4731 261.986 48.5952ZM251.63 48.097C252.16 48.2648 252.607 48.3708 252.969 48.4375C253.84 48.5894 255.223 48.7001 255.856 48.7539C256.554 48.8119 256.853 48.8467 256.789 48.8746C256.727 48.9008 256.299 48.9183 255.568 48.8903C254.89 48.8671 253.635 48.7649 252.933 48.6144C252.463 48.5131 251.87 48.3356 251.185 48.0513C251.226 47.9129 251.199 47.9572 251.63 48.097ZM261.447 48.699C261.455 48.7625 261.446 48.7928 261.414 48.807C261.147 48.859 260.729 48.8856 260.377 48.9034C260.444 48.8347 261.035 48.7819 261.402 48.7211C261.428 48.7149 261.439 48.7104 261.447 48.699ZM74.7483 25.4879C75.2035 25.7039 77.2084 27.6709 76.794 27.4171C76.6215 27.3196 74.4761 25.4032 74.7483 25.4879ZM239.107 38.5131C239.091 38.1859 241.174 40.5788 241.323 40.7896C241.857 41.6432 239.288 38.6685 239.107 38.5131ZM273.612 39.3353C273.92 38.8839 275.09 38.0356 275.815 37.3895C275.582 37.7975 274.25 38.8492 273.612 39.3353ZM267.118 44.4434C267.151 44.4081 268.293 43.4301 268.365 43.3781C268.915 43.0089 268.314 43.5719 267.759 44.0482C267.201 44.5264 266.673 44.9197 267.118 44.4434ZM0.803405 44.002C0.82243 43.9375 1.53211 42.6514 1.56858 42.6143C2.33367 41.546 0.219845 45.3994 0.803405 44.002Z" fill="#DF175F"/>
</svg>
