<svg xmlns="http://www.w3.org/2000/svg" version="1.1" viewBox="0 0 200 200">
    <!-- Generator: Adobe Illustrator 28.7.1, SVG Export Plug-In . SVG Version: 1.2.0 Build 142)  -->
    <g>
        <g id="Ebene_1">
            <g>
                <polygon points="119.7 154.2 124.6 154.2 122.2 145.2 119.7 154.2" />
                <polygon points="74.7 154.2 79.6 154.2 77.2 145.2 74.7 154.2" />
                <path
                    d="M100.1.5C45.2.5.6,45.1.6,100s44.5,99.5,99.5,99.5,99.5-44.5,99.5-99.5S155.1.5,100.1.5ZM78.2,55.4c5.2-1.2,9.9,0,14.5,2.4,3.4,1.8,6.3,4.1,8.4,7.5,1.3,2.2,2.1,4.5,2.6,7,.9,3.9.8,7.8.4,11.7-.3,3.4-1,6.9-2.5,10.1,0-.3,0-.7,0-1,0-4.1-.3-8.2-1.3-12.1-.8-3.3-1.8-6.5-4.5-8.9-2.2-2-4.9-2.9-7.9-2.6-1.4.1-2.2,1.1-2.3,2.5,0,.3,0,.6,0,1,0,.6-.3.8-.9.7-4.5-.8-8.6-2.2-11.1-6.3-1.7-2.7-2.1-5.7-.4-8.6,1.1-1.9,3-2.8,5.1-3.3ZM27,119.8c-2.5-1.9-4-4.4-4.2-7.6-.3-4.5,1.2-8.6,3.2-12.5,1-1.9,2.1-3.6,3.2-5.5.1,0,.3,0,.4.1,0,.6,0,1.1-.1,1.7-.3,3.6,0,7.2,1.8,10.4,1.4,2.4,3.5,4,6.1,4.9,4.3,1.5,8.6,1.3,13,.7,2.5-.4,5-1,7.1-2.4,2.7-1.8,4.2-4.2,4.2-7.5,0-13.3,0-26.5,0-39.8,0-4.4-1.6-8-4.3-11.2-.6-.7-.7-1.2-.3-2,1.7-3.4,3.2-6.8,4.9-10.4.3.3.6.5.8.8,2,2.5,4.6,4.1,7.6,5.2,2.1.8,2,.7,1.1,2.8-1.1,2.4-2,4.9-3,7.4-.2.4-.2.9-.2,1.3-.2,14.6-.3,29.2-.6,43.8-.1,6.6-2.2,12.5-7,17.3-2.7,2.7-6,4.4-9.7,5.4-5.3,1.4-10.6,1.2-15.9.3-3-.5-5.9-1.4-8.4-3.2ZM62.8,163.7h-6.9v-10.1h-7.5v10.1h-6.9v-24.9h6.9v8.7h7.5v-8.7h6.9v24.9ZM82.2,163.7l-1.1-4.1h-7.8l-1.1,4.1h-7l8.4-24.9h7.5l8.4,24.9h-7.2ZM109.2,163.7h-17.6v-24.9h6.9v18.8h10.7v6.1ZM127.2,163.7l-1.1-4.1h-7.8l-1.1,4.1h-7l8.4-24.9h7.5l8.4,24.9h-7.2ZM154.2,163.7h-17.6v-24.9h6.9v18.8h10.7v6.1ZM168,111.1c-.4.7-.8.5-1.3.1-1.7-1.2-3.3-2.5-5.1-3.5-4.4-2.4-9.2-2.9-14-1.6-3.8,1-7.5,2.2-11.2,3.4-3.9,1.2-7.8,2.5-11.9,2.4-3.4,0-6.5-1.1-9.5-2.4-1.9-.9-2.4-.6-3.4,1.3-1.5,2.9-3,5.7-4.9,8.4-2.8,4-6.5,7.1-11.1,8.9-1.5.6-3.1,1-4.7,1.2-5,.5-9.8,0-14.2-2.7-3.2-1.9-5-4.9-5.9-8.6-.6-2.5-.6-4.9-.4-7.4.4-3.8,1.4-7.5,2.9-11,1.1-2.6,2.4-5.1,4.2-7.3.2-.3.5-.5.9-.9-.4,2.3-.7,4.3-1,6.3-.6,3.4-.6,6.8.2,10.1,1,4.3,3.3,7.5,7.5,9.1,2.2.8,4.6.9,6.9.9,2.7,0,5.4-.3,8-1.3,2.8-1,5.1-2.5,6-5.5.3-1.1.4-2.3.4-3.4-.3-12.6-.6-25.1-.9-37.7-.2-7.9-.5-15.9-.6-23.8,0-.7.3-1.5.7-2.1,1.7-2.3,3.4-4.5,5.2-6.7.2-.3.5-.5,1-1,0,.8,0,1.4,0,1.9,0,9.1,0,18.1.1,27.2,0,7.8.2,15.7.3,23.5,0,3.8,1.7,6.8,5.2,8.6,1.9,1,4.1,1.2,6.3,1.3,5.7.2,11.3.4,16.9-.6,1.2-.2,2.4-.6,3.6-1.1.8-.3,1-1.1.4-1.7-1.5-1.7-3.2-3.2-5.5-3.7-1.7-.3-3,.3-4.2,1.4-.6.5-1,.5-1.6,0-2.9-2.1-6-3.8-9.5-4.7-.5-.1-.9-.3-1.5-.6.5-.7.8-1.4,1.3-1.9,2.1-2.6,4.5-4.8,7.7-6.1,3.1-1.2,6.3-1.2,9.5-.5,5.6,1.3,10.1,4.8,14.4,8.4,2.7,2.3,5.5,4.5,8.7,6.1,3.6,1.8,7.5,2.5,11.5,2.6.6,0,1.1,0,2,0-.9,1.2-1.7,2.1-2.3,3.1-2.4,3.7-4.8,7.5-7.2,11.3Z" />
            </g>
        </g>
    </g>
</svg>